<svg height="681pt" viewBox="-22 -21 681 681.33464" width="681pt" xmlns="http://www.w3.org/2000/svg"><path d="m287.441406 484.238281c5.167969 0 9.351563-4.183593 9.351563-9.351562 0-4.398438-3.035157-8.09375-7.128907-9.089844-.746093-1.328125-1.773437-4.371094-1.773437-8.722656v-9.769531c0-4.351563 1.027344-7.394532 1.773437-8.722657 4.09375-.996093 7.128907-4.6875 7.128907-9.089843 0-5.164063-4.183594-9.351563-9.351563-9.351563-10.578125 0-18.257812 11.421875-18.257812 27.164063v9.769531c0 15.742187 7.679687 27.164062 18.257812 27.164062zm0 0"/><path d="m349.445312 420.140625c-5.164062 0-9.351562 4.1875-9.351562 9.351563 0 4.402343 3.039062 8.089843 7.132812 9.089843.746094 1.324219 1.773438 4.371094 1.773438 8.722657v9.765624c0 4.355469-1.027344 7.398438-1.773438 8.726563-4.09375.996094-7.132812 4.691406-7.132812 9.085937 0 5.171876 4.1875 9.355469 9.351562 9.355469 10.578126 0 18.261719-11.425781 18.261719-27.167969v-9.765624c0-15.742188-7.675781-27.164063-18.261719-27.164063zm0 0"/><path d="m376.375 137.402344c-4.230469-2.96875-10.0625-1.945313-13.03125 2.285156l-10.671875 15.226562c-2.964844 4.226563-1.941406 10.058594 2.289063 13.023438 1.632812 1.144531 3.507812 1.695312 5.363281 1.695312 2.945312 0 5.847656-1.386718 7.664062-3.984374l10.671875-15.21875c2.96875-4.230469 1.945313-10.0625-2.285156-13.027344zm0 0"/><path d="m409.636719 138.488281c-4.230469-2.964843-10.066407-1.945312-13.03125 2.285157l-25.425781 36.257812c-2.960938 4.230469-1.9375 10.0625 2.285156 13.027344 1.636718 1.148437 3.507812 1.699218 5.367187 1.699218 2.941407 0 5.847657-1.386718 7.664063-3.984374l25.425781-36.257813c2.964844-4.226563 1.941406-10.058594-2.285156-13.027344zm0 0"/><path d="m527.972656 417.960938c1.636719 1.148437 3.507813 1.699218 5.359375 1.699218 2.949219 0 5.847657-1.394531 7.671875-3.988281l10.671875-15.21875c2.964844-4.234375 1.941407-10.0625-2.289062-13.03125-4.230469-2.964844-10.0625-1.941406-13.027344 2.289063l-10.671875 15.21875c-2.96875 4.230468-1.945312 10.066406 2.285156 13.03125zm0 0"/><path d="m546.480469 440.082031c1.632812 1.152344 3.511719 1.695313 5.363281 1.695313 2.945312 0 5.847656-1.382813 7.664062-3.980469l25.429688-36.257813c2.960938-4.230468 1.9375-10.0625-2.292969-13.027343-4.226562-2.964844-10.0625-1.941407-13.023437 2.285156l-25.429688 36.257813c-2.964844 4.230468-1.941406 10.066406 2.289063 13.027343zm0 0"/><path d="m85.960938 215.472656c-4.230469-2.96875-10.0625-1.945312-13.03125 2.285156l-10.671876 15.222657c-2.96875 4.230469-1.945312 10.058593 2.285157 13.027343 1.636719 1.144532 3.507812 1.695313 5.367187 1.695313 2.941406 0 5.839844-1.386719 7.664063-3.984375l10.671875-15.21875c2.96875-4.230469 1.945312-10.0625-2.285156-13.027344zm0 0"/><path d="m119.214844 216.558594c-4.226563-2.96875-10.058594-1.945313-13.023438 2.292968l-25.425781 36.253907c-2.96875 4.226562-1.945313 10.058593 2.285156 13.027343 1.636719 1.144532 3.511719 1.695313 5.363281 1.695313 2.945313 0 5.847657-1.386719 7.667969-3.984375l25.425781-36.257812c2.96875-4.226563 1.9375-10.058594-2.292968-13.027344zm0 0"/><path d="m618.722656 71.261719h-84.003906v-52.851563c0-10.105468-8.222656-18.3281248-18.324219-18.3281248h-66.332031c-5.164062 0-9.351562 4.1874998-9.351562 9.3515628 0 5.171875 4.1875 9.359375 9.351562 9.359375h65.953125v79.304687h-395.136719v-79.304687h286.113282c5.167968 0 9.351562-4.1875 9.351562-9.359375 0-5.164063-4.183594-9.3515628-9.351562-9.3515628h-286.492188c-10.109375 0-18.332031 8.2226568-18.332031 18.3281248v52.851563h-84c-9.96875 0-18.0820315 8.113281-18.0820315 18.085937v77.890625c0 9.507813 7.3750005 17.304688 16.7070315 18.011719v328.75c0 .089844.011719.175781.015625.261719-.003906.089843-.015625.171875-.015625.265625v114.949218c0 5.171876 4.1875 9.359376 9.355469 9.359376h584.59375c5.167968 0 9.355468-4.1875 9.355468-9.359376v-114.949218c0-.09375-.015625-.175782-.015625-.265625 0-.085938.015625-.171875.015625-.261719v-328.75c9.328125-.703125 16.710938-8.503906 16.710938-18.011719v-77.890625c0-9.972656-8.113282-18.085937-18.085938-18.085937zm-290.925781 45.546875h152.929687v104.804687h-152.929687zm-171.636719 0h152.929688v104.804687h-152.929688zm0 123.507812h324.566406v264.859375h-49.984374v-160.394531c7.34375-.949219 13.039062-7.226562 13.039062-14.824219v-30.933593c0-8.253907-6.710938-14.964844-14.960938-14.964844h-220.75c-8.25 0-14.960937 6.710937-14.960937 14.964844v30.933593c0 7.597657 5.699219 13.875 13.042969 14.824219v59.691406c0 5.167969 4.183594 9.351563 9.351562 9.351563 5.164063 0 9.355469-4.183594 9.355469-9.351563v-59.554687h84.230469v200.136719h-84.230469v-98.386719c0-5.167969-4.191406-9.355469-9.355469-9.355469-5.167968 0-9.351562 4.1875-9.351562 9.355469v58.507812h-49.992188zm171.636719 104.601563h84.234375v200.136719h-84.234375zm-115.984375-18.710938v-23.4375h213.261719v23.4375zm225.925781 237.554688v18.699219h-238.589843v-18.699219zm-418.945312-397.148438v-76.640625h83.375v8.507813c0 10.101562 8.222656 18.324219 18.332031 18.324219h16.953125v49.808593zm16.710937 169.015625v-150.308594h101.949219v150.308594zm101.949219 18.707032v150.3125h-101.949219v-150.3125zm12.003906 243.972656v21.816406h-113.953125v-96.246094h170.648438v21.175782h-10.125c-8.59375 0-15.582032 6.992187-15.582032 15.585937v22.078125h-15.402343c-8.589844 0-15.585938 6.992188-15.585938 15.589844zm319.265625 21.816406h-300.558594v-18.699219h300.558594zm132.667969 0h-113.957031v-21.816406c0-8.597656-6.996094-15.589844-15.589844-15.589844h-15.394531v-22.078125c0-8.59375-6.996094-15.585937-15.589844-15.585937h-10.117187v-21.175782h170.648437zm0-115.476562h-101.957031v-150.3125h101.957031zm0-169.019532h-101.957031v-150.308594h101.957031zm16.707031-169.015625h-118.664062v-49.804687h16.960937c10.101563 0 18.324219-8.226563 18.324219-18.328125v-8.507813h83.378906zm0 0"/></svg>