<svg height="496pt" viewBox="0 0 496 496" width="496pt" xmlns="http://www.w3.org/2000/svg"><path d="m136 360c-13.230469 0-24 10.769531-24 24s10.769531 24 24 24 24-10.769531 24-24-10.769531-24-24-24zm0 32c-4.40625 0-8-3.585938-8-8s3.59375-8 8-8 8 3.585938 8 8-3.59375 8-8 8zm0 0"/><path d="m360 360c-13.230469 0-24 10.769531-24 24s10.769531 24 24 24 24-10.769531 24-24-10.769531-24-24-24zm0 32c-4.40625 0-8-3.585938-8-8s3.59375-8 8-8 8 3.585938 8 8-3.59375 8-8 8zm0 0"/><path d="m176.863281 137.007812c4.601563-4.488281 7.136719-10.519531 7.136719-17.007812 0-6.839844-1.984375-13.441406-5.742188-19.089844l-18.257812-27.308594-18.257812 27.320313c-3.757813 5.636719-5.742188 12.238281-5.742188 19.078125 0 13.230469 10.769531 24 24 24 6.488281 0 12.527344-2.527344 16.863281-6.992188zm-24.863281-17.007812c0-3.671875 1.054688-7.199219 3.046875-10.191406l4.953125-7.410156 4.945312 7.402343c2 3 3.054688 6.527344 3.054688 10.199219 0 2.136719-.816406 4.105469-2.449219 5.703125-1.445312 1.472656-3.414062 2.296875-5.550781 2.296875-4.40625 0-8-3.585938-8-8zm0 0"/><path d="m89.53125 123.289062 26.238281-35.996093 12.929688 9.425781-26.238281 35.996094zm0 0"/><path d="m191.289062 96.710938 12.929688-9.425782 26.238281 35.996094-12.929687 9.425781zm0 0"/><path d="m336.863281 137.007812c4.601563-4.488281 7.136719-10.519531 7.136719-17.007812 0-6.839844-1.984375-13.441406-5.742188-19.089844l-18.257812-27.308594-18.257812 27.320313c-3.757813 5.636719-5.742188 12.238281-5.742188 19.078125 0 13.230469 10.769531 24 24 24 6.488281 0 12.527344-2.527344 16.863281-6.992188zm-24.863281-17.007812c0-3.671875 1.054688-7.199219 3.046875-10.191406l4.953125-7.410156 4.945312 7.402343c2 3 3.054688 6.527344 3.054688 10.199219 0 2.136719-.816406 4.105469-2.449219 5.703125-1.445312 1.472656-3.414062 2.296875-5.550781 2.296875-4.40625 0-8-3.585938-8-8zm0 0"/><path d="m249.53125 123.292969 26.238281-35.996094 12.929688 9.425781-26.238281 35.996094zm0 0"/><path d="m351.285156 96.710938 12.929688-9.425782 26.234375 35.996094-12.929688 9.425781zm0 0"/><path d="m56 240h16v16h-16zm0 0"/><path d="m32 312h16v16h-16zm0 0"/><path d="m424 240h16v16h-16zm0 0"/><path d="m80 0v48h64.296875l-19.730469 27.144531 12.945313 9.40625 22.488281-30.941406 22.488281 30.933594 12.945313-9.40625-19.730469-27.136719h128.585937l-19.730468 27.144531 12.945312 9.40625 22.496094-30.941406 22.488281 30.933594 12.945313-9.40625-19.730469-27.136719h84.984375l27.3125 27.3125v128.0625c-5-2.183594-10.433594-3.375-16-3.375-19.617188 0-35.984375 14.191406-39.359375 32.847656-4.167969.984375-7.960937 2.863282-11.328125 5.3125 1.710938-4.480468 2.6875-9.257812 2.6875-14.160156 0-22.054688-17.945312-40-40-40-3.246094 0-6.464844.390625-9.609375 1.167969-5.933594-5.824219-13.949219-9.167969-22.390625-9.167969-17.648438 0-32 14.351562-32 32 0 5.855469 1.695312 11.273438 4.449219 16h-24.90625c2.761719-4.726562 4.457031-10.144531 4.457031-16 0-17.648438-14.351562-32-32-32-4.441406 0-8.777344.9375-12.816406 2.761719-7.34375-6.914063-16.925782-10.761719-27.183594-10.761719-13.046875 0-25.167969 6.449219-32.574219 16.894531-2.433593-.589843-4.921875-.894531-7.425781-.894531-17.648438 0-32 14.351562-32 32 0 10.769531 5.335938 20.273438 13.625 26.105469-2.984375 3.222656-5.601562 6.75-7.738281 10.574219-3.734375-9.824219-12.144531-17.375-22.519531-19.824219-3.382813-18.664063-19.75-32.855469-39.367188-32.855469s-35.984375 14.191406-39.359375 32.847656c-14.113281 3.335938-24.640625 16.039063-24.640625 31.152344 0 17.648438 14.351562 32 32 32h32v32c0 13.230469 10.769531 24 24 24h2.0625c-6.453125 9.246094-10.0625 20.351562-10.0625 32v32.007812c-8.832031.039063-16 7.199219-16 15.992188v16c0 8.824219 7.207031 16 16.078125 16h7.921875v8c0 13.230469 10.769531 24 24 24h32c13.230469 0 24-10.769531 24-24v-8h160v8c0 13.230469 10.769531 24 24 24h32c13.230469 0 24-10.769531 24-24v-8h7.921875c8.863281 0 16.078125-7.175781 16.078125-16v-16c0-8.792969-7.167969-15.953125-16-15.992188v-32.007812c0-11.648438-3.609375-22.761719-10.054688-32h2.054688c13.230469 0 24-10.769531 24-24v-32h16v200h48v-496zm16 16h384v16h-384zm347.3125 32h36.6875v188.390625c-2.679688-1.558594-5.558594-2.804687-8.65625-3.535156-1.105469-6-3.65625-11.65625-7.34375-16.640625v-147.527344zm-43.3125 368h-304v-32c0-13.457031 6.703125-25.902344 17.960938-33.34375.671874-.449219 1.335937-.921875 2.421874-1.480469 5.898438-3.382812 12.679688-5.175781 19.617188-5.175781h25.96875l16 56h140.070312l16-56h25.960938c6.9375 0 13.71875 1.792969 20.03125 5.40625.671875.328125 1.335938.808594 2.03125 1.265625 11.234375 7.425781 17.9375 19.871094 17.9375 33.328125zm-246.03125-88 11.03125-49.65625c.847656-3.734375 4.054688-6.34375 7.800781-6.34375h150.398438c3.746093 0 6.953125 2.609375 7.792969 6.296875l11.039062 49.703125zm163.421875 16-11.429687 40h-115.929688l-11.429688-40zm42.609375-16h-1.585938l-11.8125-53.214844c-2.53125-11.058594-12.144531-18.785156-23.402343-18.785156h-150.398438c-11.257812 0-20.871093 7.726562-23.410156 18.832031l-11.804687 53.167969h-1.585938c-4.328125 0-8.601562.574219-12.726562 1.527344l12.382812-57.925782c2.222656-10.328124 8.304688-19.203124 17.078125-24.960937 6.730469-4.34375 14.363281-6.640625 22.066406-6.640625h146.398438c12.738281 0 24.824219 6.160156 32.335937 16.464844 3.304688 4.542968 5.65625 9.78125 6.808594 15.128906l12.375 57.957031c-4.152344-.976562-8.40625-1.550781-12.71875-1.550781zm-64-120c0-8.824219 7.175781-16 16-16 5.238281 0 10.167969 2.601562 13.183594 6.953125l3.640625 5.253906 5.929687-2.390625c2.988282-1.207031 6.101563-1.816406 9.246094-1.816406 13.230469 0 24 10.769531 24 24 0 6.3125-2.566406 12.328125-6.929688 16.808594-10.445312-10.609375-24.8125-16.808594-39.871093-16.808594h-9.199219c-8.824219 0-16-7.175781-16-16zm-136.679688-6.160156 7.449219 3.816406 3.46875-7.617188c3.898438-8.535156 12.433594-14.039062 21.761719-14.039062 7.585938 0 14.574219 3.542969 19.183594 9.742188l4.824218 6.480468 6.433594-4.886718c2-1.519532 5.277344-3.335938 9.558594-3.335938 8.824219 0 16 7.175781 16 16s-7.175781 16-16 16h-57.199219c-9.503906 0-18.832031 2.601562-27.335937 7.328125-6.746094-2.023437-11.464844-8.128906-11.464844-15.328125 0-11.289062 12.382812-19.769531 23.320312-14.160156zm-127.320312 78.160156c-8.824219 0-16-7.175781-16-16s7.175781-16 16-16h8v-8c0-13.230469 10.769531-24 24-24s24 10.769531 24 24v8h8c8.824219 0 16 7.175781 16 16s-7.175781 16-16 16zm83.558594 9.144531-1.460938 6.855469h-18.097656c7.398438 0 14.128906-2.625 19.558594-6.855469zm-35.558594 38.855469v-16h30.679688l-5.128907 24h-17.550781c-4.40625 0-8-3.585938-8-8zm72 144c0 4.414062-3.59375 8-8 8h-32c-4.40625 0-8-3.585938-8-8v-8h48zm240 0c0 4.414062-3.59375 8-8 8h-32c-4.40625 0-8-3.585938-8-8v-8h48zm23.921875-24h-335.921875l.078125-16h335.921875zm.078125-120c0 4.414062-3.59375 8-8 8h-17.535156l-5.128906-24h30.664062zm-34.089844-32-1.460937-6.847656c5.421875 4.222656 12.160156 6.847656 19.550781 6.847656zm18.089844-16c-8.824219 0-16-7.175781-16-16s7.175781-16 16-16h8v-8c0-13.230469 10.769531-24 24-24 6.871094 0 13.433594 2.976562 17.976562 8.152344 3.878907 4.441406 6.023438 10.070312 6.023438 15.847656v8h8c8.824219 0 16 7.175781 16 16s-7.175781 16-16 16zm64 200v-184c5.855469 0 11.273438-1.695312 16-4.449219v188.449219zm0 0"/><path d="m256 160h16v16h-16zm0 0"/><path d="m96 160h16v16h-16zm0 0"/><path d="m392 160h16v16h-16zm0 0"/></svg>