<?xml version="1.0"?>
<svg xmlns="http://www.w3.org/2000/svg" viewBox="0 0 64 64" width="512" height="512"><g id="outline"><path d="M61,15H56.739A5.5,5.5,0,0,0,52.5,6H21.373c-.057-.068-.1-.144-.166-.207a.739.739,0,0,1,.113-1.138l1.235-.823-1.11-1.664-1.235.823A2.683,2.683,0,0,0,19.1,6H17.373c-.057-.068-.1-.144-.166-.207a.739.739,0,0,1,.113-1.138l1.235-.823-1.11-1.664-1.235.823A2.683,2.683,0,0,0,15.1,6H13.373c-.057-.068-.1-.144-.166-.207a.739.739,0,0,1,.113-1.138l1.235-.823-1.11-1.664-1.235.823A2.683,2.683,0,0,0,11.1,6H7A1,1,0,0,0,6,7a9.982,9.982,0,0,0,4.025,8H3a1,1,0,0,0-1,1v4a1,1,0,0,0,1,1V56a1,1,0,0,0-1,1v4a1,1,0,0,0,1,1H61a1,1,0,0,0,1-1V57a1,1,0,0,0-1-1V21a1,1,0,0,0,1-1V16A1,1,0,0,0,61,15Zm-5-3.5A3.5,3.5,0,0,1,52.5,15H21.975a10.078,10.078,0,0,0,1.154-1H28a4,4,0,0,0,4-4,3.959,3.959,0,0,0-.556-2H52.5A3.5,3.5,0,0,1,56,11.5ZM30,10a2,2,0,0,1-2,2H24.647a9.9,9.9,0,0,0,1.3-4H28A2,2,0,0,1,30,10ZM8.062,8h3.893a.706.706,0,0,1-.275.345l-1.235.823,1.11,1.664,1.235-.823A2.729,2.729,0,0,0,14,8h1.959a.706.706,0,0,1-.275.345l-1.235.823,1.11,1.664,1.235-.823A2.729,2.729,0,0,0,18,8h1.959a.706.706,0,0,1-.275.345l-1.235.823,1.11,1.664,1.235-.823A2.729,2.729,0,0,0,22,8h1.942A8,8,0,0,1,8.062,8ZM4,17H60v2H4ZM49,27.5a3.5,3.5,0,0,1-7,0V21h7Zm-9,0a3.5,3.5,0,0,1-7,0V21h7Zm-9,0a3.5,3.5,0,0,1-7,0V21h7Zm-9,0a3.5,3.5,0,0,1-7,0V21h7Zm-9,0a3.5,3.5,0,0,1-7,0V21h7ZM51,21h7v6.5a3.5,3.5,0,0,1-7,0Zm9,39H4V58H60ZM11.293,40.707a1,1,0,0,0,1.414,0L16.414,37H21v1.586l-7.707,7.707a1,1,0,1,0,1.414,1.414L21,41.414V49a2.969,2.969,0,0,0-1.5.409,3.029,3.029,0,0,0-3,0,3.029,3.029,0,0,0-3,0,3.029,3.029,0,0,0-3,0A2.969,2.969,0,0,0,9,49V37h4.586l-2.293,2.293A1,1,0,0,0,11.293,40.707ZM8,52a1,1,0,0,1,1-1,.991.991,0,0,1,.747.348,1.032,1.032,0,0,0,1.506,0,.976.976,0,0,1,1.494,0,1.032,1.032,0,0,0,1.506,0,.976.976,0,0,1,1.494,0,1.032,1.032,0,0,0,1.506,0,.976.976,0,0,1,1.494,0,1.032,1.032,0,0,0,1.506,0A.991.991,0,0,1,21,51a1,1,0,0,1,0,2H9A1,1,0,0,1,8,52Zm2,3H20v1H10Zm27,1H27V37H37Zm8.293-15.293a1,1,0,0,0,1.414,0L50.414,37H55v1.586l-7.707,7.707a1,1,0,1,0,1.414,1.414L55,41.414V49a2.969,2.969,0,0,0-1.5.409,3.029,3.029,0,0,0-3,0,3.029,3.029,0,0,0-3,0,3.029,3.029,0,0,0-3,0A2.969,2.969,0,0,0,43,49V37h4.586l-2.293,2.293A1,1,0,0,0,45.293,40.707ZM42,52a1,1,0,0,1,1-1,.991.991,0,0,1,.747.348,1.032,1.032,0,0,0,1.506,0,.976.976,0,0,1,1.494,0,1.032,1.032,0,0,0,1.506,0,.976.976,0,0,1,1.494,0,1.032,1.032,0,0,0,1.506,0,.976.976,0,0,1,1.494,0,1.032,1.032,0,0,0,1.506,0A.991.991,0,0,1,55,51a1,1,0,0,1,0,2H43A1,1,0,0,1,42,52Zm2,3H54v1H44Zm12,1V55a.987.987,0,0,0,.947-.736A2.962,2.962,0,0,0,57,49.78V36a1,1,0,0,0-1-1H42a1,1,0,0,0-1,1V49.78a2.962,2.962,0,0,0,.053,4.484A.987.987,0,0,0,42,55v1H39V36a1,1,0,0,0-1-1H26a1,1,0,0,0-1,1V56H22V55a.987.987,0,0,0,.947-.736A2.962,2.962,0,0,0,23,49.78V36a1,1,0,0,0-1-1H8a1,1,0,0,0-1,1V49.78a2.962,2.962,0,0,0,.053,4.484A.987.987,0,0,0,8,55v1H5V30.652a5.486,5.486,0,0,0,9,0,5.486,5.486,0,0,0,9,0,5.486,5.486,0,0,0,9,0,5.486,5.486,0,0,0,9,0,5.486,5.486,0,0,0,9,0,5.486,5.486,0,0,0,9,0V56Z"/><rect x="34" y="46" width="2" height="2"/></g></svg>
