<svg id="Layer_5" enable-background="new 0 0 64 64" height="512" viewBox="0 0 64 64" width="512" xmlns="http://www.w3.org/2000/svg"><path d="m36 32h-2c0 1.103-.897 2-2 2s-2-.897-2-2h-2c0 2.206 1.794 4 4 4s4-1.794 4-4z"/><path d="m49.123 47.289-10.259-4.198c-1.133-.463-1.864-1.553-1.864-2.777v-.718c3.077-2.126 5.427-5.126 6.759-8.596h.241c2.757 0 5-2.243 5-5v-12.901c0-3.325-2.294-6.225-5.498-7.012l-.553-.552c-2.924-2.924-6.812-4.535-10.949-4.535h-1.515c-8.539 0-15.485 6.947-15.485 15.485v9.515c0 2.757 2.243 5 5 5h.241c1.332 3.471 3.682 6.47 6.759 8.596v.718c0 1.224-.731 2.313-1.864 2.777l-10.259 4.197c-6 2.455-9.877 8.229-9.877 14.712v1h54v-1c0-6.483-3.877-12.257-9.877-14.711zm-5.081 4.864-8.557 7.273 6.737-12.8 2.512 1.028zm-.465 3.018-.643 4.177 1.652 1.652h-7.866zm3.423 5.415-1.935-1.935 1.572-10.219.774.317 1.523 9.902zm-14-40.586v2h-2v-2h-10v-1.219l1.073-.268c1.455-.364 2.704-1.266 3.507-2.513h12.84c.803 1.247 2.052 2.149 3.507 2.513l1.073.268v1.219zm8 2v2c0 1.103-.897 2-2 2h-2c-1.103 0-2-.897-2-2v-2zm-12 0v2c0 1.103-.897 2-2 2h-2c-1.103 0-2-.897-2-2v-2zm15.414 6.958c.379-1.482.586-3.025.586-4.607v-1.167c1.161.414 2 1.514 2 2.816 0 1.512-1.129 2.754-2.586 2.958zm-13.929-25.958h1.515c3.603 0 6.989 1.403 9.535 3.95l.972.971.297.059c2.431.487 4.196 2.64 4.196 5.119v8.926c-.584-.442-1.257-.773-2-.924v-3.882l-2.589-.647c-1.095-.273-2.012-1.01-2.517-2.02l-.276-.552h-15.236l-.276.553c-.505 1.01-1.422 1.746-2.517 2.02l-2.589.646v3.882c-.743.152-1.416.482-2 .924v-5.54c0-7.436 6.05-13.485 13.485-13.485zm-13.485 23c0-1.302.839-2.402 2-2.816v1.167c0 1.582.207 3.125.586 4.607-1.457-.204-2.586-1.446-2.586-2.958zm4-1.649v-.351c0 2.206 1.794 4 4 4h2c2.206 0 4-1.794 4-4h2c0 2.206 1.794 4 4 4h2c2.206 0 4-1.794 4-4v.351c0 7.023-4.406 13.247-11 15.591-6.594-2.344-11-8.568-11-15.591zm10.684 17.598.316.105.316-.105c.947-.316 1.855-.702 2.719-1.153.095.995.479 1.914 1.09 2.665l-4.125 4.125-4.125-4.125c.61-.751.994-1.669 1.089-2.664.864.449 1.773.836 2.72 1.152zm-5.79 2.993c.148-.061.284-.138.423-.211l5.683 5.683 5.684-5.683c.139.073.275.151.423.211l2.256.923-7.967 15.135h-.793l-7.966-15.135zm2.621 14.484-12.355-10.502 5.618-2.298zm-14.351-9.575 13.116 11.149h-10.28v-6h-2v6h-7.965c.335-4.712 3.021-8.881 7.129-11.149zm35.25 11.149 1.651-1.651-1.482-9.633c4.251 2.234 7.04 6.476 7.381 11.284z"/><path d="m22.471 12.5-1.73-1.002c-.398.688-.735 1.418-1 2.168l1.885.667c.224-.634.508-1.25.845-1.833z"/><path d="m32 7v-2c-3.693 0-7.225 1.58-9.689 4.333l1.49 1.334c2.086-2.331 5.074-3.667 8.199-3.667z"/></svg>