<?xml version="1.0" encoding="UTF-8"?>
<!DOCTYPE svg PUBLIC "-//W3C//DTD SVG 1.1//EN" "http://www.w3.org/Graphics/SVG/1.1/DTD/svg11.dtd">
<!-- Creator: CorelDRAW (Evaluation Version) -->
<svg xmlns="http://www.w3.org/2000/svg" xml:space="preserve" width="55.7139mm" height="46.6713mm" version="1.1" style="shape-rendering:geometricPrecision; text-rendering:geometricPrecision; image-rendering:optimizeQuality; fill-rule:evenodd; clip-rule:evenodd"
viewBox="0 0 444.69 372.51"
 xmlns:xlink="http://www.w3.org/1999/xlink"
 xmlns:xodm="http://www.corel.com/coreldraw/odm/2003">
 <defs>
  <style type="text/css">
   <![CDATA[
    .str2 {stroke:#2B2B2A;stroke-width:0.84;stroke-miterlimit:22.9256}
    .str3 {stroke:#2B2B2A;stroke-width:0.84;stroke-miterlimit:22.9256}
    .str1 {stroke:#2B2B2A;stroke-width:1.41;stroke-miterlimit:22.9256}
    .str0 {stroke:#2B2B2A;stroke-width:1.41;stroke-linejoin:bevel;stroke-miterlimit:22.9256}
    .fil1 {fill:#2B2B2A}
    .fil0 {fill:#FFEE00}
    .fil2 {fill:#1F1C21}
    .fil4 {fill:#2B2B2A;fill-rule:nonzero}
    .fil3 {fill:#FFEE00;fill-rule:nonzero}
   ]]>
  </style>
 </defs>
 <g id="Layer_x0020_1">
  <metadata id="CorelCorpID_0Corel-Layer"/>
  <g id="_105828797605344">
   <g>
    <polygon class="fil0 str0" points="311.57,146.44 347.46,176.72 347.79,224.45 311.9,194.16 "/>
    <polygon class="fil0 str0" points="311.9,194.16 347.79,224.45 297.09,246.81 261.2,216.53 "/>
   </g>
   <polygon class="fil0 str1" points="311.57,146.44 311.9,194.16 261.2,216.53 261.7,169.35 "/>
   <path class="fil0" d="M54.49 153.86l-4.8 1.6c-2.4,0.8 -4.74,1.8 -6.96,3.02 -1.59,0.87 -2.88,2.17 -3.95,3.62 -1.17,1.58 -1.68,3.48 -1.83,5.42l0 85.55 -36.95 0 0 -208.42c0,-3.76 0.69,-7.64 1.41,-11.33 1.14,-5.82 4.14,-10.99 7.95,-15.47 4.88,-5.74 11.74,-9.75 18.6,-12.68 9.97,-4.25 22.28,-5.18 33.04,-5.18 10.75,0 23.07,0.93 33.04,5.18 6.86,2.92 13.73,6.94 18.6,12.68 3.81,4.48 6.81,9.65 7.95,15.47 0.72,3.69 1.41,7.57 1.41,11.33l0 55.7c0,8.1 -2.28,15.65 -6.45,22.57 -4.25,7.04 -10.86,11.96 -18.16,15.45l40.04 114.7 -39.13 0 -28.88 -82.91c-2.24,-6.85 -5.46,-18.02 -14.93,-16.3zm-17.54 -31.23c0.57,-0.21 1.14,-0.42 1.71,-0.63 3.19,-1.18 6.41,-2.3 9.64,-3.38 3.31,-1.1 6.61,-2.26 9.88,-3.46 3.03,-1.11 6.07,-2.19 9.13,-3.21 1.33,-0.44 2.67,-0.89 4,-1.34 1.17,-0.39 2.33,-0.81 3.57,-1.3 3.07,-1.11 6.94,-3 8.4,-6.12 1.04,-2.23 2.1,-5.03 2.1,-7.51l0 -46.03c0,-1.79 -0.35,-3.6 -0.84,-5.32 -0.51,-1.79 -1.66,-3.3 -2.99,-4.56 -2.03,-1.92 -4.83,-3.29 -7.42,-4.28 -4.14,-1.58 -9.41,-1.88 -13.81,-1.88 -4.16,0 -9.03,0.33 -12.93,1.87 -2.49,0.98 -5.08,2.37 -6.88,4.38 -1.27,1.41 -2.4,3.09 -2.84,4.96 -0.43,1.8 -0.72,3.66 -0.72,5.51l0 72.31z"/>
   <path class="fil1" d="M53.77 151.08l-4.99 1.66c-2.57,0.86 -5.06,1.93 -7.43,3.23 -1.96,1.08 -3.56,2.64 -4.87,4.43 -1.53,2.08 -2.21,4.52 -2.39,7.01l0 82.79 -31.22 0 0 -205.55c0,-3.48 0.7,-7.37 1.36,-10.78 1.04,-5.33 3.84,-10.06 7.32,-14.16 4.57,-5.37 11.12,-9.16 17.54,-11.9 9.54,-4.07 21.65,-4.95 31.91,-4.95 10.26,0 22.37,0.88 31.91,4.95 6.42,2.74 12.97,6.52 17.54,11.9 3.48,4.1 6.28,8.83 7.32,14.16 0.66,3.41 1.36,7.3 1.36,10.78l0 55.7c0,7.58 -2.14,14.61 -6.04,21.09 -4.39,7.28 -11.59,12.11 -19.27,15.41l39.57 113.36 -33.06 0 -28.19 -80.93c-1.75,-5.35 -5.69,-20.68 -18.38,-18.19zm-19.68 -24.38c1.87,-0.65 3.72,-1.32 5.57,-2.01 3.16,-1.17 6.35,-2.28 9.55,-3.35 3.34,-1.11 6.66,-2.28 9.97,-3.49 3,-1.1 6.01,-2.17 9.04,-3.18 1.33,-0.44 2.67,-0.89 4,-1.34 1.21,-0.4 2.41,-0.83 3.64,-1.32 3.88,-1.4 8.19,-3.69 10.03,-7.6 1.23,-2.64 2.37,-5.78 2.37,-8.73l0 -46.03c0,-2.06 -0.38,-4.13 -0.95,-6.11 -0.66,-2.3 -2.06,-4.23 -3.78,-5.86 -2.31,-2.19 -5.41,-3.74 -8.36,-4.87 -4.47,-1.71 -10.08,-2.07 -14.83,-2.07 -4.53,0 -9.73,0.39 -13.98,2.07 -2.92,1.15 -5.84,2.77 -7.97,5.13 -1.6,1.78 -2.95,3.86 -3.5,6.21 -0.48,2.01 -0.8,4.1 -0.8,6.17l0 76.38z"/>
   <g>
    <polygon class="fil2" points="407.65,203.79 391.81,247.63 370.62,247.63 390.25,193.05 370.62,138.48 391.81,138.48 407.65,182.31 423.5,138.48 444.69,138.48 425.06,193.05 444.69,247.63 423.5,247.63 "/>
   </g>
   <polygon class="fil3" points="407.65,199.1 407.74,199.06 407.57,199.06 407.65,199.1 424.62,246.03 442.42,246.03 423.36,193.05 422.82,192.85 422.82,193.26 423.36,193.05 442.42,140.07 424.62,140.07 407.65,187.01 390.69,140.07 372.89,140.07 391.95,193.05 392.66,193.33 392.66,192.78 391.95,193.05 372.89,246.03 390.69,246.03 "/>
   <g>
    <path class="fil2 str2" d="M176.85 136.78c13.59,-7.95 26.38,-9.02 40.64,-1.48 5.16,2.87 9.9,6.69 13.07,11.73 3.13,4.97 4.61,10.44 4.61,16.31l0 57.57c0,3.86 -0.73,7.6 -2.25,11.14 -1.59,3.68 -4.12,6.71 -7.26,9.18 -3.66,2.88 -8.03,4.81 -12.47,6.13 -5.74,1.7 -12,2.22 -17.96,2.22 -9.98,0 -22.21,-1.4 -30.11,-8.14 -6.25,-5.32 -9.67,-12.05 -9.83,-20.29l0 -141.95 21.17 0 0 34.4 0.39 23.18zm37.38 32.89l-0.25 0 0.03 -0.82c0.72,-22.64 -39.18,-22.99 -37.55,0.03l0 48.66c0,1.53 0.35,3.06 0.87,4.49 0.61,1.67 1.63,3.09 2.91,4.3 1.57,1.49 3.65,2.48 5.69,3.16 2.91,0.97 6.25,1.23 9.3,1.23 4.71,0 11.28,-0.6 14.73,-4.24 2.66,-2.8 4.12,-6.09 4.27,-9.93l0 -46.86z"/>
   </g>
   <path class="fil3 str3" d="M215.03 168.87l-0.23 0c0.76,-23.8 -40.85,-24.08 -39.14,0l0 48.81 0 -0.23c0,1.53 0.31,3.15 0.92,4.84 0.61,1.69 1.65,3.22 3.11,4.61 1.46,1.38 3.45,2.5 5.99,3.34 2.53,0.84 5.72,1.27 9.56,1.27 7.37,0 12.47,-1.5 15.31,-4.49 2.84,-2.99 4.34,-6.49 4.49,-10.48l0 -47.66zm19.34 46.51l0 5.53c0,3.84 -0.73,7.44 -2.19,10.82 -1.46,3.38 -3.8,6.33 -7.02,8.87 -3.22,2.53 -7.29,4.53 -12.2,5.99 -4.91,1.46 -10.82,2.19 -17.73,2.19 -13.51,0 -23.37,-2.65 -29.59,-7.94 -6.22,-5.3 -9.4,-11.86 -9.55,-19.69l0 -141.15 19.57 0 0 29.47 0 4.14 0.42 24.56c14.73,-9.02 27.46,-9.35 41.03,-2.17 5.28,2.93 9.79,6.7 12.78,11.46 2.99,4.76 4.49,10.06 4.49,15.89l0 5.53 0 46.51z"/>
  </g>
  <g id="_105828717898624">
   <path class="fil4" d="M95.63 288.14c0.13,-0.61 0.4,-1.07 0.81,-1.39 0.42,-0.31 0.87,-0.46 1.37,-0.46 0.46,0 0.91,0.15 1.36,0.44 0.45,0.29 0.76,0.72 0.95,1.27 0.04,1.94 0.06,3.79 0.07,5.55 0.01,1.76 0.02,3.53 0.02,5.31 0,0.43 0,0.79 0,1.09 0,0.29 0.01,0.57 0.03,0.84 0.01,0.26 0.02,0.54 0.02,0.83 0,0.29 0,0.66 0,1.09 1.39,-2.38 2.76,-4.74 4.13,-7.09 1.37,-2.36 2.75,-4.73 4.14,-7.14 0.49,-0.8 1.19,-1.21 2.08,-1.21 0.49,0 0.94,0.15 1.34,0.44 0.4,0.29 0.7,0.72 0.88,1.28l0.14 6.88c0.06,2.53 0.11,5.02 0.16,7.48 0.05,2.47 0.07,5.02 0.07,7.67 -0.06,0.74 -0.31,1.3 -0.76,1.67 -0.45,0.37 -0.95,0.55 -1.5,0.55 -0.49,0 -0.97,-0.17 -1.43,-0.51 -0.46,-0.34 -0.72,-0.86 -0.79,-1.57 0,-1.54 -0.01,-3.01 -0.04,-4.41 -0.04,-1.4 -0.06,-2.79 -0.1,-4.18 0,-0.56 -0.01,-1.02 -0.02,-1.41 -0.01,-0.38 -0.03,-0.77 -0.05,-1.16 -0.01,-0.38 -0.02,-0.79 -0.02,-1.21 0,-0.41 0,-0.91 0,-1.5l-2.49 4.2c-0.98,1.69 -1.99,3.39 -3,5.09 -1.02,1.69 -2.02,3.37 -3,5.03 -0.55,0.65 -1.21,0.97 -1.99,0.97 -0.52,0 -1,-0.17 -1.43,-0.53 -0.43,-0.36 -0.68,-0.85 -0.74,-1.5 0,-3.88 -0.01,-7.61 -0.05,-11.18 -0.03,-3.57 -0.08,-7.3 -0.14,-11.18l0 -0.05zm28.45 16.26c-0.46,0.28 -0.91,0.43 -1.36,0.44 -0.45,0.01 -0.83,-0.06 -1.16,-0.21 -0.33,-0.15 -0.59,-0.38 -0.79,-0.67 -0.2,-0.29 -0.3,-0.63 -0.3,-1 0,-0.61 0.31,-1.16 0.93,-1.66 0.43,-0.24 0.83,-0.48 1.2,-0.7 0.37,-0.22 0.72,-0.4 1.07,-0.55l1.25 -1.02c0.46,-0.31 0.97,-0.66 1.52,-1.07 0.56,-0.4 1.07,-0.83 1.53,-1.29 0.47,-0.47 0.86,-0.97 1.18,-1.51 0.33,-0.54 0.52,-1.12 0.58,-1.73 -0.86,0.15 -1.78,0.45 -2.75,0.9 -0.97,0.45 -2.19,1.02 -3.67,1.74 -0.95,0.22 -1.73,0.13 -2.31,-0.24 -0.59,-0.37 -0.88,-0.86 -0.88,-1.48 0,-0.59 0.34,-1.17 1.02,-1.76l1.2 -0.6c0.65,-0.31 1.34,-0.63 2.06,-0.99 0.72,-0.36 1.46,-0.68 2.22,-0.95 0.75,-0.28 1.51,-0.49 2.26,-0.63 0.76,-0.14 1.48,-0.16 2.15,-0.07 0.55,0.06 1.03,0.24 1.43,0.51 0.4,0.28 0.73,0.61 1,1 0.26,0.38 0.45,0.81 0.55,1.27 0.11,0.47 0.17,0.93 0.17,1.39 -0.04,1.14 -0.36,2.22 -1,3.23 -0.63,1.02 -1.34,1.92 -2.15,2.72l0.09 0.05c0.55,0.19 1.06,0.43 1.53,0.72 0.46,0.29 0.85,0.65 1.18,1.06 0.32,0.42 0.54,0.87 0.67,1.37 0.13,0.49 0.13,1.03 0,1.62 -0.28,0.8 -0.79,1.71 -1.53,2.72 -0.74,1.02 -1.57,2.01 -2.52,2.98 -0.94,0.97 -1.91,1.83 -2.91,2.56 -1,0.75 -1.88,1.21 -2.65,1.39 -0.49,0.13 -0.99,0.16 -1.5,0.1 -0.51,-0.06 -0.98,-0.17 -1.42,-0.3 -0.42,-0.14 -0.82,-0.29 -1.18,-0.47 -0.36,-0.17 -0.62,-0.31 -0.81,-0.44 -0.19,-0.12 -0.43,-0.28 -0.74,-0.48 -0.31,-0.2 -0.61,-0.44 -0.9,-0.72 -0.29,-0.28 -0.53,-0.57 -0.72,-0.88 -0.19,-0.31 -0.24,-0.63 -0.18,-0.97 0.12,-0.62 0.4,-1.07 0.83,-1.37 0.43,-0.29 0.91,-0.44 1.43,-0.44 0.62,0 1.13,0.2 1.53,0.6 0.98,0.95 1.77,1.44 2.36,1.44 0.47,0 0.96,-0.22 1.48,-0.65 0.52,-0.43 1.12,-0.99 1.8,-1.67 0.62,-0.59 1.22,-1.22 1.8,-1.9 0.59,-0.68 1.08,-1.44 1.48,-2.31 -0.62,-0.31 -1.28,-0.46 -1.99,-0.46 -0.68,0 -1.37,0.13 -2.08,0.37 -0.7,0.24 -1.35,0.57 -1.94,0.97l-0.05 0zm18.43 7.44c-0.06,0.74 -0.31,1.3 -0.74,1.67 -0.42,0.37 -0.92,0.56 -1.48,0.56 -0.49,0 -0.97,-0.18 -1.43,-0.54 -0.47,-0.36 -0.72,-0.89 -0.79,-1.59 0,-3.24 0.01,-6.47 0.02,-9.68 0.02,-3.22 0.04,-6.46 0.07,-9.73 0.09,-0.49 0.26,-0.88 0.51,-1.16 0.24,-0.27 0.63,-0.49 1.16,-0.64 0.8,-0.13 1.62,-0.2 2.45,-0.24 0.83,-0.03 1.69,-0.06 2.59,-0.09 0.89,-0.04 1.79,-0.06 2.7,-0.09 0.91,-0.04 1.81,-0.13 2.7,-0.28 0.86,-0.06 1.52,0.11 1.97,0.51 0.45,0.4 0.67,0.86 0.67,1.39 0,0.43 -0.17,0.83 -0.51,1.2 -0.34,0.37 -0.86,0.65 -1.57,0.84 -0.74,0.12 -1.49,0.19 -2.26,0.23 -0.77,0.03 -1.55,0.04 -2.36,0.04 -0.62,0 -1.23,0.01 -1.83,0.03 -0.6,0.01 -1.21,0.05 -1.83,0.11 0,1.48 -0.01,2.94 -0.02,4.37 -0.02,1.43 -0.03,2.87 -0.03,4.32l0 8.77zm13.31 -10.02c0.06,-1.08 0.19,-2.2 0.41,-3.37 0.22,-1.17 0.59,-2.29 1.12,-3.37 0.37,-0.74 0.83,-1.44 1.39,-2.1 0.55,-0.66 1.17,-1.23 1.85,-1.71 0.68,-0.48 1.4,-0.86 2.17,-1.16 0.77,-0.29 1.55,-0.44 2.36,-0.44 1.6,0 3.07,0.57 4.39,1.71 1.48,1.36 2.56,2.94 3.26,4.76 0.69,1.82 1.07,3.67 1.13,5.55 0.03,1.26 -0.16,2.63 -0.58,4.11 -0.41,1.48 -1.03,2.84 -1.85,4.09 -0.81,1.25 -1.83,2.26 -3.02,3.07 -1.21,0.8 -2.59,1.13 -4.16,0.98 -1.29,-0.13 -2.43,-0.51 -3.42,-1.16 -0.98,-0.65 -1.86,-1.51 -2.63,-2.59 -0.9,-1.3 -1.5,-2.65 -1.8,-4.07 -0.31,-1.41 -0.51,-2.85 -0.6,-4.29zm5.45 -4.95c-0.65,1.54 -0.98,3.21 -0.99,5.02 -0.02,1.8 0.34,3.48 1.08,5.06 0.34,0.68 0.8,1.34 1.39,2.01 0.59,0.66 1.31,1 2.17,1 0.61,0 1.22,-0.26 1.83,-0.77 0.6,-0.51 1.12,-1.21 1.55,-2.1 0.34,-0.77 0.61,-1.6 0.81,-2.5 0.2,-0.89 0.3,-1.81 0.3,-2.77 0,-0.74 -0.1,-1.58 -0.3,-2.52 -0.2,-0.94 -0.49,-1.83 -0.88,-2.68 -0.38,-0.84 -0.86,-1.56 -1.41,-2.15 -0.56,-0.59 -1.17,-0.88 -1.85,-0.88 -0.4,0 -0.79,0.1 -1.16,0.32 -0.37,0.22 -0.72,0.48 -1.04,0.81 -0.33,0.33 -0.61,0.68 -0.86,1.06 -0.24,0.38 -0.46,0.75 -0.65,1.09zm25.32 14.88c-0.04,0.74 -0.27,1.3 -0.72,1.66 -0.45,0.37 -0.95,0.55 -1.51,0.55 -0.49,0 -0.97,-0.17 -1.43,-0.53 -0.47,-0.36 -0.72,-0.88 -0.79,-1.6 0.06,-2.92 0.09,-5.8 0.09,-8.63 0,-2.84 0,-5.73 0,-8.69 -0.65,0.03 -1.34,0.05 -2.08,0.05 -0.74,0 -1.41,0 -2.03,0 -0.77,-0.06 -1.34,-0.3 -1.71,-0.72 -0.37,-0.41 -0.56,-0.84 -0.56,-1.27 0,-0.49 0.2,-0.93 0.61,-1.32 0.4,-0.38 1,-0.61 1.8,-0.67 2.04,0 4.1,0.01 6.2,0.02 2.09,0.01 4.24,-0.08 6.47,-0.3 0.83,-0.06 1.48,0.11 1.94,0.51 0.47,0.4 0.7,0.86 0.7,1.39 0,0.43 -0.16,0.84 -0.49,1.22 -0.33,0.38 -0.82,0.65 -1.5,0.81 -0.75,0.09 -1.51,0.15 -2.31,0.17 -0.8,0.01 -1.66,0.02 -2.59,0.02 0,2.93 0,5.82 0,8.68 0,2.86 -0.03,5.75 -0.09,8.64zm9.83 -9.93c0.06,-1.08 0.19,-2.2 0.41,-3.37 0.22,-1.17 0.59,-2.29 1.12,-3.37 0.37,-0.74 0.83,-1.44 1.39,-2.1 0.55,-0.66 1.17,-1.23 1.85,-1.71 0.68,-0.48 1.4,-0.86 2.17,-1.16 0.77,-0.29 1.55,-0.44 2.36,-0.44 1.6,0 3.07,0.57 4.39,1.71 1.48,1.36 2.56,2.94 3.26,4.76 0.69,1.82 1.07,3.67 1.13,5.55 0.03,1.26 -0.16,2.63 -0.58,4.11 -0.41,1.48 -1.03,2.84 -1.85,4.09 -0.81,1.25 -1.83,2.26 -3.02,3.07 -1.21,0.8 -2.59,1.13 -4.16,0.98 -1.29,-0.13 -2.43,-0.51 -3.42,-1.16 -0.98,-0.65 -1.86,-1.51 -2.63,-2.59 -0.9,-1.3 -1.5,-2.65 -1.8,-4.07 -0.31,-1.41 -0.51,-2.85 -0.6,-4.29zm5.45 -4.95c-0.65,1.54 -0.98,3.21 -0.99,5.02 -0.02,1.8 0.34,3.48 1.08,5.06 0.34,0.68 0.8,1.34 1.39,2.01 0.59,0.66 1.31,1 2.17,1 0.61,0 1.22,-0.26 1.83,-0.77 0.6,-0.51 1.12,-1.21 1.55,-2.1 0.34,-0.77 0.61,-1.6 0.81,-2.5 0.2,-0.89 0.3,-1.81 0.3,-2.77 0,-0.74 -0.1,-1.58 -0.3,-2.52 -0.2,-0.94 -0.49,-1.83 -0.88,-2.68 -0.38,-0.84 -0.86,-1.56 -1.41,-2.15 -0.56,-0.59 -1.17,-0.88 -1.85,-0.88 -0.4,0 -0.79,0.1 -1.16,0.32 -0.37,0.22 -0.72,0.48 -1.04,0.81 -0.33,0.33 -0.61,0.68 -0.86,1.06 -0.24,0.38 -0.46,0.75 -0.65,1.09zm18.94 16.72c-0.37,0 -0.79,-0.03 -1.25,-0.09 -0.47,-0.06 -0.88,-0.19 -1.25,-0.39 -0.37,-0.2 -0.66,-0.47 -0.86,-0.81 -0.2,-0.34 -0.21,-0.79 -0.02,-1.34l0 -18.71c0.06,-0.34 0.16,-0.61 0.3,-0.83 0.14,-0.22 0.38,-0.45 0.72,-0.69 0.86,-0.37 1.74,-0.71 2.63,-1.02 0.9,-0.31 1.8,-0.54 2.73,-0.7 0.92,-0.15 1.85,-0.2 2.79,-0.14 0.94,0.06 1.88,0.3 2.84,0.7 1.3,0.59 2.38,1.41 3.24,2.49 0.86,1.08 1.29,2.27 1.29,3.55 0,0.98 -0.25,1.89 -0.76,2.7 -0.51,0.82 -1.16,1.53 -1.97,2.15 1.17,0.68 2.08,1.53 2.72,2.56 0.65,1.03 0.97,2.1 0.97,3.21 0,0.89 -0.23,1.77 -0.69,2.63 -0.47,0.86 -1.17,1.68 -2.13,2.45 -0.71,0.56 -1.53,0.98 -2.45,1.27 -0.93,0.29 -1.89,0.51 -2.91,0.65 -1.02,0.13 -2.03,0.22 -3.05,0.27 -1.01,0.05 -1.98,0.07 -2.91,0.07zm4.34 -10.81c-0.62,-0.06 -1.18,-0.1 -1.69,-0.12 -0.51,-0.01 -1.02,-0.02 -1.55,-0.02l0 6.98c0.7,0 1.46,0.01 2.27,0.02 0.8,0.02 1.57,-0.02 2.31,-0.11 0.74,-0.09 1.41,-0.28 2.03,-0.56 0.61,-0.27 1.11,-0.72 1.48,-1.34 0.46,-0.77 0.61,-1.44 0.44,-1.99 -0.17,-0.55 -0.52,-1.03 -1.07,-1.44 -0.54,-0.4 -1.18,-0.71 -1.92,-0.94 -0.74,-0.23 -1.45,-0.4 -2.13,-0.49l-0.18 0zm-3.23 -4.11c0.52,0 1.06,0.01 1.62,0.02 0.55,0.01 1.09,0.04 1.62,0.07 0.37,-0.03 0.82,-0.14 1.34,-0.32 0.52,-0.19 1.02,-0.43 1.48,-0.72 0.47,-0.29 0.86,-0.63 1.18,-1.02 0.33,-0.38 0.49,-0.81 0.49,-1.27 0,-0.77 -0.31,-1.37 -0.95,-1.78 -0.63,-0.42 -1.38,-0.69 -2.24,-0.81 -0.86,-0.13 -1.71,-0.11 -2.56,0.04 -0.85,0.15 -1.5,0.4 -1.97,0.74l0 5.04zm15.61 8.13c-0.22,-0.4 -0.31,-0.79 -0.27,-1.16 0.03,-0.37 0.13,-0.7 0.32,-0.97 0.19,-0.28 0.43,-0.5 0.74,-0.67 0.31,-0.17 0.63,-0.26 0.97,-0.26 0.37,0 0.75,0.09 1.12,0.28 0.37,0.19 0.72,0.49 1.06,0.93l0.05 0.04c0.12,0.22 0.3,0.55 0.53,1 0.23,0.45 0.49,0.89 0.76,1.34 0.28,0.45 0.57,0.84 0.86,1.2 0.29,0.36 0.53,0.55 0.72,0.58 0.31,-0.43 0.55,-1.02 0.74,-1.78 0.19,-0.75 0.32,-1.42 0.41,-2.01 0,-0.06 0.01,-0.12 0.03,-0.17 0.01,-0.05 0.02,-0.1 0.02,-0.16 0.15,-1.11 0.26,-2.22 0.32,-3.32 0.06,-1.11 0.1,-2.2 0.1,-3.28 0,-0.93 -0.01,-1.84 -0.05,-2.75 -0.04,-0.91 -0.06,-1.81 -0.09,-2.7 0.09,-0.49 0.26,-0.88 0.51,-1.16 0.24,-0.28 0.63,-0.51 1.16,-0.69 0.89,-0.13 1.81,-0.2 2.77,-0.24 0.95,-0.03 1.88,-0.07 2.77,-0.13 0.89,-0.06 1.78,-0.12 2.68,-0.17 0.89,-0.05 1.78,-0.15 2.68,-0.3 0.74,-0.03 1.31,0.09 1.71,0.35 0.4,0.26 0.71,0.7 0.93,1.32l0 9.38c0,1.54 0.01,3.07 0.02,4.59 0.02,1.53 0.03,3.08 0.03,4.65 -0.06,0.74 -0.32,1.29 -0.77,1.66 -0.45,0.37 -0.93,0.56 -1.46,0.56 -0.52,0 -1,-0.17 -1.45,-0.51 -0.45,-0.34 -0.7,-0.86 -0.77,-1.57l0 -8.22c0,-1.39 -0.01,-2.74 -0.02,-4.05 -0.01,-1.3 -0.02,-2.66 -0.02,-4.04l-6.29 0.56c0,0.22 0.01,0.44 0.02,0.67 0.02,0.23 0.03,0.44 0.03,0.62 0,0.52 0.01,1.07 0.02,1.62 0.01,0.55 0.02,1.11 0.02,1.66 0,1.85 -0.1,3.71 -0.32,5.59 -0.22,1.88 -0.68,3.61 -1.39,5.18 -0.49,0.98 -1.09,1.7 -1.8,2.15 -0.7,0.45 -1.48,0.67 -2.31,0.67 -0.83,0 -1.65,-0.21 -2.45,-0.62 -0.8,-0.42 -1.54,-1.01 -2.22,-1.78 -0.37,-0.47 -0.7,-0.95 -1.02,-1.46 -0.31,-0.51 -0.61,-1.02 -0.92,-1.55l-0.47 -0.88zm45.41 -6.79c-0.49,1.02 -1.25,1.87 -2.26,2.56 -1.02,0.69 -2.14,1.27 -3.37,1.74 -1.23,0.46 -2.5,0.82 -3.81,1.09 -1.31,0.26 -2.5,0.47 -3.58,0.62 0.59,1.29 1.46,2.32 2.63,3.09 1.17,0.77 2.57,1.08 4.2,0.93 0.99,-0.15 1.93,-0.41 2.82,-0.77 0.89,-0.36 1.82,-0.79 2.77,-1.32 0.49,-0.22 0.95,-0.31 1.39,-0.27 0.42,0.03 0.8,0.13 1.13,0.3 0.33,0.17 0.57,0.4 0.74,0.69 0.17,0.29 0.26,0.59 0.26,0.91 0,0.74 -0.46,1.39 -1.39,1.94 -1.26,0.68 -2.69,1.28 -4.28,1.81 -1.58,0.52 -3.19,0.78 -4.82,0.78 -1.02,0 -1.99,-0.13 -2.93,-0.39 -0.94,-0.26 -1.81,-0.7 -2.61,-1.32 -1.69,-1.3 -2.97,-2.89 -3.81,-4.76 -0.84,-1.87 -1.27,-3.82 -1.27,-5.82 0,-1.11 0.13,-2.19 0.39,-3.26 0.26,-1.06 0.65,-2.06 1.18,-3 0.52,-0.94 1.18,-1.81 1.97,-2.61 0.79,-0.8 1.71,-1.48 2.79,-2.03 1.26,-0.59 2.71,-0.88 4.34,-0.88 1.45,0 2.81,0.24 4.07,0.72 1.26,0.48 2.28,1.16 3.07,2.03 0.79,0.88 1.25,1.92 1.39,3.14 0.14,1.22 -0.19,2.58 -0.99,4.09zm-13.49 -0.55c-0.13,0.46 -0.22,0.91 -0.28,1.34 -0.06,0.43 -0.08,0.86 -0.04,1.29 0.06,0 0.16,-0.01 0.3,-0.04 0.13,-0.04 0.24,-0.05 0.3,-0.05 0.83,-0.12 1.68,-0.24 2.54,-0.37 0.86,-0.12 1.69,-0.31 2.49,-0.55 0.8,-0.24 1.57,-0.59 2.29,-1.05 0.72,-0.45 1.36,-1.09 1.92,-1.92 0.52,-0.77 0.69,-1.44 0.51,-2.03 -0.19,-0.59 -0.55,-1.06 -1.09,-1.42 -0.54,-0.36 -1.18,-0.59 -1.92,-0.71 -0.74,-0.13 -1.4,-0.13 -1.99,0 -0.71,0.12 -1.34,0.38 -1.9,0.78 -0.56,0.4 -1.05,0.88 -1.48,1.41 -0.43,0.54 -0.79,1.1 -1.07,1.69 -0.28,0.58 -0.48,1.12 -0.6,1.62zm20.46 -7.67c0.13,-0.62 0.39,-1.08 0.79,-1.39 0.4,-0.31 0.86,-0.46 1.39,-0.46 0.46,0 0.91,0.15 1.34,0.44 0.43,0.29 0.74,0.72 0.93,1.27 0,0.71 -0.01,1.4 -0.03,2.08 -0.01,0.68 -0.02,1.36 -0.02,2.03l0 3.7c0.52,-0.06 1.04,-0.12 1.57,-0.17 0.52,-0.05 1.05,-0.1 1.57,-0.16 0.61,-0.06 1.16,-0.12 1.64,-0.18 0.48,-0.06 1.02,-0.15 1.64,-0.24 0,-0.4 0,-0.81 0,-1.22 0,-0.42 0,-0.9 0,-1.44 0,-0.54 0.01,-1.17 0.03,-1.9 0.01,-0.72 0.02,-1.59 0.02,-2.61 0,-0.52 0.24,-0.97 0.72,-1.34 0.48,-0.37 0.98,-0.56 1.5,-0.56 0.15,0 0.35,0.03 0.58,0.09 0.23,0.06 0.47,0.17 0.7,0.3 0.23,0.14 0.43,0.33 0.62,0.56 0.19,0.23 0.29,0.5 0.33,0.81 0,1.45 0,2.72 0,3.83 0,1.11 0,2.11 0,3 0,0.89 0.01,1.71 0.02,2.47 0.01,0.75 0.02,1.48 0.02,2.2 0.03,1.44 0.06,2.88 0.07,4.32 0.01,1.43 0.02,2.87 0.02,4.32 -0.06,0.74 -0.31,1.29 -0.76,1.66 -0.45,0.37 -0.93,0.56 -1.46,0.56 -0.52,0 -1.01,-0.17 -1.46,-0.51 -0.45,-0.34 -0.7,-0.86 -0.76,-1.58 0,-1.5 0,-2.75 0,-3.74 0,-0.98 -0.01,-1.8 -0.02,-2.45 -0.02,-0.65 -0.03,-1.18 -0.03,-1.6 0,-0.41 0,-0.81 0,-1.18 -1.11,0.15 -2.18,0.29 -3.23,0.42 -1.04,0.12 -2.13,0.26 -3.23,0.42 -0.03,1.54 -0.04,3.02 -0.02,4.45 0.01,1.44 0.01,2.8 -0.02,4.09 0,0.28 -0.08,0.51 -0.26,0.7 -0.17,0.18 -0.38,0.33 -0.62,0.44 -0.24,0.1 -0.5,0.17 -0.77,0.2 -0.26,0.03 -0.48,0.05 -0.67,0.05 -0.52,0 -0.99,-0.15 -1.39,-0.46 -0.4,-0.31 -0.66,-0.77 -0.79,-1.39l0 -10.03c0,-1.63 0.01,-3.25 0.03,-4.87 0.01,-1.62 0.02,-3.25 0.02,-4.92l0 -0.05zm20.09 0.42c0.13,-0.62 0.4,-1.08 0.81,-1.39 0.42,-0.31 0.87,-0.47 1.37,-0.47 0.46,0 0.91,0.14 1.36,0.42 0.45,0.28 0.77,0.71 0.95,1.3 0,1.17 0,2.27 0,3.3 0,1.03 -0.01,2.06 -0.02,3.09 -0.01,1.03 -0.03,2.07 -0.05,3.12 -0.01,1.05 -0.02,2.15 -0.02,3.32l3.37 -4.76 6.43 -8.96c0.27,-0.24 0.56,-0.42 0.88,-0.51 0.31,-0.09 0.6,-0.14 0.88,-0.14 0.52,0 0.98,0.14 1.36,0.42 0.38,0.27 0.65,0.69 0.81,1.25l0 19.68c-0.06,0.77 -0.31,1.34 -0.74,1.71 -0.43,0.37 -0.93,0.56 -1.48,0.56 -0.49,0 -0.97,-0.17 -1.44,-0.53 -0.46,-0.36 -0.72,-0.89 -0.78,-1.6l0 -12.7 -0.33 0.37c-1.54,2.1 -3.08,4.22 -4.62,6.38 -1.54,2.15 -3.08,4.39 -4.62,6.7 -0.55,0.65 -1.21,0.97 -1.99,0.97 -0.55,0 -1.04,-0.17 -1.48,-0.53 -0.43,-0.36 -0.68,-0.86 -0.74,-1.51 0.04,-3.26 0.06,-6.5 0.07,-9.72 0.01,-3.22 0.02,-6.46 0.02,-9.73l0 -0.04zm40.33 7.8c-0.49,1.02 -1.25,1.87 -2.26,2.56 -1.02,0.69 -2.14,1.27 -3.37,1.74 -1.23,0.46 -2.5,0.82 -3.81,1.09 -1.31,0.26 -2.5,0.47 -3.58,0.62 0.59,1.29 1.46,2.32 2.63,3.09 1.17,0.77 2.57,1.08 4.2,0.93 0.99,-0.15 1.93,-0.41 2.82,-0.77 0.89,-0.36 1.82,-0.79 2.77,-1.32 0.49,-0.22 0.95,-0.31 1.39,-0.27 0.42,0.03 0.8,0.13 1.13,0.3 0.33,0.17 0.57,0.4 0.74,0.69 0.17,0.29 0.26,0.59 0.26,0.91 0,0.74 -0.46,1.39 -1.39,1.94 -1.26,0.68 -2.69,1.28 -4.28,1.81 -1.58,0.52 -3.19,0.78 -4.82,0.78 -1.02,0 -1.99,-0.13 -2.93,-0.39 -0.94,-0.26 -1.81,-0.7 -2.61,-1.32 -1.69,-1.3 -2.97,-2.89 -3.81,-4.76 -0.84,-1.87 -1.27,-3.82 -1.27,-5.82 0,-1.11 0.13,-2.19 0.39,-3.26 0.26,-1.06 0.65,-2.06 1.18,-3 0.52,-0.94 1.18,-1.81 1.97,-2.61 0.79,-0.8 1.71,-1.48 2.79,-2.03 1.26,-0.59 2.71,-0.88 4.34,-0.88 1.45,0 2.81,0.24 4.07,0.72 1.26,0.48 2.28,1.16 3.07,2.03 0.79,0.88 1.25,1.92 1.39,3.14 0.14,1.22 -0.19,2.58 -0.99,4.09zm-13.49 -0.55c-0.13,0.46 -0.22,0.91 -0.28,1.34 -0.06,0.43 -0.08,0.86 -0.04,1.29 0.06,0 0.16,-0.01 0.3,-0.04 0.13,-0.04 0.24,-0.05 0.3,-0.05 0.83,-0.12 1.68,-0.24 2.54,-0.37 0.86,-0.12 1.69,-0.31 2.49,-0.55 0.8,-0.24 1.57,-0.59 2.29,-1.05 0.72,-0.45 1.36,-1.09 1.92,-1.92 0.52,-0.77 0.69,-1.44 0.51,-2.03 -0.19,-0.59 -0.55,-1.06 -1.09,-1.42 -0.54,-0.36 -1.18,-0.59 -1.92,-0.71 -0.74,-0.13 -1.4,-0.13 -1.99,0 -0.71,0.12 -1.34,0.38 -1.9,0.78 -0.56,0.4 -1.05,0.88 -1.48,1.41 -0.43,0.54 -0.79,1.1 -1.07,1.69 -0.28,0.58 -0.48,1.12 -0.6,1.62zm-284.07 62.97c-0.37,0 -0.79,-0.03 -1.25,-0.09 -0.47,-0.06 -0.88,-0.19 -1.25,-0.39 -0.37,-0.2 -0.66,-0.47 -0.86,-0.81 -0.2,-0.34 -0.21,-0.79 -0.02,-1.34l0 -18.71c0.06,-0.34 0.16,-0.61 0.3,-0.83 0.14,-0.22 0.38,-0.45 0.72,-0.69 0.86,-0.37 1.74,-0.71 2.63,-1.02 0.9,-0.31 1.8,-0.54 2.73,-0.7 0.92,-0.15 1.85,-0.2 2.79,-0.14 0.94,0.06 1.88,0.3 2.84,0.7 1.3,0.59 2.38,1.41 3.24,2.49 0.86,1.08 1.29,2.27 1.29,3.55 0,0.98 -0.25,1.89 -0.76,2.7 -0.51,0.82 -1.16,1.53 -1.97,2.15 1.17,0.68 2.08,1.53 2.72,2.56 0.65,1.03 0.97,2.1 0.97,3.21 0,0.89 -0.23,1.77 -0.69,2.63 -0.47,0.86 -1.17,1.68 -2.13,2.45 -0.71,0.56 -1.53,0.98 -2.45,1.27 -0.93,0.29 -1.89,0.51 -2.91,0.65 -1.02,0.13 -2.03,0.22 -3.05,0.27 -1.01,0.05 -1.98,0.07 -2.91,0.07zm4.34 -10.81c-0.62,-0.06 -1.18,-0.1 -1.69,-0.12 -0.51,-0.01 -1.02,-0.02 -1.55,-0.02l0 6.98c0.7,0 1.46,0.01 2.27,0.02 0.8,0.02 1.57,-0.02 2.31,-0.11 0.74,-0.09 1.41,-0.28 2.03,-0.56 0.61,-0.27 1.11,-0.72 1.48,-1.34 0.46,-0.77 0.61,-1.44 0.44,-1.99 -0.17,-0.55 -0.52,-1.03 -1.07,-1.44 -0.54,-0.4 -1.18,-0.71 -1.92,-0.94 -0.74,-0.23 -1.45,-0.4 -2.13,-0.49l-0.18 0zm-3.23 -4.11c0.52,0 1.06,0.01 1.62,0.02 0.55,0.01 1.09,0.04 1.62,0.07 0.37,-0.03 0.82,-0.14 1.34,-0.32 0.52,-0.19 1.02,-0.43 1.48,-0.72 0.47,-0.29 0.86,-0.63 1.18,-1.02 0.33,-0.38 0.49,-0.81 0.49,-1.27 0,-0.77 -0.31,-1.37 -0.95,-1.78 -0.63,-0.42 -1.38,-0.69 -2.24,-0.81 -0.86,-0.13 -1.71,-0.11 -2.56,0.04 -0.85,0.15 -1.5,0.4 -1.97,0.74l0 5.04z"/>
   <path class="fil4" d="M71.29 340.63c0.13,-0.62 0.39,-1.08 0.79,-1.39 0.4,-0.31 0.86,-0.46 1.39,-0.46 0.46,0 0.91,0.15 1.34,0.44 0.43,0.29 0.74,0.72 0.93,1.27 0,0.71 -0.01,1.4 -0.03,2.08 -0.01,0.68 -0.02,1.36 -0.02,2.03l0 3.7c0.52,-0.06 1.04,-0.12 1.57,-0.17 0.52,-0.05 1.05,-0.1 1.57,-0.16 0.61,-0.06 1.16,-0.12 1.64,-0.18 0.48,-0.06 1.02,-0.15 1.64,-0.24 0,-0.4 0,-0.81 0,-1.22 0,-0.42 0,-0.9 0,-1.44 0,-0.54 0.01,-1.17 0.03,-1.9 0.01,-0.72 0.02,-1.59 0.02,-2.61 0,-0.52 0.24,-0.97 0.72,-1.34 0.48,-0.37 0.98,-0.56 1.5,-0.56 0.15,0 0.35,0.03 0.58,0.09 0.23,0.06 0.47,0.17 0.7,0.3 0.23,0.14 0.43,0.33 0.62,0.56 0.19,0.23 0.29,0.5 0.33,0.81 0,1.45 0,2.72 0,3.83 0,1.11 0,2.11 0,3 0,0.89 0.01,1.71 0.02,2.47 0.01,0.75 0.02,1.48 0.02,2.2 0.03,1.44 0.06,2.88 0.07,4.32 0.01,1.43 0.02,2.87 0.02,4.32 -0.06,0.74 -0.31,1.29 -0.76,1.66 -0.45,0.37 -0.93,0.56 -1.46,0.56 -0.52,0 -1.01,-0.17 -1.46,-0.51 -0.45,-0.34 -0.7,-0.86 -0.76,-1.58 0,-1.5 0,-2.75 0,-3.74 0,-0.98 -0.01,-1.8 -0.02,-2.45 -0.02,-0.65 -0.03,-1.18 -0.03,-1.6 0,-0.41 0,-0.81 0,-1.18 -1.11,0.15 -2.18,0.29 -3.23,0.42 -1.04,0.12 -2.13,0.26 -3.23,0.42 -0.03,1.54 -0.04,3.02 -0.02,4.45 0.01,1.44 0.01,2.8 -0.02,4.09 0,0.28 -0.08,0.51 -0.26,0.7 -0.17,0.18 -0.38,0.33 -0.62,0.44 -0.24,0.1 -0.5,0.17 -0.77,0.2 -0.26,0.03 -0.48,0.05 -0.67,0.05 -0.52,0 -0.99,-0.15 -1.39,-0.46 -0.4,-0.31 -0.66,-0.77 -0.79,-1.39l0 -10.03c0,-1.63 0.01,-3.25 0.03,-4.87 0.01,-1.62 0.02,-3.25 0.02,-4.92l0 -0.05zm37.74 8.22c-0.49,1.02 -1.25,1.87 -2.26,2.56 -1.02,0.69 -2.14,1.27 -3.37,1.74 -1.23,0.46 -2.5,0.82 -3.81,1.09 -1.31,0.26 -2.5,0.47 -3.58,0.62 0.59,1.29 1.46,2.32 2.63,3.09 1.17,0.77 2.57,1.08 4.2,0.93 0.99,-0.15 1.93,-0.41 2.82,-0.77 0.89,-0.36 1.82,-0.79 2.77,-1.32 0.49,-0.22 0.95,-0.31 1.39,-0.27 0.42,0.03 0.8,0.13 1.13,0.3 0.33,0.17 0.57,0.4 0.74,0.69 0.17,0.29 0.26,0.59 0.26,0.91 0,0.74 -0.46,1.39 -1.39,1.94 -1.26,0.68 -2.69,1.28 -4.28,1.81 -1.58,0.52 -3.19,0.78 -4.82,0.78 -1.02,0 -1.99,-0.13 -2.93,-0.39 -0.94,-0.26 -1.81,-0.7 -2.61,-1.32 -1.69,-1.3 -2.97,-2.89 -3.81,-4.76 -0.84,-1.87 -1.27,-3.82 -1.27,-5.82 0,-1.11 0.13,-2.19 0.39,-3.26 0.26,-1.06 0.65,-2.06 1.18,-3 0.52,-0.94 1.18,-1.81 1.97,-2.61 0.79,-0.8 1.71,-1.48 2.79,-2.03 1.26,-0.59 2.71,-0.88 4.34,-0.88 1.45,0 2.81,0.24 4.07,0.72 1.26,0.48 2.28,1.16 3.07,2.03 0.79,0.88 1.25,1.92 1.39,3.14 0.14,1.22 -0.19,2.58 -0.99,4.09zm-13.49 -0.55c-0.13,0.46 -0.22,0.91 -0.28,1.34 -0.06,0.43 -0.08,0.86 -0.04,1.29 0.06,0 0.16,-0.01 0.3,-0.04 0.13,-0.04 0.24,-0.05 0.3,-0.05 0.83,-0.12 1.68,-0.24 2.54,-0.37 0.86,-0.12 1.69,-0.31 2.49,-0.55 0.8,-0.24 1.57,-0.59 2.29,-1.05 0.72,-0.45 1.36,-1.09 1.92,-1.92 0.52,-0.77 0.69,-1.44 0.51,-2.03 -0.19,-0.59 -0.55,-1.06 -1.09,-1.42 -0.54,-0.36 -1.18,-0.59 -1.92,-0.71 -0.74,-0.13 -1.4,-0.13 -1.99,0 -0.71,0.12 -1.34,0.38 -1.9,0.78 -0.56,0.4 -1.05,0.88 -1.48,1.41 -0.43,0.54 -0.79,1.1 -1.07,1.69 -0.28,0.58 -0.48,1.12 -0.6,1.62zm19.49 -8.18c0.12,-0.62 0.39,-1.08 0.81,-1.39 0.41,-0.31 0.86,-0.46 1.36,-0.46 0.47,0 0.92,0.15 1.37,0.44 0.45,0.29 0.76,0.72 0.95,1.27 -0.04,0.86 -0.06,1.74 -0.09,2.63 -0.04,0.89 -0.05,1.78 -0.05,2.68 0,1.08 0.03,2.17 0.09,3.27 0.06,1.11 0.19,2.2 0.37,3.28 0.19,1.08 0.43,2.13 0.74,3.16 0.31,1.03 0.71,2.01 1.21,2.93 0.37,0.34 0.61,0.5 0.74,0.49 0.12,-0.01 0.22,-0.02 0.28,-0.02 0.24,0.03 0.4,0.02 0.48,-0.03 0.08,-0.05 0.21,-0.13 0.4,-0.25 1.14,-2.1 1.92,-4.61 2.36,-7.53 0.43,-2.93 0.72,-6.25 0.88,-9.98 0.15,-0.52 0.43,-0.92 0.83,-1.18 0.4,-0.26 0.83,-0.39 1.3,-0.39 0.65,0 1.18,0.24 1.59,0.74 0.42,0.49 0.63,1.02 0.63,1.57 -0.04,0.89 -0.06,1.67 -0.07,2.33 -0.01,0.66 -0.02,1.3 -0.02,1.92 0,1.14 0.03,2.31 0.11,3.53 0.08,1.22 0.22,2.39 0.42,3.51 0.2,1.12 0.49,2.17 0.88,3.12 0.38,0.95 0.89,1.74 1.5,2.36l0.61 0.18 0.09 0c-0.03,0 0.08,-0.03 0.32,-0.09 0.74,-0.71 1.27,-1.6 1.6,-2.68 0.33,-1.08 0.58,-2.17 0.76,-3.27 0.34,-2.03 0.56,-4.06 0.67,-6.08 0.11,-2.01 0.19,-4.06 0.26,-6.13 0.12,-0.61 0.39,-1.07 0.81,-1.38 0.41,-0.31 0.89,-0.47 1.41,-0.47 0.43,0 0.87,0.15 1.32,0.44 0.45,0.29 0.76,0.72 0.95,1.28 -0.13,2.22 -0.24,4.4 -0.35,6.54 -0.1,2.14 -0.33,4.27 -0.67,6.4 -0.19,1.08 -0.44,2.17 -0.76,3.28 -0.33,1.11 -0.75,2.11 -1.28,3.02 -0.52,0.91 -1.19,1.65 -2.01,2.24 -0.81,0.59 -1.81,0.88 -2.98,0.88 -1.67,0 -3.02,-0.52 -4.06,-1.57 -0.46,-0.46 -0.83,-0.89 -1.11,-1.27 -0.28,-0.38 -0.52,-0.79 -0.74,-1.23l-0.14 -0.14 -0.05 -0.05c-0.24,0.52 -0.5,1 -0.76,1.41 -0.26,0.41 -0.56,0.79 -0.9,1.13 -0.71,0.65 -1.39,1.11 -2.03,1.39 -0.65,0.28 -1.41,0.42 -2.31,0.42 -0.89,0 -1.76,-0.19 -2.61,-0.56 -0.85,-0.37 -1.53,-0.97 -2.06,-1.8 -0.65,-1.05 -1.18,-2.17 -1.6,-3.37 -0.41,-1.21 -0.73,-2.45 -0.95,-3.72 -0.22,-1.28 -0.36,-2.56 -0.44,-3.86 -0.08,-1.29 -0.11,-2.59 -0.11,-3.88 0,-0.86 0.01,-1.71 0.02,-2.56 0.01,-0.84 0.04,-1.66 0.07,-2.47l0 -0.05zm32.33 0.51c0.13,-0.62 0.39,-1.08 0.79,-1.39 0.4,-0.31 0.86,-0.46 1.39,-0.46 0.46,0 0.91,0.15 1.34,0.44 0.43,0.29 0.74,0.72 0.93,1.27 0,0.71 -0.01,1.4 -0.03,2.08 -0.01,0.68 -0.02,1.36 -0.02,2.03l0 3.7c0.52,-0.06 1.04,-0.12 1.57,-0.17 0.52,-0.05 1.05,-0.1 1.57,-0.16 0.61,-0.06 1.16,-0.12 1.64,-0.18 0.48,-0.06 1.02,-0.15 1.64,-0.24 0,-0.4 0,-0.81 0,-1.22 0,-0.42 0,-0.9 0,-1.44 0,-0.54 0.01,-1.17 0.03,-1.9 0.01,-0.72 0.02,-1.59 0.02,-2.61 0,-0.52 0.24,-0.97 0.72,-1.34 0.48,-0.37 0.98,-0.56 1.5,-0.56 0.15,0 0.35,0.03 0.58,0.09 0.23,0.06 0.47,0.17 0.7,0.3 0.23,0.14 0.43,0.33 0.62,0.56 0.19,0.23 0.29,0.5 0.33,0.81 0,1.45 0,2.72 0,3.83 0,1.11 0,2.11 0,3 0,0.89 0.01,1.71 0.02,2.47 0.01,0.75 0.02,1.48 0.02,2.2 0.03,1.44 0.06,2.88 0.07,4.32 0.01,1.43 0.02,2.87 0.02,4.32 -0.06,0.74 -0.31,1.29 -0.76,1.66 -0.45,0.37 -0.93,0.56 -1.46,0.56 -0.52,0 -1.01,-0.17 -1.46,-0.51 -0.45,-0.34 -0.7,-0.86 -0.76,-1.58 0,-1.5 0,-2.75 0,-3.74 0,-0.98 -0.01,-1.8 -0.02,-2.45 -0.02,-0.65 -0.03,-1.18 -0.03,-1.6 0,-0.41 0,-0.81 0,-1.18 -1.11,0.15 -2.18,0.29 -3.23,0.42 -1.04,0.12 -2.13,0.26 -3.23,0.42 -0.03,1.54 -0.04,3.02 -0.02,4.45 0.01,1.44 0.01,2.8 -0.02,4.09 0,0.28 -0.08,0.51 -0.26,0.7 -0.17,0.18 -0.38,0.33 -0.62,0.44 -0.24,0.1 -0.5,0.17 -0.77,0.2 -0.26,0.03 -0.48,0.05 -0.67,0.05 -0.52,0 -0.99,-0.15 -1.39,-0.46 -0.4,-0.31 -0.66,-0.77 -0.79,-1.39l0 -10.03c0,-1.63 0.01,-3.25 0.03,-4.87 0.01,-1.62 0.02,-3.25 0.02,-4.92l0 -0.05zm37.74 8.22c-0.49,1.02 -1.25,1.87 -2.26,2.56 -1.02,0.69 -2.14,1.27 -3.37,1.74 -1.23,0.46 -2.5,0.82 -3.81,1.09 -1.31,0.26 -2.5,0.47 -3.58,0.62 0.59,1.29 1.46,2.32 2.63,3.09 1.17,0.77 2.57,1.08 4.2,0.93 0.99,-0.15 1.93,-0.41 2.82,-0.77 0.89,-0.36 1.82,-0.79 2.77,-1.32 0.49,-0.22 0.95,-0.31 1.39,-0.27 0.42,0.03 0.8,0.13 1.13,0.3 0.33,0.17 0.57,0.4 0.74,0.69 0.17,0.29 0.26,0.59 0.26,0.91 0,0.74 -0.46,1.39 -1.39,1.94 -1.26,0.68 -2.69,1.28 -4.28,1.81 -1.58,0.52 -3.19,0.78 -4.82,0.78 -1.02,0 -1.99,-0.13 -2.93,-0.39 -0.94,-0.26 -1.81,-0.7 -2.61,-1.32 -1.69,-1.3 -2.97,-2.89 -3.81,-4.76 -0.84,-1.87 -1.27,-3.82 -1.27,-5.82 0,-1.11 0.13,-2.19 0.39,-3.26 0.26,-1.06 0.65,-2.06 1.18,-3 0.52,-0.94 1.18,-1.81 1.97,-2.61 0.79,-0.8 1.71,-1.48 2.79,-2.03 1.26,-0.59 2.71,-0.88 4.34,-0.88 1.45,0 2.81,0.24 4.07,0.72 1.26,0.48 2.28,1.16 3.07,2.03 0.79,0.88 1.25,1.92 1.39,3.14 0.14,1.22 -0.19,2.58 -0.99,4.09zm-13.49 -0.55c-0.13,0.46 -0.22,0.91 -0.28,1.34 -0.06,0.43 -0.08,0.86 -0.04,1.29 0.06,0 0.16,-0.01 0.3,-0.04 0.13,-0.04 0.24,-0.05 0.3,-0.05 0.83,-0.12 1.68,-0.24 2.54,-0.37 0.86,-0.12 1.69,-0.31 2.49,-0.55 0.8,-0.24 1.57,-0.59 2.29,-1.05 0.72,-0.45 1.36,-1.09 1.92,-1.92 0.52,-0.77 0.69,-1.44 0.51,-2.03 -0.19,-0.59 -0.55,-1.06 -1.09,-1.42 -0.54,-0.36 -1.18,-0.59 -1.92,-0.71 -0.74,-0.13 -1.4,-0.13 -1.99,0 -0.71,0.12 -1.34,0.38 -1.9,0.78 -0.56,0.4 -1.05,0.88 -1.48,1.41 -0.43,0.54 -0.79,1.1 -1.07,1.69 -0.28,0.58 -0.48,1.12 -0.6,1.62zm20 -7.25c0.12,-0.62 0.39,-1.08 0.81,-1.39 0.41,-0.31 0.86,-0.47 1.36,-0.47 0.47,0 0.92,0.14 1.37,0.42 0.45,0.28 0.76,0.71 0.95,1.3 0,1.17 0,2.27 0,3.3 0,1.03 -0.01,2.06 -0.02,3.09 -0.02,1.03 -0.04,2.07 -0.05,3.12 -0.01,1.05 -0.02,2.15 -0.02,3.32l3.37 -4.76 6.42 -8.96c0.28,-0.24 0.57,-0.42 0.88,-0.51 0.31,-0.09 0.6,-0.14 0.88,-0.14 0.52,0 0.98,0.14 1.37,0.42 0.38,0.27 0.65,0.69 0.81,1.25l0 19.68c-0.06,0.77 -0.31,1.34 -0.74,1.71 -0.43,0.37 -0.93,0.56 -1.48,0.56 -0.49,0 -0.97,-0.17 -1.43,-0.53 -0.47,-0.36 -0.72,-0.89 -0.79,-1.6l0 -12.7 -0.32 0.37c-1.54,2.1 -3.08,4.22 -4.62,6.38 -1.54,2.15 -3.08,4.39 -4.62,6.7 -0.56,0.65 -1.22,0.97 -1.99,0.97 -0.56,0 -1.05,-0.17 -1.48,-0.53 -0.43,-0.36 -0.68,-0.86 -0.75,-1.51 0.04,-3.26 0.06,-6.5 0.07,-9.72 0.02,-3.22 0.03,-6.46 0.03,-9.73l0 -0.04zm16.13 -8.5c0,0.34 -0.08,0.61 -0.24,0.83l0 -0.04c-1.26,3.23 -3.85,4.85 -7.76,4.85 -2.07,0 -3.81,-0.59 -5.23,-1.76 -1.54,-1.45 -2.31,-2.82 -2.31,-4.11 0,-0.47 0.21,-0.86 0.62,-1.21 0.42,-0.34 0.89,-0.51 1.41,-0.51 0.8,0 1.39,0.36 1.76,1.07 1.05,2.06 2.36,3.09 3.92,3.09 1.08,-0.06 1.92,-0.32 2.52,-0.79 0.61,-0.46 1.12,-1.15 1.55,-2.08 0.34,-0.68 0.91,-1.02 1.71,-1.02 0.55,0 1.03,0.16 1.43,0.49 0.4,0.32 0.61,0.71 0.61,1.18zm20.22 7.25c0.12,-0.62 0.39,-1.08 0.81,-1.39 0.41,-0.31 0.89,-0.47 1.41,-0.47 0.43,0 0.87,0.15 1.32,0.44 0.45,0.29 0.76,0.73 0.95,1.32l0 0.47c0.61,-0.37 1.31,-0.65 2.1,-0.84 0.79,-0.18 1.58,-0.27 2.38,-0.27 1.17,0 2.32,0.21 3.44,0.62 1.12,0.42 2.06,1.02 2.79,1.83 1.08,1.23 1.85,2.63 2.33,4.18 0.47,1.55 0.75,3.1 0.81,4.64 0.03,0.9 -0.04,1.81 -0.19,2.75 -0.15,0.94 -0.39,1.86 -0.72,2.77 -0.32,0.91 -0.75,1.77 -1.29,2.59 -0.54,0.81 -1.19,1.52 -1.97,2.1 -0.71,0.52 -1.46,0.91 -2.24,1.14 -0.79,0.23 -1.58,0.35 -2.38,0.35 -1.91,0 -3.59,-0.49 -5.04,-1.48l0 9.75c-0.06,0.74 -0.31,1.3 -0.76,1.66 -0.45,0.37 -0.95,0.56 -1.51,0.56 -0.49,0 -0.97,-0.17 -1.43,-0.51 -0.47,-0.34 -0.72,-0.86 -0.79,-1.57 0,-5.11 0,-10.19 0,-15.25 0,-5.05 -0.01,-10.16 -0.04,-15.34l0 -0.04zm6.24 4.34c-0.4,0.34 -0.71,0.76 -0.93,1.27 -0.22,0.51 -0.38,1.05 -0.49,1.62 -0.1,0.57 -0.17,1.16 -0.2,1.78 -0.03,0.62 -0.06,1.21 -0.1,1.76 0,0.8 0.07,1.71 0.21,2.7 0.14,1 0.49,1.9 1.04,2.7 0.43,0.62 1,1.12 1.69,1.51 0.69,0.38 1.39,0.57 2.1,0.57 0.83,0 1.53,-0.27 2.08,-0.81 0.56,-0.54 1,-1.2 1.34,-1.99 0.34,-0.79 0.58,-1.61 0.71,-2.47 0.14,-0.86 0.21,-1.64 0.21,-2.31 0,-0.65 -0.06,-1.35 -0.18,-2.13 -0.13,-0.77 -0.33,-1.51 -0.61,-2.22 -0.27,-0.71 -0.64,-1.34 -1.11,-1.87 -0.46,-0.54 -1.03,-0.91 -1.71,-1.13 -0.65,-0.12 -1.34,-0.11 -2.1,0.02 -0.75,0.14 -1.41,0.47 -1.96,1zm33.3 4.71c-0.49,1.02 -1.25,1.87 -2.26,2.56 -1.02,0.69 -2.14,1.27 -3.37,1.74 -1.23,0.46 -2.5,0.82 -3.81,1.09 -1.31,0.26 -2.5,0.47 -3.58,0.62 0.59,1.29 1.46,2.32 2.63,3.09 1.17,0.77 2.57,1.08 4.2,0.93 0.99,-0.15 1.93,-0.41 2.82,-0.77 0.89,-0.36 1.82,-0.79 2.77,-1.32 0.49,-0.22 0.95,-0.31 1.39,-0.27 0.42,0.03 0.8,0.13 1.13,0.3 0.33,0.17 0.57,0.4 0.74,0.69 0.17,0.29 0.26,0.59 0.26,0.91 0,0.74 -0.46,1.39 -1.39,1.94 -1.26,0.68 -2.69,1.28 -4.28,1.81 -1.58,0.52 -3.19,0.78 -4.82,0.78 -1.02,0 -1.99,-0.13 -2.93,-0.39 -0.94,-0.26 -1.81,-0.7 -2.61,-1.32 -1.69,-1.3 -2.97,-2.89 -3.81,-4.76 -0.84,-1.87 -1.27,-3.82 -1.27,-5.82 0,-1.11 0.13,-2.19 0.39,-3.26 0.26,-1.06 0.65,-2.06 1.18,-3 0.52,-0.94 1.18,-1.81 1.97,-2.61 0.79,-0.8 1.71,-1.48 2.79,-2.03 1.26,-0.59 2.71,-0.88 4.34,-0.88 1.45,0 2.81,0.24 4.07,0.72 1.26,0.48 2.28,1.16 3.07,2.03 0.79,0.88 1.25,1.92 1.39,3.14 0.14,1.22 -0.19,2.58 -0.99,4.09zm-13.49 -0.55c-0.13,0.46 -0.22,0.91 -0.28,1.34 -0.06,0.43 -0.08,0.86 -0.04,1.29 0.06,0 0.16,-0.01 0.3,-0.04 0.13,-0.04 0.24,-0.05 0.3,-0.05 0.83,-0.12 1.68,-0.24 2.54,-0.37 0.86,-0.12 1.69,-0.31 2.49,-0.55 0.8,-0.24 1.57,-0.59 2.29,-1.05 0.72,-0.45 1.36,-1.09 1.92,-1.92 0.52,-0.77 0.69,-1.44 0.51,-2.03 -0.19,-0.59 -0.55,-1.06 -1.09,-1.42 -0.54,-0.36 -1.18,-0.59 -1.92,-0.71 -0.74,-0.13 -1.4,-0.13 -1.99,0 -0.71,0.12 -1.34,0.38 -1.9,0.78 -0.56,0.4 -1.05,0.88 -1.48,1.41 -0.43,0.54 -0.79,1.1 -1.07,1.69 -0.28,0.58 -0.48,1.12 -0.6,1.62zm28.54 3.88c-1.02,-0.03 -1.8,-0.05 -2.36,-0.06 -0.55,-0.02 -0.96,-0.03 -1.23,-0.03 -0.26,0 -0.41,0 -0.46,0 -0.05,0 -0.07,0 -0.07,0l0 8.18c-0.06,0.74 -0.31,1.29 -0.76,1.66 -0.45,0.37 -0.93,0.56 -1.46,0.56 -0.52,0 -1.02,-0.17 -1.48,-0.51 -0.47,-0.34 -0.72,-0.86 -0.79,-1.57l0 -20.15c0.13,-0.62 0.4,-1.08 0.81,-1.39 0.42,-0.31 0.89,-0.46 1.41,-0.46 0.43,0 0.87,0.15 1.32,0.44 0.45,0.29 0.76,0.72 0.95,1.27l0 7.76 3.05 0c0.65,-0.43 1.24,-0.91 1.78,-1.44 0.54,-0.52 1.08,-1.12 1.62,-1.78 0.54,-0.66 1.09,-1.42 1.66,-2.29 0.56,-0.86 1.22,-1.87 1.97,-3 0.68,-0.52 1.3,-0.79 1.89,-0.79 0.71,0 1.28,0.28 1.71,0.84 0.43,0.55 0.47,1.25 0.14,2.08 -0.68,0.98 -1.28,1.87 -1.81,2.65 -0.52,0.79 -1.02,1.5 -1.5,2.15 -0.48,0.65 -0.95,1.25 -1.44,1.78 -0.48,0.54 -1,1.05 -1.55,1.55l1.11 1.11c1.23,1.17 2.38,2.5 3.46,3.99 1.08,1.5 2.02,3.03 2.82,4.6 0.24,0.8 0.15,1.46 -0.3,1.97 -0.45,0.51 -1.01,0.76 -1.69,0.76 -0.34,0 -0.68,-0.07 -1.02,-0.21 -0.34,-0.13 -0.66,-0.37 -0.98,-0.71 -0.24,-0.52 -0.63,-1.21 -1.15,-2.03 -0.52,-0.83 -1.11,-1.69 -1.76,-2.56 -0.65,-0.88 -1.32,-1.71 -2.01,-2.5 -0.69,-0.79 -1.33,-1.41 -1.92,-1.87zm13.3 3.47c-0.22,-0.4 -0.31,-0.79 -0.27,-1.16 0.03,-0.37 0.13,-0.7 0.32,-0.97 0.19,-0.28 0.43,-0.5 0.74,-0.67 0.31,-0.17 0.63,-0.26 0.97,-0.26 0.37,0 0.75,0.09 1.12,0.28 0.37,0.19 0.72,0.49 1.06,0.93l0.05 0.04c0.12,0.22 0.3,0.55 0.53,1 0.23,0.45 0.49,0.89 0.76,1.34 0.28,0.45 0.57,0.84 0.86,1.2 0.29,0.36 0.53,0.55 0.72,0.58 0.31,-0.43 0.55,-1.02 0.74,-1.78 0.19,-0.75 0.32,-1.42 0.41,-2.01 0,-0.06 0.01,-0.12 0.03,-0.17 0.01,-0.05 0.02,-0.1 0.02,-0.16 0.15,-1.11 0.26,-2.22 0.32,-3.32 0.06,-1.11 0.1,-2.2 0.1,-3.28 0,-0.93 -0.01,-1.84 -0.05,-2.75 -0.04,-0.91 -0.06,-1.81 -0.09,-2.7 0.09,-0.49 0.26,-0.88 0.51,-1.16 0.24,-0.28 0.63,-0.51 1.16,-0.69 0.89,-0.13 1.81,-0.2 2.77,-0.24 0.95,-0.03 1.88,-0.07 2.77,-0.13 0.89,-0.06 1.78,-0.12 2.68,-0.17 0.89,-0.05 1.78,-0.15 2.68,-0.3 0.74,-0.03 1.31,0.09 1.71,0.35 0.4,0.26 0.71,0.7 0.93,1.32l0 9.38c0,1.54 0.01,3.07 0.02,4.59 0.02,1.53 0.03,3.08 0.03,4.65 -0.06,0.74 -0.32,1.29 -0.77,1.66 -0.45,0.37 -0.93,0.56 -1.46,0.56 -0.52,0 -1,-0.17 -1.45,-0.51 -0.45,-0.34 -0.7,-0.86 -0.77,-1.57l0 -8.22c0,-1.39 -0.01,-2.74 -0.02,-4.05 -0.01,-1.3 -0.02,-2.66 -0.02,-4.04l-6.29 0.56c0,0.22 0.01,0.44 0.02,0.67 0.02,0.23 0.03,0.44 0.03,0.62 0,0.52 0.01,1.07 0.02,1.62 0.01,0.55 0.02,1.11 0.02,1.66 0,1.85 -0.1,3.71 -0.32,5.59 -0.22,1.88 -0.68,3.61 -1.39,5.18 -0.49,0.98 -1.09,1.7 -1.8,2.15 -0.7,0.45 -1.48,0.67 -2.31,0.67 -0.83,0 -1.65,-0.21 -2.45,-0.62 -0.8,-0.42 -1.54,-1.01 -2.22,-1.78 -0.37,-0.47 -0.7,-0.95 -1.02,-1.46 -0.31,-0.51 -0.61,-1.02 -0.92,-1.55l-0.47 -0.88zm36.63 -9.38c0.09,-0.04 0.35,-0.13 0.77,-0.28 0.41,-0.15 0.85,-0.31 1.32,-0.46 0.46,-0.15 0.88,-0.31 1.25,-0.47 0.37,-0.15 0.56,-0.24 0.6,-0.27 -0.15,-0.93 -0.4,-1.66 -0.74,-2.22 -0.37,-0.42 -0.85,-0.64 -1.44,-0.64 -0.62,0 -1.26,0.14 -1.94,0.41 -0.68,0.28 -1.21,0.57 -1.57,0.88 -0.34,0.22 -0.69,0.49 -1.06,0.81 -0.37,0.33 -0.82,0.72 -1.34,1.18 -0.31,0.19 -0.59,0.31 -0.85,0.37 -0.26,0.06 -0.52,0.1 -0.77,0.1 -0.61,0 -1.12,-0.17 -1.5,-0.51 -0.38,-0.34 -0.58,-0.79 -0.58,-1.34 0,-0.46 0.13,-0.89 0.37,-1.29 0.62,-0.55 1.25,-1.1 1.92,-1.65 0.66,-0.54 1.37,-1.02 2.1,-1.45 0.52,-0.34 1.09,-0.63 1.71,-0.88 0.62,-0.24 1.23,-0.42 1.85,-0.51 0.43,-0.06 0.91,-0.1 1.41,-0.1 0.51,0 0.96,0.03 1.36,0.1 1.72,0.34 3,1.07 3.81,2.19 0.82,1.12 1.35,2.45 1.6,3.99 0.15,0.98 0.24,1.99 0.25,3.02 0.02,1.03 0.03,2.06 0.03,3.07l0 0.98c0,0.68 0.01,1.29 0.02,1.85 0.01,0.55 0.09,1.07 0.23,1.57 0.14,0.49 0.36,0.96 0.67,1.41 0.31,0.45 0.76,0.92 1.34,1.41 0.4,0.49 0.6,1 0.6,1.52 0,0.77 -0.35,1.32 -1.04,1.66 -0.7,0.34 -1.52,0.29 -2.47,-0.14 -0.65,-0.52 -1.18,-1.02 -1.6,-1.48 -0.41,-0.46 -0.76,-0.94 -1.04,-1.44 -1.23,1.36 -2.64,2.52 -4.23,3.47 -1.58,0.95 -3.21,1.43 -4.87,1.43 -0.89,0 -1.73,-0.31 -2.52,-0.92 -0.79,-0.62 -1.43,-1.36 -1.92,-2.22 -0.77,-1.39 -1.15,-2.86 -1.15,-4.41 0,-1.55 0.54,-3.02 1.62,-4.41 0.98,-1.11 2.18,-1.98 3.58,-2.61 1.4,-0.63 2.81,-1.21 4.22,-1.73zm4.07 4.25c0,-0.28 0.01,-0.49 0.02,-0.65 0.01,-0.15 0.02,-0.4 0.02,-0.74 -0.4,0.15 -0.8,0.3 -1.2,0.44 -0.4,0.14 -0.8,0.29 -1.21,0.44 -0.49,0.19 -1.13,0.42 -1.92,0.69 -0.79,0.28 -1.55,0.63 -2.29,1.07 -0.74,0.43 -1.36,0.93 -1.87,1.5 -0.51,0.57 -0.73,1.23 -0.67,1.97 0.06,0.55 0.19,1.12 0.41,1.69 0.22,0.57 0.75,1.07 1.57,1.5 0.27,0.06 0.72,-0.13 1.36,-0.56 0.63,-0.43 1.32,-0.97 2.06,-1.62 0.74,-0.65 1.46,-1.34 2.15,-2.08 0.7,-0.75 1.21,-1.41 1.55,-1.99l0 -1.66z"/>
   <path class="fil4" d="M351.8 361.01c-0.19,0.55 -0.48,0.96 -0.88,1.22 -0.4,0.26 -0.83,0.4 -1.3,0.4 -0.49,0 -0.96,-0.17 -1.41,-0.51 -0.45,-0.34 -0.7,-0.86 -0.76,-1.58 0.15,-1.63 0.26,-3.25 0.34,-4.87 0.08,-1.62 0.15,-3.24 0.21,-4.87 0.06,-1.51 0.13,-3.01 0.19,-4.51 0.06,-1.49 0.15,-2.99 0.27,-4.5 0.13,-0.59 0.39,-1.03 0.79,-1.34 0.4,-0.31 0.86,-0.46 1.39,-0.46 0.8,0 1.46,0.36 1.99,1.07 0.93,1.57 1.83,3.14 2.72,4.71 0.9,1.57 1.78,3.14 2.63,4.71 0.43,0.77 0.8,1.46 1.11,2.06 0.31,0.6 0.68,1.28 1.11,2.06l4.67 -8.08c0.15,-0.28 0.33,-0.59 0.53,-0.95 0.2,-0.36 0.38,-0.66 0.54,-0.9 0.33,-0.59 0.66,-1.16 0.99,-1.74 0.33,-0.57 0.77,-1.25 1.32,-2.06 0.28,-0.24 0.58,-0.42 0.9,-0.53 0.33,-0.1 0.61,-0.16 0.86,-0.16 0.52,0 0.98,0.15 1.37,0.44 0.38,0.29 0.66,0.72 0.85,1.27 0.13,1.54 0.22,3.16 0.28,4.85l0 1.62c0.04,0.71 0.06,1.43 0.07,2.15 0.01,0.72 0.05,1.46 0.11,2.19 0.06,1.3 0.13,2.56 0.19,3.81 0.06,1.25 0.09,2.52 0.09,3.81 -0.06,0.74 -0.31,1.3 -0.74,1.67 -0.43,0.37 -0.93,0.56 -1.48,0.56 -0.49,0 -0.97,-0.17 -1.43,-0.51 -0.47,-0.34 -0.72,-0.86 -0.79,-1.57 0,-1.51 -0.04,-3.02 -0.12,-4.53 -0.08,-1.51 -0.15,-3.01 -0.21,-4.52l-0.09 -1.85 -1.57 2.91c-0.62,1.11 -1.28,2.28 -1.99,3.51 -0.71,1.23 -1.6,2.65 -2.68,4.25 -0.4,0.43 -0.97,0.65 -1.71,0.65 -0.34,0 -0.66,-0.06 -0.95,-0.19 -0.29,-0.12 -0.61,-0.35 -0.95,-0.69l-2.59 -4.71c-0.31,-0.56 -0.6,-1.07 -0.86,-1.53 -0.26,-0.47 -0.51,-0.91 -0.74,-1.34 -0.23,-0.43 -0.48,-0.88 -0.74,-1.34 -0.26,-0.46 -0.54,-0.98 -0.86,-1.57 0,0.24 -0.01,0.49 -0.02,0.72 -0.01,0.23 -0.02,0.47 -0.02,0.71 -0.06,1.69 -0.15,3.37 -0.24,5.04 -0.09,1.67 -0.21,3.32 -0.37,4.99l-0.04 0.05zm36.49 -0.42c-0.55,0.52 -1.18,0.92 -1.87,1.18 -0.69,0.26 -1.39,0.4 -2.1,0.4 -1.05,0 -2.03,-0.28 -2.96,-0.84 -0.15,0.49 -0.43,0.84 -0.81,1.04 -0.38,0.2 -0.79,0.3 -1.22,0.3 -0.52,0 -1.01,-0.17 -1.46,-0.5 -0.45,-0.34 -0.7,-0.86 -0.77,-1.57 0.04,-3.39 0.05,-6.76 0.05,-10.12 0,-3.35 0,-6.74 0,-10.16 0.13,-0.62 0.39,-1.08 0.79,-1.39 0.4,-0.31 0.86,-0.47 1.39,-0.47 0.43,0 0.87,0.15 1.32,0.44 0.45,0.29 0.76,0.72 0.95,1.28l0 6.14c0.86,-0.46 1.77,-0.69 2.72,-0.69 0.77,0 1.51,0.14 2.22,0.42 0.7,0.27 1.32,0.72 1.85,1.34 0.83,0.83 1.44,1.82 1.83,2.95 0.38,1.14 0.59,2.25 0.63,3.33 0,1.17 -0.2,2.38 -0.58,3.64 -0.38,1.26 -1.04,2.36 -1.97,3.28zm9.47 -0.37c-0.06,0.74 -0.31,1.3 -0.76,1.67 -0.45,0.37 -0.93,0.55 -1.46,0.55 -0.52,0 -1.02,-0.17 -1.48,-0.51 -0.47,-0.34 -0.72,-0.86 -0.79,-1.57 0.04,-3.32 0.05,-6.63 0.05,-9.91 0,-3.28 0,-6.58 0,-9.91 0.12,-0.62 0.39,-1.08 0.81,-1.39 0.41,-0.31 0.89,-0.46 1.41,-0.46 0.43,0 0.87,0.15 1.32,0.44 0.45,0.29 0.76,0.72 0.95,1.27 0,3.32 0,6.63 0,9.91 0,3.28 -0.01,6.58 -0.05,9.91zm-13.54 -10.63c-0.4,0.09 -0.75,0.36 -1.04,0.81 -0.29,0.45 -0.52,0.98 -0.67,1.62 -0.15,0.63 -0.24,1.31 -0.25,2.03 -0.02,0.72 0.04,1.39 0.18,1.99 0.14,0.6 0.36,1.1 0.65,1.51 0.29,0.4 0.68,0.6 1.18,0.6 0.4,0 0.74,-0.16 1.02,-0.49 0.28,-0.33 0.5,-0.72 0.67,-1.18 0.17,-0.46 0.29,-0.93 0.35,-1.43 0.06,-0.49 0.09,-0.91 0.09,-1.25 0,-0.31 -0.04,-0.7 -0.12,-1.16 -0.08,-0.47 -0.19,-0.91 -0.34,-1.34 -0.15,-0.43 -0.38,-0.81 -0.67,-1.14 -0.29,-0.33 -0.64,-0.52 -1.05,-0.58z"/>
  </g>
 </g>
</svg>
