<?xml version="1.0" encoding="UTF-8"?>
<!DOCTYPE svg PUBLIC "-//W3C//DTD SVG 1.1//EN" "http://www.w3.org/Graphics/SVG/1.1/DTD/svg11.dtd">
<!-- Creator: CorelDRAW (Evaluation Version) -->
<svg xmlns="http://www.w3.org/2000/svg" xml:space="preserve" width="55.7139mm" height="46.6713mm" version="1.1" style="shape-rendering:geometricPrecision; text-rendering:geometricPrecision; image-rendering:optimizeQuality; fill-rule:evenodd; clip-rule:evenodd"
viewBox="0 0 595.33 498.71"
 xmlns:xlink="http://www.w3.org/1999/xlink"
 xmlns:xodm="http://www.corel.com/coreldraw/odm/2003">
 <defs>
  <style type="text/css">
   <![CDATA[
    .str2 {stroke:#2B2B2A;stroke-width:1.13;stroke-miterlimit:22.9256}
    .str3 {stroke:#2B2B2A;stroke-width:1.13;stroke-miterlimit:22.9256}
    .str1 {stroke:#2B2B2A;stroke-width:1.88;stroke-miterlimit:22.9256}
    .str0 {stroke:#2B2B2A;stroke-width:1.88;stroke-linejoin:bevel;stroke-miterlimit:22.9256}
    .fil1 {fill:#2B2B2A}
    .fil0 {fill:#FFEE00}
    .fil2 {fill:#1F1C21}
    .fil4 {fill:#2B2B2A;fill-rule:nonzero}
    .fil3 {fill:#FFEE00;fill-rule:nonzero}
   ]]>
  </style>
 </defs>
 <g id="Layer_x0020_1">
  <metadata id="CorelCorpID_0Corel-Layer"/>
  <g id="_105553917570336">
   <g>
    <polygon class="fil0 str0" points="417.12,196.04 465.16,236.59 465.6,300.48 417.56,259.94 "/>
    <polygon class="fil0 str0" points="417.56,259.94 465.6,300.48 397.73,330.42 349.69,289.88 "/>
   </g>
   <polygon class="fil0 str1" points="417.12,196.04 417.56,259.94 349.69,289.88 350.35,226.71 "/>
   <path class="fil0" d="M72.95 205.99l-6.43 2.14c-3.22,1.07 -6.34,2.41 -9.31,4.05 -2.12,1.17 -3.86,2.91 -5.29,4.84 -1.56,2.12 -2.25,4.66 -2.45,7.26l0 114.53 -49.47 0 0 -279.02c0,-5.04 0.93,-10.23 1.89,-15.17 1.52,-7.79 5.54,-14.71 10.64,-20.71 6.53,-7.68 15.72,-13.06 24.9,-16.97 13.35,-5.69 29.83,-6.94 44.23,-6.94 14.4,0 30.88,1.24 44.23,6.94 9.18,3.91 18.37,9.29 24.9,16.97 5.1,5.99 9.12,12.92 10.64,20.71 0.96,4.94 1.89,10.13 1.89,15.17l0 74.57c0,10.84 -3.05,20.95 -8.64,30.21 -5.68,9.42 -14.54,16.01 -24.31,20.69l53.61 153.55 -52.39 0 -38.66 -110.99c-3,-9.17 -7.31,-24.12 -19.99,-21.83zm-23.48 -41.81c0.76,-0.28 1.53,-0.56 2.29,-0.84 4.28,-1.58 8.58,-3.08 12.91,-4.53 4.43,-1.48 8.85,-3.02 13.23,-4.63 4.05,-1.49 8.12,-2.93 12.22,-4.3 1.78,-0.6 3.57,-1.19 5.35,-1.79 1.57,-0.52 3.13,-1.08 4.79,-1.74 4.12,-1.48 9.29,-4.02 11.25,-8.19 1.4,-2.98 2.8,-6.73 2.8,-10.06l0 -61.62c0,-2.4 -0.46,-4.82 -1.12,-7.13 -0.68,-2.39 -2.22,-4.42 -4,-6.11 -2.71,-2.57 -6.46,-4.4 -9.93,-5.72 -5.54,-2.12 -12.59,-2.52 -18.48,-2.52 -5.57,0 -12.09,0.44 -17.31,2.5 -3.33,1.31 -6.8,3.17 -9.22,5.86 -1.7,1.89 -3.22,4.14 -3.81,6.63 -0.57,2.4 -0.96,4.9 -0.96,7.37l0 96.8z"/>
   <path class="fil1" d="M71.98 202.26l-6.68 2.23c-3.44,1.15 -6.77,2.58 -9.95,4.32 -2.62,1.44 -4.76,3.54 -6.52,5.93 -2.05,2.78 -2.96,6.05 -3.2,9.39l0 110.83 -41.79 0 0 -275.18c0,-4.66 0.93,-9.87 1.82,-14.43 1.39,-7.13 5.13,-13.47 9.8,-18.96 6.12,-7.19 14.89,-12.26 23.48,-15.93 12.77,-5.45 28.99,-6.63 42.72,-6.63 13.74,0 29.95,1.18 42.72,6.63 8.59,3.66 17.37,8.73 23.48,15.93 4.66,5.48 8.41,11.83 9.8,18.96 0.89,4.56 1.82,9.78 1.82,14.43l0 74.57c0,10.15 -2.86,19.56 -8.09,28.23 -5.88,9.75 -15.52,16.22 -25.8,20.63l52.98 151.76 -44.25 0 -37.74 -108.35c-2.34,-7.16 -7.62,-27.68 -24.6,-24.36zm-26.35 -32.64c2.5,-0.87 4.98,-1.77 7.46,-2.69 4.23,-1.57 8.5,-3.06 12.79,-4.49 4.47,-1.49 8.92,-3.05 13.34,-4.67 4.02,-1.47 8.05,-2.91 12.11,-4.26 1.79,-0.6 3.57,-1.19 5.36,-1.79 1.62,-0.54 3.22,-1.11 4.87,-1.77 5.19,-1.87 10.97,-4.94 13.42,-10.17 1.65,-3.53 3.17,-7.74 3.17,-11.69l0 -61.62c0,-2.76 -0.51,-5.53 -1.27,-8.18 -0.88,-3.07 -2.75,-5.66 -5.05,-7.84 -3.1,-2.94 -7.24,-5.01 -11.2,-6.52 -5.99,-2.29 -13.5,-2.77 -19.85,-2.77 -6.06,0 -13.03,0.53 -18.72,2.77 -3.91,1.54 -7.82,3.71 -10.66,6.87 -2.14,2.38 -3.94,5.16 -4.69,8.31 -0.64,2.69 -1.07,5.49 -1.07,8.26l0 102.25z"/>
   <g>
    <polygon class="fil2" points="545.75,272.83 524.54,331.52 496.17,331.52 522.45,258.45 496.17,185.39 524.54,185.39 545.75,244.07 566.96,185.39 595.33,185.39 569.05,258.45 595.33,331.52 566.96,331.52 "/>
   </g>
   <polygon class="fil3" points="545.75,266.54 545.86,266.5 545.64,266.5 545.75,266.54 568.46,329.38 592.29,329.38 566.78,258.45 566.06,258.18 566.06,258.73 566.78,258.45 592.29,187.53 568.46,187.53 545.75,250.36 523.04,187.53 499.21,187.53 524.72,258.45 525.67,258.82 525.67,258.09 524.72,258.45 499.21,329.38 523.04,329.38 "/>
   <g>
    <path class="fil2 str2" d="M236.76 183.11c18.2,-10.65 35.32,-12.08 54.41,-1.98 6.91,3.84 13.25,8.96 17.49,15.71 4.19,6.65 6.18,13.98 6.18,21.84l0 77.07c0,5.16 -0.97,10.17 -3.02,14.91 -2.13,4.93 -5.52,8.98 -9.72,12.29 -4.9,3.85 -10.75,6.43 -16.69,8.2 -7.68,2.28 -16.06,2.97 -24.04,2.97 -13.36,0 -29.73,-1.88 -40.31,-10.89 -8.37,-7.13 -12.95,-16.13 -13.17,-27.17l0 -190.03 28.34 0 0 46.06 0.53 31.03zm50.05 44.04l-0.34 0 0.04 -1.1c0.96,-30.31 -52.45,-30.78 -50.27,0.03l0 65.14c0,2.05 0.47,4.09 1.17,6.01 0.81,2.23 2.18,4.13 3.89,5.76 2.11,2 4.89,3.32 7.62,4.23 3.9,1.3 8.37,1.64 12.46,1.64 6.3,0 15.1,-0.8 19.73,-5.68 3.56,-3.75 5.52,-8.15 5.72,-13.3l0 -62.73z"/>
   </g>
   <path class="fil3 str3" d="M287.88 226.08l-0.31 0c1.02,-31.86 -54.69,-32.24 -52.4,0l0 65.35 0 -0.31c0,2.05 0.41,4.21 1.23,6.47 0.82,2.26 2.21,4.31 4.16,6.17 1.95,1.85 4.62,3.34 8.01,4.47 3.39,1.13 7.66,1.7 12.79,1.7 9.86,0 16.7,-2 20.5,-6.01 3.8,-4.01 5.8,-8.68 6.01,-14.02l0 -63.81zm25.9 62.27l0 7.4c0,5.14 -0.98,9.97 -2.93,14.49 -1.95,4.52 -5.09,8.48 -9.4,11.87 -4.31,3.39 -9.76,6.06 -16.34,8.02 -6.58,1.95 -14.49,2.93 -23.74,2.93 -18.08,0 -31.29,-3.55 -39.61,-10.64 -8.32,-7.09 -12.59,-15.88 -12.79,-26.36l0 -188.97 26.2 0 0 39.46 0 5.55 0.56 32.88c19.72,-12.08 36.76,-12.52 54.93,-2.91 7.06,3.92 13.1,8.97 17.11,15.34 4.01,6.37 6.01,13.46 6.01,21.27l0 7.4 0 62.27z"/>
  </g>
  <g id="_105553959566176">
   <path class="fil4" d="M134.98 419.53c-1.07,-0.08 -1.86,-0.4 -2.35,-0.96 -0.49,-0.55 -0.74,-1.14 -0.74,-1.76 0,-0.33 0.1,-0.72 0.31,-1.18l-0.07 0.13 0 -25.98c-0.12,0.05 -0.21,0.06 -0.28,0.04 -0.07,-0.03 -0.15,-0.04 -0.27,-0.04 -0.87,0 -1.58,-0.23 -2.11,-0.71 -0.53,-0.48 -0.8,-1.06 -0.8,-1.76 0,-0.9 0.5,-1.77 1.51,-2.59 1.02,-0.83 2.24,-1.54 3.69,-2.14 1.45,-0.6 2.94,-1.07 4.49,-1.43 1.54,-0.35 2.86,-0.52 3.93,-0.52 1.93,0 3.68,0.31 5.22,0.92 1.54,0.63 2.86,1.43 3.96,2.42 1.09,0.99 1.93,2.08 2.51,3.27 0.57,1.2 0.86,2.36 0.86,3.47 0,1.45 -0.41,2.89 -1.23,4.36 -0.83,1.46 -1.9,2.73 -3.22,3.81 1.98,1.07 3.45,2.39 4.42,3.96 0.97,1.57 1.46,3.2 1.46,4.89 0,1.11 -0.21,2.23 -0.65,3.34 -0.43,1.11 -1.03,2.15 -1.79,3.09 -0.77,0.95 -1.66,1.8 -2.69,2.54 -1.04,0.75 -2.13,1.33 -3.28,1.74 -1.45,0.46 -2.98,0.77 -4.61,0.92 -1.63,0.17 -3.25,0.25 -4.85,0.25 -0.58,0 -1.14,0 -1.67,0 -0.53,0 -1.09,-0.02 -1.67,-0.07l-0.07 0zm13.12 -15.4c-0.91,-0.57 -1.88,-1.02 -2.91,-1.33 -1.04,-0.31 -2.13,-0.53 -3.27,-0.65 -0.58,0.08 -1.18,0.15 -1.79,0.21 -0.63,0.07 -1.26,0.09 -1.92,0.09l0 11.69c0.91,0 2.04,-0.05 3.4,-0.15 1.35,-0.1 2.67,-0.36 3.93,-0.77 1.26,-0.41 2.34,-1.02 3.25,-1.83 0.91,-0.8 1.36,-1.9 1.36,-3.3 0,-0.83 -0.17,-1.58 -0.49,-2.26 -0.34,-0.68 -0.85,-1.25 -1.55,-1.71zm-9.9 -7.6c0.58,0 1.14,0.01 1.67,0.03 0.53,0.02 1.09,0.05 1.67,0.09 0.53,-0.05 1.21,-0.2 2.04,-0.47 0.82,-0.27 1.61,-0.63 2.38,-1.08 0.77,-0.46 1.42,-1.01 1.95,-1.67 0.53,-0.66 0.8,-1.42 0.8,-2.29 0,-0.87 -0.21,-1.6 -0.62,-2.23 -0.42,-0.62 -0.95,-1.12 -1.61,-1.51 -0.66,-0.39 -1.38,-0.69 -2.16,-0.9 -0.78,-0.21 -1.57,-0.31 -2.35,-0.31 -1.32,0 -2.58,0.21 -3.77,0.62l0 9.71zm23.68 -5.32c0.17,-0.83 0.53,-1.45 1.08,-1.86 0.56,-0.42 1.17,-0.63 1.83,-0.63 0.62,0 1.22,0.19 1.82,0.56 0.61,0.37 1.03,0.95 1.27,1.74 0,1.57 0,3.04 0,4.42 0,1.38 -0.01,2.76 -0.03,4.14 -0.02,1.38 -0.04,2.77 -0.07,4.18 -0.02,1.4 -0.03,2.88 -0.03,4.45l4.51 -6.37 8.6 -12c0.36,-0.33 0.76,-0.56 1.18,-0.68 0.41,-0.12 0.8,-0.19 1.18,-0.19 0.7,0 1.31,0.19 1.82,0.56 0.51,0.36 0.88,0.92 1.08,1.67l0 26.35c-0.08,1.04 -0.41,1.79 -0.99,2.29 -0.58,0.49 -1.24,0.75 -1.98,0.75 -0.66,0 -1.3,-0.23 -1.92,-0.71 -0.62,-0.48 -0.96,-1.19 -1.04,-2.14l0 -17.01 -0.44 0.49c-2.06,2.81 -4.12,5.65 -6.18,8.54 -2.06,2.88 -4.12,5.88 -6.19,8.97 -0.74,0.87 -1.62,1.3 -2.66,1.3 -0.74,0 -1.4,-0.23 -1.98,-0.71 -0.58,-0.48 -0.91,-1.15 -0.99,-2.02 0.05,-4.37 0.07,-8.7 0.09,-13.01 0.02,-4.31 0.03,-8.65 0.03,-13.02l0 -0.06zm36.18 26.28c-0.08,0.99 -0.41,1.74 -0.99,2.23 -0.57,0.49 -1.23,0.75 -1.98,0.75 -0.66,0 -1.3,-0.24 -1.91,-0.72 -0.63,-0.48 -0.97,-1.19 -1.05,-2.13 0,-4.34 0.01,-8.66 0.03,-12.96 0.03,-4.31 0.06,-8.65 0.09,-13.02 0.12,-0.66 0.35,-1.18 0.68,-1.55 0.33,-0.36 0.85,-0.65 1.55,-0.86 1.07,-0.17 2.16,-0.27 3.27,-0.32 1.11,-0.04 2.27,-0.07 3.47,-0.12 1.19,-0.05 2.4,-0.08 3.61,-0.12 1.22,-0.05 2.43,-0.17 3.62,-0.37 1.16,-0.08 2.03,0.15 2.63,0.68 0.6,0.53 0.9,1.16 0.9,1.86 0,0.58 -0.22,1.11 -0.68,1.6 -0.46,0.49 -1.16,0.87 -2.1,1.12 -0.99,0.16 -2,0.26 -3.03,0.31 -1.04,0.04 -2.08,0.06 -3.15,0.06 -0.83,0 -1.64,0.01 -2.44,0.04 -0.8,0.02 -1.61,0.07 -2.44,0.15 0,1.99 -0.01,3.94 -0.03,5.85 -0.03,1.91 -0.04,3.84 -0.04,5.78l0 11.75zm17.82 -13.42c0.08,-1.45 0.26,-2.95 0.55,-4.51 0.29,-1.57 0.79,-3.07 1.49,-4.52 0.49,-0.99 1.11,-1.93 1.86,-2.82 0.74,-0.89 1.57,-1.64 2.47,-2.29 0.91,-0.64 1.88,-1.16 2.9,-1.55 1.04,-0.39 2.08,-0.59 3.15,-0.59 2.15,0 4.1,0.77 5.88,2.29 1.98,1.82 3.43,3.94 4.37,6.37 0.92,2.44 1.43,4.91 1.51,7.43 0.05,1.69 -0.21,3.53 -0.77,5.5 -0.55,1.98 -1.38,3.81 -2.47,5.48 -1.09,1.67 -2.44,3.03 -4.05,4.1 -1.61,1.07 -3.47,1.51 -5.57,1.31 -1.73,-0.17 -3.26,-0.68 -4.58,-1.55 -1.32,-0.87 -2.49,-2.02 -3.52,-3.46 -1.2,-1.74 -2.01,-3.55 -2.42,-5.45 -0.41,-1.89 -0.68,-3.81 -0.8,-5.75zm7.29 -6.62c-0.87,2.06 -1.31,4.3 -1.33,6.72 -0.03,2.41 0.46,4.66 1.45,6.77 0.46,0.91 1.07,1.8 1.86,2.69 0.78,0.89 1.75,1.33 2.91,1.33 0.82,0 1.63,-0.35 2.44,-1.03 0.8,-0.68 1.49,-1.61 2.07,-2.82 0.46,-1.03 0.81,-2.14 1.08,-3.34 0.27,-1.19 0.4,-2.43 0.4,-3.7 0,-0.99 -0.13,-2.12 -0.4,-3.38 -0.27,-1.26 -0.66,-2.45 -1.18,-3.58 -0.51,-1.13 -1.15,-2.09 -1.88,-2.87 -0.75,-0.78 -1.57,-1.18 -2.47,-1.18 -0.54,0 -1.05,0.14 -1.55,0.43 -0.49,0.29 -0.96,0.64 -1.39,1.08 -0.44,0.44 -0.82,0.9 -1.15,1.42 -0.33,0.51 -0.62,1 -0.87,1.46zm33.89 19.92c-0.05,0.99 -0.36,1.74 -0.96,2.23 -0.6,0.49 -1.27,0.74 -2.02,0.74 -0.66,0 -1.3,-0.23 -1.91,-0.71 -0.63,-0.48 -0.97,-1.18 -1.05,-2.14 0.08,-3.91 0.12,-7.76 0.12,-11.56 0,-3.8 0,-7.67 0,-11.63 -0.87,0.05 -1.79,0.07 -2.78,0.07 -0.99,0 -1.89,0 -2.72,0 -1.03,-0.08 -1.79,-0.4 -2.29,-0.96 -0.49,-0.55 -0.75,-1.12 -0.75,-1.7 0,-0.66 0.27,-1.25 0.81,-1.76 0.53,-0.51 1.33,-0.81 2.41,-0.9 2.72,0 5.49,0.01 8.29,0.03 2.8,0.02 5.68,-0.11 8.66,-0.4 1.11,-0.08 1.98,0.15 2.59,0.68 0.63,0.53 0.93,1.16 0.93,1.86 0,0.58 -0.21,1.12 -0.65,1.63 -0.44,0.51 -1.1,0.88 -2.01,1.08 -1,0.12 -2.02,0.2 -3.1,0.22 -1.07,0.02 -2.22,0.03 -3.46,0.03 0,3.92 0,7.79 0,11.62 0,3.83 -0.04,7.7 -0.12,11.57zm13.16 -13.29c0.08,-1.45 0.26,-2.95 0.55,-4.51 0.29,-1.57 0.79,-3.07 1.49,-4.52 0.49,-0.99 1.11,-1.93 1.86,-2.82 0.74,-0.89 1.57,-1.64 2.47,-2.29 0.91,-0.64 1.88,-1.16 2.9,-1.55 1.04,-0.39 2.08,-0.59 3.15,-0.59 2.15,0 4.1,0.77 5.88,2.29 1.98,1.82 3.43,3.94 4.37,6.37 0.92,2.44 1.43,4.91 1.51,7.43 0.05,1.69 -0.21,3.53 -0.77,5.5 -0.55,1.98 -1.38,3.81 -2.47,5.48 -1.09,1.67 -2.44,3.03 -4.05,4.1 -1.61,1.07 -3.47,1.51 -5.57,1.31 -1.73,-0.17 -3.26,-0.68 -4.58,-1.55 -1.32,-0.87 -2.49,-2.02 -3.52,-3.46 -1.2,-1.74 -2.01,-3.55 -2.42,-5.45 -0.41,-1.89 -0.68,-3.81 -0.8,-5.75zm7.29 -6.62c-0.87,2.06 -1.31,4.3 -1.33,6.72 -0.03,2.41 0.46,4.66 1.45,6.77 0.46,0.91 1.07,1.8 1.86,2.69 0.78,0.89 1.75,1.33 2.91,1.33 0.82,0 1.63,-0.35 2.44,-1.03 0.8,-0.68 1.49,-1.61 2.07,-2.82 0.46,-1.03 0.81,-2.14 1.08,-3.34 0.27,-1.19 0.4,-2.43 0.4,-3.7 0,-0.99 -0.13,-2.12 -0.4,-3.38 -0.27,-1.26 -0.66,-2.45 -1.18,-3.58 -0.51,-1.13 -1.15,-2.09 -1.88,-2.87 -0.75,-0.78 -1.57,-1.18 -2.47,-1.18 -0.54,0 -1.05,0.14 -1.55,0.43 -0.49,0.29 -0.96,0.64 -1.39,1.08 -0.44,0.44 -0.82,0.9 -1.15,1.42 -0.33,0.51 -0.62,1 -0.87,1.46zm25.36 22.39c-0.49,0 -1.05,-0.04 -1.67,-0.12 -0.62,-0.08 -1.18,-0.25 -1.67,-0.52 -0.49,-0.27 -0.88,-0.63 -1.15,-1.08 -0.27,-0.46 -0.28,-1.05 -0.03,-1.8l0 -25.05c0.08,-0.46 0.21,-0.82 0.4,-1.11 0.19,-0.29 0.5,-0.6 0.96,-0.92 1.15,-0.49 2.32,-0.95 3.52,-1.36 1.2,-0.42 2.42,-0.73 3.66,-0.93 1.23,-0.21 2.48,-0.27 3.74,-0.19 1.26,0.08 2.52,0.4 3.8,0.93 1.73,0.78 3.18,1.89 4.34,3.34 1.15,1.45 1.73,3.03 1.73,4.76 0,1.32 -0.34,2.53 -1.02,3.62 -0.68,1.09 -1.56,2.05 -2.63,2.87 1.57,0.91 2.78,2.05 3.65,3.43 0.87,1.38 1.3,2.82 1.3,4.3 0,1.19 -0.31,2.37 -0.92,3.53 -0.63,1.16 -1.57,2.25 -2.85,3.28 -0.95,0.75 -2.04,1.32 -3.28,1.71 -1.24,0.39 -2.54,0.68 -3.9,0.87 -1.36,0.18 -2.72,0.3 -4.09,0.36 -1.35,0.07 -2.65,0.09 -3.89,0.09zm5.81 -14.47c-0.83,-0.08 -1.58,-0.13 -2.26,-0.16 -0.68,-0.02 -1.37,-0.03 -2.07,-0.03l0 9.34c0.94,0 1.96,0.01 3.03,0.03 1.07,0.03 2.1,-0.03 3.09,-0.15 0.99,-0.12 1.89,-0.37 2.72,-0.75 0.82,-0.36 1.48,-0.96 1.98,-1.79 0.62,-1.04 0.81,-1.92 0.59,-2.66 -0.22,-0.74 -0.7,-1.38 -1.43,-1.92 -0.72,-0.53 -1.58,-0.95 -2.57,-1.26 -0.99,-0.31 -1.94,-0.53 -2.85,-0.65l-0.24 0zm-4.33 -5.5c0.7,0 1.42,0.01 2.16,0.03 0.74,0.02 1.46,0.05 2.16,0.09 0.49,-0.05 1.09,-0.19 1.79,-0.43 0.7,-0.25 1.36,-0.57 1.98,-0.96 0.63,-0.39 1.15,-0.85 1.58,-1.36 0.44,-0.51 0.65,-1.08 0.65,-1.7 0,-1.04 -0.42,-1.83 -1.27,-2.38 -0.85,-0.56 -1.85,-0.92 -3,-1.08 -1.15,-0.17 -2.3,-0.15 -3.42,0.06 -1.14,0.21 -2.01,0.53 -2.63,0.99l0 6.74zm20.9 10.89c-0.29,-0.53 -0.41,-1.05 -0.36,-1.55 0.04,-0.49 0.18,-0.93 0.43,-1.3 0.25,-0.37 0.58,-0.67 0.99,-0.9 0.41,-0.23 0.84,-0.35 1.3,-0.35 0.49,0 1,0.12 1.49,0.37 0.49,0.25 0.96,0.66 1.42,1.24l0.07 0.06c0.16,0.29 0.4,0.74 0.71,1.33 0.31,0.6 0.65,1.19 1.02,1.79 0.37,0.6 0.76,1.13 1.15,1.6 0.39,0.48 0.71,0.74 0.96,0.77 0.41,-0.58 0.74,-1.37 0.99,-2.38 0.25,-1.01 0.43,-1.9 0.55,-2.69 0,-0.08 0.01,-0.16 0.04,-0.22 0.02,-0.07 0.03,-0.13 0.03,-0.21 0.21,-1.48 0.35,-2.97 0.43,-4.45 0.08,-1.48 0.13,-2.95 0.13,-4.39 0,-1.24 -0.02,-2.46 -0.07,-3.68 -0.05,-1.22 -0.08,-2.43 -0.12,-3.62 0.12,-0.66 0.35,-1.18 0.68,-1.55 0.33,-0.37 0.85,-0.68 1.55,-0.92 1.19,-0.17 2.43,-0.27 3.7,-0.32 1.28,-0.04 2.52,-0.09 3.71,-0.18 1.19,-0.08 2.39,-0.16 3.59,-0.22 1.19,-0.07 2.39,-0.2 3.58,-0.4 0.99,-0.04 1.75,0.12 2.29,0.47 0.54,0.35 0.95,0.93 1.24,1.76l0 12.56c0,2.06 0.01,4.11 0.03,6.15 0.03,2.04 0.04,4.12 0.04,6.22 -0.08,0.99 -0.43,1.73 -1.03,2.22 -0.6,0.49 -1.25,0.75 -1.95,0.75 -0.7,0 -1.34,-0.22 -1.94,-0.68 -0.61,-0.46 -0.94,-1.16 -1.03,-2.1l0 -11.01c0,-1.86 -0.01,-3.67 -0.03,-5.42 -0.02,-1.74 -0.03,-3.56 -0.03,-5.41l-8.41 0.75c0,0.29 0.01,0.59 0.03,0.9 0.03,0.31 0.04,0.59 0.04,0.83 0,0.7 0.01,1.43 0.03,2.17 0.02,0.74 0.03,1.48 0.03,2.22 0,2.47 -0.14,4.97 -0.43,7.48 -0.29,2.52 -0.91,4.83 -1.86,6.93 -0.66,1.32 -1.46,2.28 -2.42,2.87 -0.94,0.6 -1.98,0.9 -3.09,0.9 -1.11,0 -2.21,-0.28 -3.28,-0.83 -1.07,-0.56 -2.06,-1.35 -2.97,-2.38 -0.49,-0.63 -0.94,-1.27 -1.36,-1.95 -0.41,-0.68 -0.82,-1.37 -1.23,-2.07l-0.63 -1.18zm60.8 -9.1c-0.66,1.36 -1.67,2.51 -3.03,3.43 -1.36,0.92 -2.86,1.7 -4.52,2.32 -1.65,0.62 -3.35,1.1 -5.1,1.46 -1.75,0.35 -3.35,0.63 -4.79,0.83 0.78,1.73 1.96,3.11 3.53,4.14 1.57,1.04 3.44,1.45 5.63,1.24 1.32,-0.21 2.58,-0.55 3.78,-1.03 1.19,-0.48 2.44,-1.06 3.71,-1.76 0.66,-0.29 1.28,-0.41 1.86,-0.36 0.57,0.04 1.07,0.17 1.51,0.4 0.44,0.22 0.77,0.53 0.99,0.92 0.23,0.39 0.35,0.79 0.35,1.21 0,0.99 -0.62,1.86 -1.86,2.59 -1.69,0.91 -3.6,1.72 -5.73,2.42 -2.12,0.7 -4.27,1.05 -6.46,1.05 -1.36,0 -2.67,-0.18 -3.93,-0.52 -1.26,-0.35 -2.43,-0.93 -3.5,-1.76 -2.27,-1.74 -3.97,-3.86 -5.1,-6.37 -1.13,-2.51 -1.7,-5.11 -1.7,-7.79 0,-1.48 0.18,-2.94 0.52,-4.37 0.35,-1.42 0.88,-2.76 1.58,-4.02 0.7,-1.26 1.58,-2.42 2.63,-3.49 1.05,-1.07 2.3,-1.99 3.74,-2.72 1.69,-0.78 3.63,-1.18 5.81,-1.18 1.94,0 3.76,0.32 5.45,0.96 1.69,0.64 3.05,1.55 4.1,2.72 1.05,1.18 1.68,2.58 1.86,4.2 0.19,1.63 -0.25,3.45 -1.33,5.48zm-18.06 -0.74c-0.17,0.62 -0.29,1.21 -0.37,1.79 -0.08,0.58 -0.1,1.16 -0.06,1.73 0.08,0 0.21,-0.02 0.4,-0.06 0.18,-0.05 0.32,-0.07 0.4,-0.07 1.11,-0.16 2.25,-0.33 3.4,-0.49 1.16,-0.16 2.27,-0.41 3.34,-0.74 1.07,-0.33 2.1,-0.79 3.07,-1.4 0.96,-0.6 1.82,-1.46 2.57,-2.57 0.7,-1.03 0.92,-1.93 0.68,-2.71 -0.25,-0.78 -0.74,-1.42 -1.46,-1.89 -0.72,-0.48 -1.58,-0.79 -2.57,-0.95 -0.99,-0.17 -1.88,-0.17 -2.66,0 -0.95,0.16 -1.8,0.51 -2.54,1.05 -0.75,0.54 -1.41,1.18 -1.98,1.89 -0.58,0.72 -1.05,1.47 -1.43,2.26 -0.37,0.77 -0.64,1.5 -0.8,2.16zm27.39 -10.27c0.17,-0.83 0.52,-1.45 1.05,-1.86 0.53,-0.41 1.16,-0.62 1.86,-0.62 0.62,0 1.21,0.2 1.79,0.59 0.58,0.39 0.99,0.96 1.24,1.7 0,0.95 -0.01,1.88 -0.04,2.78 -0.02,0.91 -0.03,1.82 -0.03,2.72l0 4.95c0.7,-0.08 1.4,-0.16 2.1,-0.22 0.7,-0.07 1.41,-0.13 2.11,-0.21 0.82,-0.08 1.55,-0.16 2.19,-0.24 0.64,-0.08 1.37,-0.2 2.19,-0.32 0,-0.53 0,-1.08 0,-1.63 0,-0.56 0,-1.2 0,-1.92 0,-0.72 0.01,-1.57 0.04,-2.54 0.02,-0.96 0.03,-2.13 0.03,-3.49 0,-0.7 0.32,-1.3 0.96,-1.79 0.64,-0.49 1.31,-0.75 2.01,-0.75 0.21,0 0.47,0.04 0.77,0.12 0.31,0.08 0.63,0.22 0.93,0.4 0.31,0.19 0.58,0.44 0.83,0.75 0.25,0.31 0.39,0.67 0.44,1.08 0,1.94 0,3.65 0,5.13 0,1.48 0,2.83 0,4.02 0,1.19 0.01,2.3 0.03,3.31 0.02,1.01 0.03,1.99 0.03,2.94 0.05,1.93 0.07,3.86 0.09,5.78 0.02,1.91 0.03,3.84 0.03,5.78 -0.08,0.99 -0.42,1.73 -1.02,2.22 -0.6,0.49 -1.25,0.75 -1.95,0.75 -0.7,0 -1.35,-0.22 -1.95,-0.68 -0.6,-0.46 -0.93,-1.16 -1.02,-2.11 0,-2.01 0,-3.68 0,-5.01 0,-1.32 -0.01,-2.41 -0.03,-3.27 -0.03,-0.87 -0.04,-1.58 -0.04,-2.14 0,-0.55 0,-1.08 0,-1.58 -1.48,0.21 -2.92,0.39 -4.33,0.56 -1.4,0.16 -2.85,0.35 -4.33,0.56 -0.04,2.06 -0.05,4.05 -0.03,5.96 0.02,1.92 0.01,3.75 -0.03,5.48 0,0.37 -0.11,0.68 -0.35,0.93 -0.22,0.24 -0.5,0.44 -0.83,0.59 -0.33,0.14 -0.67,0.23 -1.03,0.27 -0.35,0.05 -0.64,0.07 -0.9,0.07 -0.7,0 -1.33,-0.21 -1.86,-0.62 -0.53,-0.42 -0.89,-1.04 -1.05,-1.86l0 -13.42c0,-2.18 0.01,-4.36 0.04,-6.52 0.02,-2.16 0.03,-4.36 0.03,-6.59l0 -0.07zm27.76 0c0.17,-0.83 0.52,-1.45 1.05,-1.86 0.53,-0.41 1.16,-0.62 1.86,-0.62 0.62,0 1.21,0.2 1.79,0.59 0.58,0.39 0.99,0.96 1.24,1.7 0,0.95 -0.01,1.88 -0.04,2.78 -0.02,0.91 -0.03,1.82 -0.03,2.72l0 4.95c0.7,-0.08 1.4,-0.16 2.1,-0.22 0.7,-0.07 1.41,-0.13 2.11,-0.21 0.82,-0.08 1.55,-0.16 2.19,-0.24 0.64,-0.08 1.37,-0.2 2.19,-0.32 0,-0.53 0,-1.08 0,-1.63 0,-0.56 0,-1.2 0,-1.92 0,-0.72 0.01,-1.57 0.04,-2.54 0.02,-0.96 0.03,-2.13 0.03,-3.49 0,-0.7 0.32,-1.3 0.96,-1.79 0.64,-0.49 1.31,-0.75 2.01,-0.75 0.21,0 0.47,0.04 0.77,0.12 0.31,0.08 0.63,0.22 0.93,0.4 0.31,0.19 0.58,0.44 0.83,0.75 0.25,0.31 0.39,0.67 0.44,1.08 0,1.94 0,3.65 0,5.13 0,1.48 0,2.83 0,4.02 0,1.19 0.01,2.3 0.03,3.31 0.02,1.01 0.03,1.99 0.03,2.94 0.05,1.93 0.07,3.86 0.09,5.78 0.02,1.91 0.03,3.84 0.03,5.78 -0.08,0.99 -0.42,1.73 -1.02,2.22 -0.6,0.49 -1.25,0.75 -1.95,0.75 -0.7,0 -1.35,-0.22 -1.95,-0.68 -0.6,-0.46 -0.93,-1.16 -1.02,-2.11 0,-2.01 0,-3.68 0,-5.01 0,-1.32 -0.01,-2.41 -0.03,-3.27 -0.03,-0.87 -0.04,-1.58 -0.04,-2.14 0,-0.55 0,-1.08 0,-1.58 -1.48,0.21 -2.92,0.39 -4.33,0.56 -1.4,0.16 -2.85,0.35 -4.33,0.56 -0.04,2.06 -0.05,4.05 -0.03,5.96 0.02,1.92 0.01,3.75 -0.03,5.48 0,0.37 -0.11,0.68 -0.35,0.93 -0.22,0.24 -0.5,0.44 -0.83,0.59 -0.33,0.14 -0.67,0.23 -1.03,0.27 -0.35,0.05 -0.64,0.07 -0.9,0.07 -0.7,0 -1.33,-0.21 -1.86,-0.62 -0.53,-0.42 -0.89,-1.04 -1.05,-1.86l0 -13.42c0,-2.18 0.01,-4.36 0.04,-6.52 0.02,-2.16 0.03,-4.36 0.03,-6.59l0 -0.07zm25.85 25.17c1.23,-1.35 2.29,-2.51 3.18,-3.46 0.89,-0.94 1.66,-1.77 2.32,-2.47 0.66,-0.7 1.26,-1.33 1.79,-1.88 0.53,-0.56 1.07,-1.08 1.6,-1.58 -1.19,-0.42 -2.34,-1.02 -3.43,-1.8 -1.09,-0.78 -2.04,-1.7 -2.87,-2.75 -0.83,-1.05 -1.46,-2.18 -1.88,-3.4 -0.44,-1.22 -0.55,-2.49 -0.35,-3.81 0.21,-1.11 0.64,-2.1 1.31,-2.97 0.66,-0.87 1.46,-1.6 2.38,-2.16 0.92,-0.58 1.95,-0.97 3.06,-1.18 1.11,-0.21 2.25,-0.22 3.41,-0.07 0.7,0.12 1.5,0.36 2.41,0.71 0.91,0.35 1.65,0.65 2.23,0.9 0.53,-0.53 1.21,-0.8 2.04,-0.8 0.66,0 1.28,0.18 1.86,0.53 0.57,0.35 0.96,0.91 1.17,1.7l0 25.73c-0.08,0.99 -0.41,1.74 -0.99,2.23 -0.57,0.49 -1.23,0.74 -1.98,0.74 -0.66,0 -1.3,-0.22 -1.91,-0.68 -0.63,-0.46 -0.97,-1.16 -1.05,-2.1l0 -8.11c-2.02,2.1 -3.78,3.95 -5.26,5.54 -1.48,1.59 -2.97,3.16 -4.45,4.73 -0.46,0.29 -0.87,0.49 -1.23,0.59 -0.37,0.1 -0.73,0.15 -1.05,0.15 -0.83,0 -1.51,-0.23 -2.04,-0.71 -0.53,-0.48 -0.8,-1.08 -0.8,-1.82 0,-0.25 0.04,-0.53 0.12,-0.84 0.08,-0.31 0.22,-0.63 0.44,-0.96zm6.12 -18.92c0.78,1.57 1.94,2.78 3.46,3.65 1.52,0.87 3.09,1.46 4.7,1.79l0 -6.31c-0.83,-0.66 -1.44,-1.11 -1.83,-1.36 -0.39,-0.25 -0.83,-0.48 -1.33,-0.68 -0.7,-0.25 -1.34,-0.37 -1.92,-0.37 -0.87,0 -1.62,0.26 -2.29,0.77 -0.66,0.51 -0.92,1.35 -0.8,2.51zm-400.69 76.02c-0.62,0.37 -1.22,0.57 -1.82,0.59 -0.6,0.02 -1.11,-0.07 -1.55,-0.28 -0.44,-0.21 -0.78,-0.5 -1.05,-0.9 -0.27,-0.39 -0.4,-0.84 -0.4,-1.33 0,-0.82 0.41,-1.56 1.24,-2.22 0.58,-0.33 1.11,-0.64 1.6,-0.93 0.49,-0.29 0.97,-0.53 1.43,-0.74l1.67 -1.36c0.62,-0.41 1.3,-0.89 2.03,-1.43 0.75,-0.53 1.43,-1.11 2.04,-1.73 0.63,-0.63 1.15,-1.3 1.58,-2.02 0.44,-0.72 0.69,-1.49 0.77,-2.31 -1.16,0.21 -2.38,0.61 -3.68,1.2 -1.3,0.6 -2.94,1.37 -4.92,2.32 -1.28,0.29 -2.31,0.18 -3.1,-0.32 -0.78,-0.49 -1.18,-1.15 -1.18,-1.98 0,-0.78 0.46,-1.57 1.36,-2.35l1.6 -0.8c0.87,-0.41 1.79,-0.85 2.75,-1.33 0.97,-0.48 1.96,-0.91 2.98,-1.27 1.01,-0.37 2.02,-0.65 3.02,-0.84 1.02,-0.19 1.98,-0.21 2.88,-0.09 0.74,0.08 1.38,0.32 1.91,0.68 0.53,0.37 0.98,0.82 1.33,1.33 0.35,0.51 0.6,1.08 0.74,1.7 0.15,0.63 0.22,1.24 0.22,1.86 -0.05,1.52 -0.49,2.97 -1.33,4.33 -0.85,1.36 -1.8,2.58 -2.87,3.65l0.12 0.07c0.74,0.25 1.42,0.57 2.04,0.96 0.62,0.39 1.14,0.87 1.58,1.42 0.43,0.56 0.73,1.17 0.9,1.83 0.17,0.66 0.17,1.38 0,2.16 -0.37,1.07 -1.05,2.29 -2.04,3.65 -0.99,1.36 -2.11,2.69 -3.37,3.98 -1.26,1.3 -2.56,2.44 -3.9,3.43 -1.33,1 -2.52,1.61 -3.55,1.86 -0.66,0.17 -1.33,0.21 -2.01,0.13 -0.68,-0.08 -1.32,-0.22 -1.89,-0.4 -0.57,-0.19 -1.1,-0.39 -1.58,-0.63 -0.48,-0.22 -0.83,-0.42 -1.08,-0.59 -0.25,-0.16 -0.58,-0.37 -0.99,-0.64 -0.41,-0.27 -0.81,-0.59 -1.2,-0.96 -0.39,-0.37 -0.71,-0.77 -0.96,-1.18 -0.25,-0.41 -0.33,-0.84 -0.24,-1.3 0.16,-0.83 0.53,-1.44 1.11,-1.83 0.58,-0.39 1.21,-0.59 1.91,-0.59 0.83,0 1.51,0.27 2.04,0.8 1.32,1.28 2.37,1.92 3.15,1.92 0.63,0 1.29,-0.29 1.99,-0.87 0.7,-0.58 1.5,-1.33 2.41,-2.23 0.83,-0.78 1.63,-1.63 2.42,-2.54 0.78,-0.91 1.45,-1.93 1.98,-3.09 -0.83,-0.41 -1.72,-0.62 -2.66,-0.62 -0.91,0 -1.84,0.17 -2.79,0.49 -0.94,0.33 -1.81,0.77 -2.59,1.3l-0.07 0z"/>
   <path class="fil4" d="M72.87 469.45c0.08,-1.45 0.26,-2.95 0.55,-4.51 0.29,-1.57 0.79,-3.07 1.49,-4.52 0.49,-0.99 1.11,-1.93 1.86,-2.82 0.74,-0.89 1.57,-1.64 2.47,-2.29 0.91,-0.64 1.88,-1.16 2.9,-1.55 1.04,-0.39 2.08,-0.59 3.15,-0.59 2.15,0 4.1,0.77 5.88,2.29 1.98,1.82 3.43,3.94 4.37,6.37 0.92,2.44 1.43,4.91 1.51,7.43 0.05,1.69 -0.21,3.53 -0.77,5.5 -0.55,1.98 -1.38,3.81 -2.47,5.48 -1.09,1.67 -2.44,3.03 -4.05,4.1 -1.61,1.07 -3.47,1.51 -5.57,1.31 -1.73,-0.17 -3.26,-0.68 -4.58,-1.55 -1.32,-0.87 -2.49,-2.02 -3.52,-3.46 -1.2,-1.74 -2.01,-3.55 -2.42,-5.45 -0.41,-1.89 -0.68,-3.81 -0.8,-5.75zm7.29 -6.62c-0.87,2.06 -1.31,4.3 -1.33,6.72 -0.03,2.41 0.46,4.66 1.45,6.77 0.46,0.91 1.07,1.8 1.86,2.69 0.78,0.89 1.75,1.33 2.91,1.33 0.82,0 1.63,-0.35 2.44,-1.03 0.8,-0.68 1.49,-1.61 2.07,-2.82 0.46,-1.03 0.81,-2.14 1.08,-3.34 0.27,-1.19 0.4,-2.43 0.4,-3.7 0,-0.99 -0.13,-2.12 -0.4,-3.38 -0.27,-1.26 -0.66,-2.45 -1.18,-3.58 -0.51,-1.13 -1.15,-2.09 -1.88,-2.87 -0.75,-0.78 -1.57,-1.18 -2.47,-1.18 -0.54,0 -1.05,0.14 -1.55,0.43 -0.49,0.29 -0.96,0.64 -1.39,1.08 -0.44,0.44 -0.82,0.9 -1.15,1.42 -0.33,0.51 -0.62,1 -0.87,1.46zm25.36 22.39c-0.49,0 -1.05,-0.04 -1.67,-0.12 -0.62,-0.08 -1.18,-0.25 -1.67,-0.52 -0.49,-0.27 -0.88,-0.63 -1.15,-1.08 -0.27,-0.46 -0.28,-1.05 -0.03,-1.8l0 -25.05c0.08,-0.46 0.21,-0.82 0.4,-1.11 0.19,-0.29 0.5,-0.6 0.96,-0.92 1.15,-0.49 2.32,-0.95 3.52,-1.36 1.2,-0.42 2.42,-0.73 3.66,-0.93 1.23,-0.21 2.48,-0.27 3.74,-0.19 1.26,0.08 2.52,0.4 3.8,0.93 1.73,0.78 3.18,1.89 4.34,3.34 1.15,1.45 1.73,3.03 1.73,4.76 0,1.32 -0.34,2.53 -1.02,3.62 -0.68,1.09 -1.56,2.05 -2.63,2.87 1.57,0.91 2.78,2.05 3.65,3.43 0.87,1.38 1.3,2.82 1.3,4.3 0,1.19 -0.31,2.37 -0.92,3.53 -0.63,1.16 -1.57,2.25 -2.85,3.28 -0.95,0.75 -2.04,1.32 -3.28,1.71 -1.24,0.39 -2.54,0.68 -3.9,0.87 -1.36,0.18 -2.72,0.3 -4.09,0.36 -1.35,0.07 -2.65,0.09 -3.89,0.09zm5.81 -14.47c-0.83,-0.08 -1.58,-0.13 -2.26,-0.16 -0.68,-0.02 -1.37,-0.03 -2.07,-0.03l0 9.34c0.94,0 1.96,0.01 3.03,0.03 1.07,0.03 2.1,-0.03 3.09,-0.15 0.99,-0.12 1.89,-0.37 2.72,-0.75 0.82,-0.36 1.48,-0.96 1.98,-1.79 0.62,-1.04 0.81,-1.92 0.59,-2.66 -0.22,-0.74 -0.7,-1.38 -1.43,-1.92 -0.72,-0.53 -1.58,-0.95 -2.57,-1.26 -0.99,-0.31 -1.94,-0.53 -2.85,-0.65l-0.24 0zm-4.33 -5.5c0.7,0 1.42,0.01 2.16,0.03 0.74,0.02 1.46,0.05 2.16,0.09 0.49,-0.05 1.09,-0.19 1.79,-0.43 0.7,-0.25 1.36,-0.57 1.98,-0.96 0.63,-0.39 1.15,-0.85 1.58,-1.36 0.44,-0.51 0.65,-1.08 0.65,-1.7 0,-1.04 -0.42,-1.83 -1.27,-2.38 -0.85,-0.56 -1.85,-0.92 -3,-1.08 -1.15,-0.17 -2.3,-0.15 -3.42,0.06 -1.14,0.21 -2.01,0.53 -2.63,0.99l0 6.74zm23.31 -9.22c0.17,-0.83 0.52,-1.45 1.05,-1.86 0.53,-0.41 1.16,-0.62 1.86,-0.62 0.62,0 1.21,0.2 1.79,0.59 0.58,0.39 0.99,0.96 1.24,1.7 0,0.95 -0.01,1.88 -0.04,2.78 -0.02,0.91 -0.03,1.82 -0.03,2.72l0 4.95c0.7,-0.08 1.4,-0.16 2.1,-0.22 0.7,-0.07 1.41,-0.13 2.11,-0.21 0.82,-0.08 1.55,-0.16 2.19,-0.24 0.64,-0.08 1.37,-0.2 2.19,-0.32 0,-0.53 0,-1.08 0,-1.63 0,-0.56 0,-1.2 0,-1.92 0,-0.72 0.01,-1.57 0.04,-2.54 0.02,-0.96 0.03,-2.13 0.03,-3.49 0,-0.7 0.32,-1.3 0.96,-1.79 0.64,-0.49 1.31,-0.75 2.01,-0.75 0.21,0 0.47,0.04 0.77,0.12 0.31,0.08 0.63,0.22 0.93,0.4 0.31,0.19 0.58,0.44 0.83,0.75 0.25,0.31 0.39,0.67 0.44,1.08 0,1.94 0,3.65 0,5.13 0,1.48 0,2.83 0,4.02 0,1.19 0.01,2.3 0.03,3.31 0.02,1.01 0.03,1.99 0.03,2.94 0.05,1.93 0.07,3.86 0.09,5.78 0.02,1.91 0.03,3.84 0.03,5.78 -0.08,0.99 -0.42,1.73 -1.02,2.22 -0.6,0.49 -1.25,0.75 -1.95,0.75 -0.7,0 -1.35,-0.22 -1.95,-0.68 -0.6,-0.46 -0.93,-1.16 -1.02,-2.11 0,-2.01 0,-3.68 0,-5.01 0,-1.32 -0.01,-2.41 -0.03,-3.27 -0.03,-0.87 -0.04,-1.58 -0.04,-2.14 0,-0.55 0,-1.08 0,-1.58 -1.48,0.21 -2.92,0.39 -4.33,0.56 -1.4,0.16 -2.85,0.35 -4.33,0.56 -0.04,2.06 -0.05,4.05 -0.03,5.96 0.02,1.92 0.01,3.75 -0.03,5.48 0,0.37 -0.11,0.68 -0.35,0.93 -0.22,0.24 -0.5,0.44 -0.83,0.59 -0.33,0.14 -0.67,0.23 -1.03,0.27 -0.35,0.05 -0.64,0.07 -0.9,0.07 -0.7,0 -1.33,-0.21 -1.86,-0.62 -0.53,-0.42 -0.89,-1.04 -1.05,-1.86l0 -13.42c0,-2.18 0.01,-4.36 0.04,-6.52 0.02,-2.16 0.03,-4.36 0.03,-6.59l0 -0.07zm34.13 26.41c-0.05,1.04 -0.37,1.79 -0.99,2.29 -0.63,0.49 -1.31,0.75 -2.04,0.75 -0.74,0 -1.4,-0.22 -1.98,-0.68 -0.58,-0.46 -0.93,-1.16 -1.05,-2.11l-0.19 -23.5c0.21,-0.87 0.58,-1.51 1.12,-1.95 0.53,-0.43 1.18,-0.64 1.91,-0.64 0.66,0 1.28,0.2 1.86,0.59 0.58,0.39 0.97,1 1.18,1.82l0.19 23.44zm-6.68 -33.09c0,-0.94 0.34,-1.76 1.02,-2.44 0.68,-0.68 1.5,-1.02 2.44,-1.02 0.99,0 1.83,0.34 2.51,1.02 0.68,0.68 1.02,1.5 1.02,2.44 0,0.94 -0.34,1.75 -1.02,2.42 -0.68,0.66 -1.52,0.99 -2.51,0.99 -0.94,0 -1.76,-0.33 -2.44,-0.99 -0.68,-0.66 -1.02,-1.47 -1.02,-2.42zm13.48 6c0.16,-0.83 0.52,-1.45 1.08,-1.86 0.55,-0.41 1.16,-0.62 1.82,-0.62 0.63,0 1.23,0.2 1.83,0.59 0.6,0.39 1.02,0.96 1.27,1.7 -0.05,1.16 -0.08,2.33 -0.12,3.53 -0.05,1.19 -0.07,2.39 -0.07,3.59 0,1.45 0.04,2.9 0.12,4.38 0.08,1.48 0.25,2.95 0.49,4.39 0.25,1.45 0.58,2.86 0.99,4.24 0.42,1.38 0.95,2.69 1.61,3.93 0.49,0.46 0.82,0.67 0.99,0.65 0.16,-0.02 0.29,-0.03 0.37,-0.03 0.33,0.04 0.54,0.03 0.64,-0.04 0.1,-0.07 0.28,-0.18 0.53,-0.34 1.52,-2.81 2.57,-6.17 3.15,-10.08 0.58,-3.92 0.97,-8.37 1.18,-13.36 0.21,-0.7 0.58,-1.23 1.11,-1.58 0.53,-0.35 1.11,-0.52 1.74,-0.52 0.87,0 1.58,0.33 2.13,0.99 0.56,0.66 0.84,1.36 0.84,2.1 -0.05,1.19 -0.07,2.24 -0.09,3.13 -0.02,0.89 -0.03,1.74 -0.03,2.57 0,1.52 0.05,3.1 0.15,4.73 0.1,1.63 0.29,3.2 0.56,4.7 0.27,1.5 0.66,2.9 1.18,4.18 0.51,1.28 1.19,2.32 2.01,3.15l0.81 0.24 0.12 0c-0.05,0 0.1,-0.04 0.43,-0.12 0.99,-0.95 1.7,-2.15 2.14,-3.59 0.44,-1.45 0.77,-2.9 1.02,-4.38 0.46,-2.72 0.76,-5.44 0.9,-8.13 0.15,-2.7 0.26,-5.43 0.35,-8.2 0.16,-0.82 0.52,-1.44 1.08,-1.85 0.55,-0.42 1.19,-0.63 1.88,-0.63 0.58,0 1.17,0.2 1.76,0.59 0.6,0.39 1.02,0.96 1.27,1.71 -0.17,2.97 -0.33,5.89 -0.47,8.75 -0.14,2.86 -0.44,5.72 -0.9,8.56 -0.25,1.45 -0.59,2.91 -1.02,4.39 -0.44,1.48 -1.01,2.83 -1.71,4.05 -0.7,1.21 -1.6,2.21 -2.69,3 -1.09,0.78 -2.43,1.18 -3.99,1.18 -2.23,0 -4.04,-0.7 -5.44,-2.1 -0.62,-0.62 -1.11,-1.19 -1.48,-1.7 -0.37,-0.51 -0.7,-1.06 -0.99,-1.64l-0.19 -0.19 -0.07 -0.07c-0.33,0.7 -0.67,1.33 -1.02,1.89 -0.35,0.55 -0.75,1.05 -1.2,1.51 -0.95,0.87 -1.86,1.48 -2.72,1.86 -0.87,0.37 -1.89,0.56 -3.1,0.56 -1.19,0 -2.36,-0.25 -3.49,-0.75 -1.14,-0.49 -2.05,-1.3 -2.75,-2.41 -0.87,-1.41 -1.58,-2.91 -2.14,-4.52 -0.55,-1.61 -0.98,-3.27 -1.27,-4.98 -0.29,-1.71 -0.49,-3.43 -0.59,-5.17 -0.1,-1.73 -0.15,-3.46 -0.15,-5.2 0,-1.15 0.01,-2.29 0.03,-3.43 0.02,-1.13 0.05,-2.23 0.09,-3.3l0 -0.07zm43.29 0.68c0.17,-0.83 0.52,-1.45 1.05,-1.86 0.53,-0.41 1.16,-0.62 1.86,-0.62 0.62,0 1.21,0.2 1.79,0.59 0.58,0.39 0.99,0.96 1.24,1.7 0,0.95 -0.01,1.88 -0.04,2.78 -0.02,0.91 -0.03,1.82 -0.03,2.72l0 4.95c0.7,-0.08 1.4,-0.16 2.1,-0.22 0.7,-0.07 1.41,-0.13 2.11,-0.21 0.82,-0.08 1.55,-0.16 2.19,-0.24 0.64,-0.08 1.37,-0.2 2.19,-0.32 0,-0.53 0,-1.08 0,-1.63 0,-0.56 0,-1.2 0,-1.92 0,-0.72 0.01,-1.57 0.04,-2.54 0.02,-0.96 0.03,-2.13 0.03,-3.49 0,-0.7 0.32,-1.3 0.96,-1.79 0.64,-0.49 1.31,-0.75 2.01,-0.75 0.21,0 0.47,0.04 0.77,0.12 0.31,0.08 0.63,0.22 0.93,0.4 0.31,0.19 0.58,0.44 0.83,0.75 0.25,0.31 0.39,0.67 0.44,1.08 0,1.94 0,3.65 0,5.13 0,1.48 0,2.83 0,4.02 0,1.19 0.01,2.3 0.03,3.31 0.02,1.01 0.03,1.99 0.03,2.94 0.05,1.93 0.07,3.86 0.09,5.78 0.02,1.91 0.03,3.84 0.03,5.78 -0.08,0.99 -0.42,1.73 -1.02,2.22 -0.6,0.49 -1.25,0.75 -1.95,0.75 -0.7,0 -1.35,-0.22 -1.95,-0.68 -0.6,-0.46 -0.93,-1.16 -1.02,-2.11 0,-2.01 0,-3.68 0,-5.01 0,-1.32 -0.01,-2.41 -0.03,-3.27 -0.03,-0.87 -0.04,-1.58 -0.04,-2.14 0,-0.55 0,-1.08 0,-1.58 -1.48,0.21 -2.92,0.39 -4.33,0.56 -1.4,0.16 -2.85,0.35 -4.33,0.56 -0.04,2.06 -0.05,4.05 -0.03,5.96 0.02,1.92 0.01,3.75 -0.03,5.48 0,0.37 -0.11,0.68 -0.35,0.93 -0.22,0.24 -0.5,0.44 -0.83,0.59 -0.33,0.14 -0.67,0.23 -1.03,0.27 -0.35,0.05 -0.64,0.07 -0.9,0.07 -0.7,0 -1.33,-0.21 -1.86,-0.62 -0.53,-0.42 -0.89,-1.04 -1.05,-1.86l0 -13.42c0,-2.18 0.01,-4.36 0.04,-6.52 0.02,-2.16 0.03,-4.36 0.03,-6.59l0 -0.07zm41.5 26.72c-0.78,0.7 -1.64,1.23 -2.57,1.58 -0.92,0.35 -1.87,0.53 -2.82,0.53 -1.4,0 -2.71,-0.37 -3.96,-1.12 -0.21,0.66 -0.56,1.12 -1.05,1.39 -0.49,0.27 -1.05,0.4 -1.67,0.4 -0.7,0 -1.35,-0.22 -1.95,-0.67 -0.6,-0.46 -0.93,-1.16 -1.02,-2.11 0.04,-4.53 0.06,-9.05 0.06,-13.55 0,-4.49 0,-9.02 0,-13.6 0.17,-0.83 0.52,-1.45 1.05,-1.86 0.53,-0.42 1.16,-0.63 1.86,-0.63 0.63,0 1.22,0.2 1.79,0.59 0.58,0.39 0.99,0.96 1.24,1.71l0 8.22c1.16,-0.62 2.37,-0.92 3.65,-0.92 1.07,0 2.07,0.19 3,0.56 0.92,0.36 1.76,0.96 2.5,1.79 1.07,1.11 1.88,2.44 2.42,3.96 0.53,1.53 0.82,3.01 0.87,4.46 0,1.57 -0.27,3.19 -0.81,4.88 -0.53,1.69 -1.4,3.15 -2.59,4.39zm-5.5 -14.72c-0.63,0 -1.15,0.28 -1.58,0.84 -0.44,0.55 -0.76,1.25 -0.96,2.1 -0.21,0.85 -0.31,1.76 -0.31,2.75 0,0.99 0.11,1.9 0.34,2.75 0.23,0.85 0.55,1.56 0.96,2.14 0.41,0.58 0.94,0.87 1.6,0.87 0.37,0 0.75,-0.15 1.12,-0.44 0.36,-0.29 0.67,-0.72 0.92,-1.3 0.25,-0.66 0.45,-1.32 0.59,-1.98 0.14,-0.66 0.21,-1.36 0.21,-2.1 0,-0.7 -0.07,-1.35 -0.21,-1.95 -0.14,-0.6 -0.32,-1.17 -0.52,-1.71 -0.29,-0.57 -0.63,-1.05 -0.99,-1.42 -0.37,-0.37 -0.77,-0.56 -1.18,-0.56zm12.73 1.43c0.08,-1.45 0.26,-2.95 0.55,-4.51 0.29,-1.57 0.79,-3.07 1.49,-4.52 0.49,-0.99 1.11,-1.93 1.86,-2.82 0.74,-0.89 1.57,-1.64 2.47,-2.29 0.91,-0.64 1.88,-1.16 2.9,-1.55 1.04,-0.39 2.08,-0.59 3.15,-0.59 2.15,0 4.1,0.77 5.88,2.29 1.98,1.82 3.43,3.94 4.37,6.37 0.92,2.44 1.43,4.91 1.51,7.43 0.05,1.69 -0.21,3.53 -0.77,5.5 -0.55,1.98 -1.38,3.81 -2.47,5.48 -1.09,1.67 -2.44,3.03 -4.05,4.1 -1.61,1.07 -3.47,1.51 -5.57,1.31 -1.73,-0.17 -3.26,-0.68 -4.58,-1.55 -1.32,-0.87 -2.49,-2.02 -3.52,-3.46 -1.2,-1.74 -2.01,-3.55 -2.42,-5.45 -0.41,-1.89 -0.68,-3.81 -0.8,-5.75zm7.29 -6.62c-0.87,2.06 -1.31,4.3 -1.33,6.72 -0.03,2.41 0.46,4.66 1.45,6.77 0.46,0.91 1.07,1.8 1.86,2.69 0.78,0.89 1.75,1.33 2.91,1.33 0.82,0 1.63,-0.35 2.44,-1.03 0.8,-0.68 1.49,-1.61 2.07,-2.82 0.46,-1.03 0.81,-2.14 1.08,-3.34 0.27,-1.19 0.4,-2.43 0.4,-3.7 0,-0.99 -0.13,-2.12 -0.4,-3.38 -0.27,-1.26 -0.66,-2.45 -1.18,-3.58 -0.51,-1.13 -1.15,-2.09 -1.88,-2.87 -0.75,-0.78 -1.57,-1.18 -2.47,-1.18 -0.54,0 -1.05,0.14 -1.55,0.43 -0.49,0.29 -0.96,0.64 -1.39,1.08 -0.44,0.44 -0.82,0.9 -1.15,1.42 -0.33,0.51 -0.62,1 -0.87,1.46zm22.63 -4.45c0.21,-0.87 0.58,-1.51 1.11,-1.95 0.53,-0.44 1.18,-0.65 1.92,-0.65 0.66,0 1.28,0.21 1.86,0.63 0.58,0.41 0.97,1.03 1.18,1.86l0 24.61c-0.05,1.04 -0.37,1.8 -0.99,2.3 -0.63,0.49 -1.31,0.74 -2.04,0.74 -0.75,0 -1.41,-0.23 -1.98,-0.71 -0.58,-0.48 -0.93,-1.19 -1.05,-2.14l0 -24.68zm13.61 -11.38c0,0.53 -0.16,1.04 -0.47,1.51 -0.31,0.48 -0.72,0.91 -1.21,1.27 -0.49,0.37 -1.02,0.67 -1.58,0.91 -0.55,0.22 -1.08,0.34 -1.58,0.34 -1.03,0 -1.9,-0.34 -2.62,-1.02 -0.72,-0.68 -1.08,-1.52 -1.08,-2.51 0,-0.49 0.17,-0.98 0.49,-1.46 0.33,-0.48 0.74,-0.9 1.23,-1.27 0.49,-0.36 1.03,-0.66 1.58,-0.9 0.56,-0.22 1.06,-0.34 1.52,-0.34 1.03,0 1.9,0.34 2.62,1.02 0.73,0.68 1.09,1.5 1.09,2.44zm-12.56 0.49c0,0.49 -0.16,0.98 -0.47,1.46 -0.31,0.48 -0.71,0.91 -1.2,1.3 -0.49,0.39 -1.05,0.71 -1.64,0.96 -0.6,0.25 -1.19,0.37 -1.76,0.37 -1.04,0 -1.93,-0.36 -2.69,-1.08 -0.77,-0.72 -1.15,-1.58 -1.15,-2.57 0,-0.49 0.18,-0.98 0.52,-1.46 0.35,-0.48 0.79,-0.91 1.31,-1.31 0.51,-0.39 1.06,-0.7 1.67,-0.92 0.6,-0.22 1.12,-0.34 1.58,-0.34 1.03,0 1.92,0.35 2.69,1.05 0.77,0.7 1.15,1.55 1.15,2.54zm33.2 7.43c0.16,-0.83 0.52,-1.45 1.08,-1.86 0.55,-0.42 1.19,-0.63 1.88,-0.63 0.58,0 1.17,0.2 1.76,0.59 0.6,0.39 1.02,0.98 1.27,1.76l0 0.63c0.82,-0.49 1.75,-0.87 2.81,-1.12 1.05,-0.24 2.12,-0.36 3.19,-0.36 1.57,0 3.11,0.28 4.61,0.83 1.5,0.56 2.75,1.37 3.74,2.44 1.45,1.65 2.48,3.52 3.12,5.6 0.63,2.08 1,4.15 1.08,6.21 0.04,1.2 -0.05,2.43 -0.25,3.69 -0.21,1.26 -0.52,2.49 -0.96,3.71 -0.43,1.21 -1.01,2.37 -1.73,3.46 -0.72,1.09 -1.6,2.03 -2.63,2.81 -0.95,0.7 -1.95,1.21 -3,1.52 -1.05,0.31 -2.11,0.47 -3.18,0.47 -2.56,0 -4.8,-0.66 -6.74,-1.99l0 13.05c-0.08,0.99 -0.42,1.74 -1.02,2.23 -0.6,0.49 -1.27,0.75 -2.02,0.75 -0.66,0 -1.3,-0.22 -1.91,-0.68 -0.63,-0.46 -0.97,-1.16 -1.05,-2.11 0,-6.84 0,-13.65 0,-20.41 0,-6.76 -0.02,-13.6 -0.06,-20.53l0 -0.06zm8.35 5.81c-0.54,0.46 -0.95,1.02 -1.24,1.7 -0.29,0.68 -0.5,1.41 -0.65,2.16 -0.14,0.77 -0.23,1.56 -0.27,2.38 -0.05,0.83 -0.08,1.61 -0.13,2.35 0,1.07 0.09,2.29 0.28,3.62 0.19,1.34 0.65,2.55 1.39,3.62 0.58,0.83 1.33,1.5 2.26,2.02 0.92,0.51 1.87,0.77 2.82,0.77 1.11,0 2.04,-0.36 2.78,-1.08 0.75,-0.72 1.34,-1.6 1.8,-2.66 0.46,-1.05 0.77,-2.16 0.95,-3.3 0.19,-1.16 0.28,-2.19 0.28,-3.1 0,-0.87 -0.08,-1.81 -0.24,-2.85 -0.17,-1.04 -0.44,-2.02 -0.81,-2.97 -0.36,-0.95 -0.86,-1.79 -1.48,-2.51 -0.62,-0.72 -1.38,-1.22 -2.29,-1.51 -0.87,-0.16 -1.8,-0.15 -2.82,0.03 -1.01,0.19 -1.88,0.63 -2.62,1.33zm44.58 6.31c-0.66,1.36 -1.67,2.51 -3.03,3.43 -1.36,0.92 -2.86,1.7 -4.52,2.32 -1.65,0.62 -3.35,1.1 -5.1,1.46 -1.75,0.35 -3.35,0.63 -4.79,0.83 0.78,1.73 1.96,3.11 3.53,4.14 1.57,1.04 3.44,1.45 5.63,1.24 1.32,-0.21 2.58,-0.55 3.78,-1.03 1.19,-0.48 2.44,-1.06 3.71,-1.76 0.66,-0.29 1.28,-0.41 1.86,-0.36 0.57,0.04 1.07,0.17 1.51,0.4 0.44,0.22 0.77,0.53 0.99,0.92 0.23,0.39 0.35,0.79 0.35,1.21 0,0.99 -0.62,1.86 -1.86,2.59 -1.69,0.91 -3.6,1.72 -5.73,2.42 -2.12,0.7 -4.27,1.05 -6.46,1.05 -1.36,0 -2.67,-0.18 -3.93,-0.52 -1.26,-0.35 -2.43,-0.93 -3.5,-1.76 -2.27,-1.74 -3.97,-3.86 -5.1,-6.37 -1.13,-2.51 -1.7,-5.11 -1.7,-7.79 0,-1.48 0.18,-2.94 0.52,-4.37 0.35,-1.42 0.88,-2.76 1.58,-4.02 0.7,-1.26 1.58,-2.42 2.63,-3.49 1.05,-1.07 2.3,-1.99 3.74,-2.72 1.69,-0.78 3.63,-1.18 5.81,-1.18 1.94,0 3.76,0.32 5.45,0.96 1.69,0.64 3.05,1.55 4.1,2.72 1.05,1.18 1.68,2.58 1.86,4.2 0.19,1.63 -0.25,3.45 -1.33,5.48zm-18.06 -0.74c-0.17,0.62 -0.29,1.21 -0.37,1.79 -0.08,0.58 -0.1,1.16 -0.06,1.73 0.08,0 0.21,-0.02 0.4,-0.06 0.18,-0.05 0.32,-0.07 0.4,-0.07 1.11,-0.16 2.25,-0.33 3.4,-0.49 1.16,-0.16 2.27,-0.41 3.34,-0.74 1.07,-0.33 2.1,-0.79 3.07,-1.4 0.96,-0.6 1.82,-1.46 2.57,-2.57 0.7,-1.03 0.92,-1.93 0.68,-2.71 -0.25,-0.78 -0.74,-1.42 -1.46,-1.89 -0.72,-0.48 -1.58,-0.79 -2.57,-0.95 -0.99,-0.17 -1.88,-0.17 -2.66,0 -0.95,0.16 -1.8,0.51 -2.54,1.05 -0.75,0.54 -1.41,1.18 -1.98,1.89 -0.58,0.72 -1.05,1.47 -1.43,2.26 -0.37,0.77 -0.64,1.5 -0.8,2.16zm38.21 5.19c-1.36,-0.04 -2.42,-0.07 -3.15,-0.08 -0.74,-0.03 -1.29,-0.04 -1.64,-0.04 -0.35,0 -0.55,0 -0.62,0 -0.07,0 -0.09,0 -0.09,0l0 10.95c-0.08,0.99 -0.42,1.73 -1.02,2.22 -0.6,0.49 -1.25,0.75 -1.95,0.75 -0.7,0 -1.36,-0.22 -1.98,-0.68 -0.63,-0.46 -0.97,-1.16 -1.05,-2.1l0 -26.97c0.17,-0.83 0.53,-1.45 1.08,-1.86 0.56,-0.41 1.19,-0.62 1.88,-0.62 0.58,0 1.17,0.2 1.76,0.59 0.6,0.39 1.02,0.96 1.27,1.7l0 10.39 4.09 0c0.87,-0.58 1.66,-1.22 2.38,-1.92 0.72,-0.7 1.45,-1.49 2.16,-2.38 0.72,-0.89 1.46,-1.9 2.23,-3.06 0.76,-1.16 1.63,-2.5 2.63,-4.02 0.91,-0.7 1.74,-1.05 2.53,-1.05 0.95,0 1.72,0.37 2.3,1.12 0.57,0.74 0.63,1.67 0.19,2.78 -0.91,1.32 -1.72,2.5 -2.42,3.55 -0.7,1.05 -1.37,2.01 -2.01,2.87 -0.64,0.87 -1.28,1.67 -1.92,2.39 -0.64,0.72 -1.33,1.41 -2.07,2.07l1.48 1.48c1.65,1.57 3.19,3.35 4.64,5.35 1.45,2.01 2.71,4.06 3.78,6.16 0.33,1.07 0.2,1.95 -0.4,2.63 -0.61,0.68 -1.35,1.02 -2.26,1.02 -0.46,0 -0.91,-0.09 -1.36,-0.28 -0.46,-0.18 -0.89,-0.49 -1.31,-0.95 -0.33,-0.7 -0.84,-1.61 -1.54,-2.72 -0.7,-1.11 -1.48,-2.26 -2.35,-3.43 -0.87,-1.18 -1.76,-2.29 -2.7,-3.34 -0.92,-1.05 -1.78,-1.88 -2.57,-2.51z"/>
   <path class="fil4" d="M418.34 476.13c-0.29,-0.53 -0.41,-1.05 -0.36,-1.55 0.04,-0.49 0.18,-0.93 0.43,-1.3 0.25,-0.37 0.58,-0.67 0.99,-0.9 0.41,-0.23 0.84,-0.35 1.3,-0.35 0.49,0 1,0.12 1.49,0.37 0.49,0.25 0.96,0.66 1.42,1.24l0.07 0.06c0.16,0.29 0.4,0.74 0.71,1.33 0.31,0.6 0.65,1.19 1.02,1.79 0.37,0.6 0.76,1.13 1.15,1.6 0.39,0.48 0.71,0.74 0.96,0.77 0.41,-0.58 0.74,-1.37 0.99,-2.38 0.25,-1.01 0.43,-1.9 0.55,-2.69 0,-0.08 0.01,-0.16 0.04,-0.22 0.02,-0.07 0.03,-0.13 0.03,-0.21 0.21,-1.48 0.35,-2.97 0.43,-4.45 0.08,-1.48 0.13,-2.95 0.13,-4.39 0,-1.24 -0.02,-2.46 -0.07,-3.68 -0.05,-1.22 -0.08,-2.43 -0.12,-3.62 0.12,-0.66 0.35,-1.18 0.68,-1.55 0.33,-0.37 0.85,-0.68 1.55,-0.92 1.19,-0.17 2.43,-0.27 3.7,-0.32 1.28,-0.04 2.52,-0.09 3.71,-0.18 1.19,-0.08 2.39,-0.16 3.59,-0.22 1.19,-0.07 2.39,-0.2 3.58,-0.4 0.99,-0.04 1.75,0.12 2.29,0.47 0.54,0.35 0.95,0.93 1.24,1.76l0 12.56c0,2.06 0.01,4.11 0.03,6.15 0.03,2.04 0.04,4.12 0.04,6.22 -0.08,0.99 -0.43,1.73 -1.03,2.22 -0.6,0.49 -1.25,0.75 -1.95,0.75 -0.7,0 -1.34,-0.22 -1.94,-0.68 -0.61,-0.46 -0.94,-1.16 -1.03,-2.1l0 -11.01c0,-1.86 -0.01,-3.67 -0.03,-5.42 -0.02,-1.74 -0.03,-3.56 -0.03,-5.41l-8.41 0.75c0,0.29 0.01,0.59 0.03,0.9 0.03,0.31 0.04,0.59 0.04,0.83 0,0.7 0.01,1.43 0.03,2.17 0.02,0.74 0.03,1.48 0.03,2.22 0,2.47 -0.14,4.97 -0.43,7.48 -0.29,2.52 -0.91,4.83 -1.86,6.93 -0.66,1.32 -1.46,2.28 -2.42,2.87 -0.94,0.6 -1.98,0.9 -3.09,0.9 -1.11,0 -2.21,-0.28 -3.28,-0.83 -1.07,-0.56 -2.06,-1.35 -2.97,-2.38 -0.49,-0.63 -0.94,-1.27 -1.36,-1.95 -0.41,-0.68 -0.82,-1.37 -1.23,-2.07l-0.63 -1.18zm49.04 -12.56c0.12,-0.05 0.47,-0.17 1.03,-0.37 0.55,-0.21 1.14,-0.41 1.76,-0.62 0.62,-0.21 1.18,-0.41 1.67,-0.63 0.49,-0.21 0.76,-0.33 0.8,-0.36 -0.21,-1.24 -0.53,-2.23 -0.99,-2.98 -0.49,-0.57 -1.14,-0.86 -1.92,-0.86 -0.83,0 -1.69,0.19 -2.59,0.55 -0.9,0.37 -1.61,0.77 -2.11,1.18 -0.46,0.29 -0.92,0.65 -1.42,1.08 -0.49,0.44 -1.1,0.96 -1.8,1.58 -0.41,0.25 -0.79,0.41 -1.14,0.49 -0.35,0.08 -0.7,0.13 -1.03,0.13 -0.82,0 -1.49,-0.22 -2.01,-0.68 -0.51,-0.46 -0.77,-1.05 -0.77,-1.8 0,-0.62 0.17,-1.19 0.49,-1.73 0.83,-0.74 1.68,-1.47 2.57,-2.2 0.89,-0.72 1.83,-1.37 2.82,-1.94 0.7,-0.46 1.46,-0.85 2.29,-1.18 0.83,-0.33 1.65,-0.56 2.47,-0.68 0.58,-0.08 1.21,-0.13 1.89,-0.13 0.68,0 1.29,0.05 1.82,0.13 2.3,0.46 4.01,1.44 5.1,2.94 1.09,1.5 1.81,3.28 2.14,5.35 0.21,1.32 0.32,2.67 0.34,4.05 0.03,1.38 0.04,2.75 0.04,4.11l0 1.31c0,0.91 0.01,1.73 0.03,2.47 0.02,0.74 0.12,1.44 0.31,2.1 0.19,0.66 0.49,1.29 0.9,1.88 0.42,0.6 1.02,1.23 1.8,1.89 0.53,0.66 0.8,1.33 0.8,2.03 0,1.04 -0.47,1.77 -1.39,2.23 -0.93,0.46 -2.03,0.39 -3.31,-0.19 -0.87,-0.7 -1.58,-1.36 -2.14,-1.98 -0.55,-0.62 -1.02,-1.26 -1.39,-1.92 -1.65,1.82 -3.54,3.37 -5.66,4.65 -2.12,1.28 -4.29,1.91 -6.52,1.91 -1.19,0 -2.31,-0.41 -3.37,-1.23 -1.05,-0.83 -1.91,-1.82 -2.58,-2.98 -1.03,-1.86 -1.54,-3.82 -1.54,-5.9 0,-2.08 0.72,-4.05 2.16,-5.91 1.32,-1.48 2.92,-2.65 4.8,-3.5 1.88,-0.84 3.76,-1.61 5.65,-2.31zm5.45 5.69c0,-0.37 0.01,-0.66 0.03,-0.87 0.02,-0.21 0.03,-0.53 0.03,-0.99 -0.53,0.21 -1.07,0.4 -1.6,0.59 -0.53,0.19 -1.07,0.38 -1.61,0.59 -0.66,0.25 -1.51,0.56 -2.57,0.92 -1.05,0.37 -2.07,0.85 -3.06,1.43 -0.99,0.58 -1.82,1.25 -2.5,2.01 -0.68,0.77 -0.98,1.64 -0.9,2.63 0.08,0.74 0.26,1.49 0.55,2.26 0.29,0.76 1,1.44 2.11,2.01 0.36,0.08 0.97,-0.17 1.82,-0.75 0.85,-0.58 1.76,-1.3 2.75,-2.16 0.99,-0.87 1.95,-1.79 2.87,-2.78 0.93,-1 1.62,-1.88 2.08,-2.67l0 -2.22zm20.4 14.04c-0.25,0.74 -0.64,1.29 -1.18,1.63 -0.53,0.35 -1.11,0.53 -1.74,0.53 -0.66,0 -1.29,-0.22 -1.88,-0.68 -0.6,-0.46 -0.93,-1.16 -1.02,-2.11 0.21,-2.18 0.35,-4.36 0.46,-6.52 0.1,-2.16 0.2,-4.34 0.28,-6.52 0.08,-2.02 0.17,-4.03 0.25,-6.04 0.08,-2 0.21,-4 0.36,-6.03 0.17,-0.78 0.52,-1.38 1.05,-1.8 0.53,-0.41 1.16,-0.62 1.86,-0.62 1.07,0 1.96,0.48 2.66,1.43 1.24,2.1 2.45,4.21 3.65,6.31 1.2,2.1 2.38,4.21 3.53,6.31 0.58,1.04 1.07,1.95 1.48,2.75 0.42,0.8 0.91,1.72 1.48,2.75l6.25 -10.82c0.21,-0.37 0.44,-0.79 0.71,-1.27 0.27,-0.48 0.5,-0.88 0.72,-1.2 0.45,-0.78 0.89,-1.56 1.32,-2.32 0.44,-0.76 1.03,-1.68 1.76,-2.75 0.37,-0.33 0.77,-0.57 1.2,-0.71 0.44,-0.14 0.82,-0.21 1.15,-0.21 0.7,0 1.32,0.2 1.83,0.59 0.51,0.39 0.89,0.96 1.14,1.7 0.17,2.06 0.29,4.23 0.37,6.49l0 2.16c0.05,0.95 0.07,1.91 0.09,2.87 0.02,0.97 0.07,1.95 0.15,2.94 0.08,1.74 0.17,3.43 0.25,5.1 0.08,1.67 0.12,3.38 0.12,5.1 -0.08,0.99 -0.41,1.74 -0.99,2.23 -0.58,0.49 -1.24,0.75 -1.98,0.75 -0.66,0 -1.3,-0.22 -1.91,-0.68 -0.63,-0.46 -0.97,-1.16 -1.05,-2.11 0,-2.02 -0.06,-4.04 -0.16,-6.06 -0.1,-2.02 -0.2,-4.03 -0.28,-6.05l-0.12 -2.47 -2.1 3.89c-0.83,1.48 -1.72,3.05 -2.66,4.7 -0.95,1.65 -2.15,3.55 -3.59,5.69 -0.53,0.58 -1.3,0.87 -2.29,0.87 -0.46,0 -0.88,-0.08 -1.27,-0.25 -0.39,-0.16 -0.81,-0.47 -1.27,-0.92l-3.46 -6.31c-0.42,-0.75 -0.8,-1.43 -1.15,-2.04 -0.35,-0.63 -0.68,-1.22 -0.99,-1.79 -0.31,-0.58 -0.64,-1.18 -0.99,-1.8 -0.35,-0.62 -0.73,-1.32 -1.15,-2.1 0,0.33 -0.01,0.65 -0.03,0.96 -0.02,0.31 -0.03,0.63 -0.03,0.95 -0.08,2.27 -0.2,4.52 -0.32,6.74 -0.12,2.23 -0.28,4.45 -0.49,6.68l-0.06 0.07zm34.26 -26.72c0.17,-0.83 0.53,-1.45 1.08,-1.86 0.56,-0.42 1.17,-0.63 1.83,-0.63 0.62,0 1.22,0.19 1.82,0.56 0.61,0.37 1.03,0.95 1.27,1.74 0,1.57 0,3.04 0,4.42 0,1.38 -0.01,2.76 -0.03,4.14 -0.02,1.38 -0.04,2.77 -0.07,4.18 -0.02,1.4 -0.03,2.88 -0.03,4.45l4.51 -6.37 8.6 -12c0.36,-0.33 0.76,-0.56 1.18,-0.68 0.41,-0.12 0.8,-0.19 1.18,-0.19 0.7,0 1.31,0.19 1.82,0.56 0.51,0.36 0.88,0.92 1.08,1.67l0 26.35c-0.08,1.04 -0.41,1.79 -0.99,2.29 -0.58,0.49 -1.24,0.75 -1.98,0.75 -0.66,0 -1.3,-0.23 -1.92,-0.71 -0.62,-0.48 -0.96,-1.19 -1.04,-2.14l0 -17.01 -0.44 0.49c-2.06,2.81 -4.12,5.65 -6.18,8.54 -2.06,2.88 -4.12,5.88 -6.19,8.97 -0.74,0.87 -1.62,1.3 -2.66,1.3 -0.74,0 -1.4,-0.23 -1.98,-0.71 -0.58,-0.48 -0.91,-1.15 -0.99,-2.02 0.05,-4.37 0.07,-8.7 0.09,-13.01 0.02,-4.31 0.03,-8.65 0.03,-13.02l0 -0.06z"/>
  </g>
 </g>
</svg>
