<?xml version="1.0" encoding="UTF-8"?>
<!DOCTYPE svg PUBLIC "-//W3C//DTD SVG 1.1//EN" "http://www.w3.org/Graphics/SVG/1.1/DTD/svg11.dtd">
<!-- Creator: CorelDRAW (Evaluation Version) -->
<svg xmlns="http://www.w3.org/2000/svg" xml:space="preserve" width="55.7139mm" height="31.707mm" version="1.1" style="shape-rendering:geometricPrecision; text-rendering:geometricPrecision; image-rendering:optimizeQuality; fill-rule:evenodd; clip-rule:evenodd"
viewBox="0 0 444.69 253.07"
 xmlns:xlink="http://www.w3.org/1999/xlink"
 xmlns:xodm="http://www.corel.com/coreldraw/odm/2003">
 <defs>
  <style type="text/css">
   <![CDATA[
    .str2 {stroke:#2B2B2A;stroke-width:0.84;stroke-miterlimit:22.9256}
    .str3 {stroke:#2B2B2A;stroke-width:0.84;stroke-miterlimit:22.9256}
    .str1 {stroke:#2B2B2A;stroke-width:1.41;stroke-miterlimit:22.9256}
    .str0 {stroke:#2B2B2A;stroke-width:1.41;stroke-linejoin:bevel;stroke-miterlimit:22.9256}
    .fil1 {fill:#2B2B2A}
    .fil0 {fill:#FFEE00}
    .fil2 {fill:#1F1C21}
    .fil3 {fill:#FFEE00;fill-rule:nonzero}
   ]]>
  </style>
 </defs>
 <g id="Layer_x0020_1">
  <metadata id="CorelCorpID_0Corel-Layer"/>
  <g id="_105828795539264">
   <g>
    <polygon class="fil0 str0" points="311.57,146.44 347.46,176.72 347.79,224.45 311.9,194.16 "/>
    <polygon class="fil0 str0" points="311.9,194.16 347.79,224.45 297.09,246.81 261.2,216.53 "/>
   </g>
   <polygon class="fil0 str1" points="311.57,146.44 311.9,194.16 261.2,216.53 261.7,169.35 "/>
   <path class="fil0" d="M54.49 153.86l-4.8 1.6c-2.4,0.8 -4.74,1.8 -6.96,3.02 -1.59,0.87 -2.88,2.17 -3.95,3.62 -1.17,1.58 -1.68,3.48 -1.83,5.42l0 85.55 -36.95 0 0 -208.42c0,-3.76 0.69,-7.64 1.41,-11.33 1.14,-5.82 4.14,-10.99 7.95,-15.47 4.88,-5.74 11.74,-9.75 18.6,-12.68 9.97,-4.25 22.28,-5.18 33.04,-5.18 10.75,0 23.07,0.93 33.04,5.18 6.86,2.92 13.73,6.94 18.6,12.68 3.81,4.48 6.81,9.65 7.95,15.47 0.72,3.69 1.41,7.57 1.41,11.33l0 55.7c0,8.1 -2.28,15.65 -6.45,22.57 -4.25,7.04 -10.86,11.96 -18.16,15.45l40.04 114.7 -39.13 0 -28.88 -82.91c-2.24,-6.85 -5.46,-18.02 -14.93,-16.3zm-17.54 -31.23c0.57,-0.21 1.14,-0.42 1.71,-0.63 3.19,-1.18 6.41,-2.3 9.64,-3.38 3.31,-1.1 6.61,-2.26 9.88,-3.46 3.03,-1.11 6.07,-2.19 9.13,-3.21 1.33,-0.44 2.67,-0.89 4,-1.34 1.17,-0.39 2.33,-0.81 3.57,-1.3 3.07,-1.11 6.94,-3 8.4,-6.12 1.04,-2.23 2.1,-5.03 2.1,-7.51l0 -46.03c0,-1.79 -0.35,-3.6 -0.84,-5.32 -0.51,-1.79 -1.66,-3.3 -2.99,-4.56 -2.03,-1.92 -4.83,-3.29 -7.42,-4.28 -4.14,-1.58 -9.41,-1.88 -13.81,-1.88 -4.16,0 -9.03,0.33 -12.93,1.87 -2.49,0.98 -5.08,2.37 -6.88,4.38 -1.27,1.41 -2.4,3.09 -2.84,4.96 -0.43,1.8 -0.72,3.66 -0.72,5.51l0 72.31z"/>
   <path class="fil1" d="M53.77 151.08l-4.99 1.66c-2.57,0.86 -5.06,1.93 -7.43,3.23 -1.96,1.08 -3.56,2.64 -4.87,4.43 -1.53,2.08 -2.21,4.52 -2.39,7.01l0 82.79 -31.22 0 0 -205.55c0,-3.48 0.7,-7.37 1.36,-10.78 1.04,-5.33 3.84,-10.06 7.32,-14.16 4.57,-5.37 11.12,-9.16 17.54,-11.9 9.54,-4.07 21.65,-4.95 31.91,-4.95 10.26,0 22.37,0.88 31.91,4.95 6.42,2.74 12.97,6.52 17.54,11.9 3.48,4.1 6.28,8.83 7.32,14.16 0.66,3.41 1.36,7.3 1.36,10.78l0 55.7c0,7.58 -2.14,14.61 -6.04,21.09 -4.39,7.28 -11.59,12.11 -19.27,15.41l39.57 113.36 -33.06 0 -28.19 -80.93c-1.75,-5.35 -5.69,-20.68 -18.38,-18.19zm-19.68 -24.38c1.87,-0.65 3.72,-1.32 5.57,-2.01 3.16,-1.17 6.35,-2.28 9.55,-3.35 3.34,-1.11 6.66,-2.28 9.97,-3.49 3,-1.1 6.01,-2.17 9.04,-3.18 1.33,-0.44 2.67,-0.89 4,-1.34 1.21,-0.4 2.41,-0.83 3.64,-1.32 3.88,-1.4 8.19,-3.69 10.03,-7.6 1.23,-2.64 2.37,-5.78 2.37,-8.73l0 -46.03c0,-2.06 -0.38,-4.13 -0.95,-6.11 -0.66,-2.3 -2.06,-4.23 -3.78,-5.86 -2.31,-2.19 -5.41,-3.74 -8.36,-4.87 -4.47,-1.71 -10.08,-2.07 -14.83,-2.07 -4.53,0 -9.73,0.39 -13.98,2.07 -2.92,1.15 -5.84,2.77 -7.97,5.13 -1.6,1.78 -2.95,3.86 -3.5,6.21 -0.48,2.01 -0.8,4.1 -0.8,6.17l0 76.38z"/>
   <g>
    <polygon class="fil2" points="407.65,203.79 391.81,247.63 370.62,247.63 390.25,193.05 370.62,138.48 391.81,138.48 407.65,182.31 423.5,138.48 444.69,138.48 425.06,193.05 444.69,247.63 423.5,247.63 "/>
   </g>
   <polygon class="fil3" points="407.65,199.1 407.74,199.06 407.57,199.06 407.65,199.1 424.62,246.03 442.42,246.03 423.36,193.05 422.82,192.85 422.82,193.26 423.36,193.05 442.42,140.07 424.62,140.07 407.65,187.01 390.69,140.07 372.89,140.07 391.95,193.05 392.66,193.33 392.66,192.78 391.95,193.05 372.89,246.03 390.69,246.03 "/>
   <g>
    <path class="fil2 str2" d="M176.85 136.78c13.59,-7.95 26.38,-9.02 40.64,-1.48 5.16,2.87 9.9,6.69 13.07,11.73 3.13,4.97 4.61,10.44 4.61,16.31l0 57.57c0,3.86 -0.73,7.6 -2.25,11.14 -1.59,3.68 -4.12,6.71 -7.26,9.18 -3.66,2.88 -8.03,4.81 -12.47,6.13 -5.74,1.7 -12,2.22 -17.96,2.22 -9.98,0 -22.21,-1.4 -30.11,-8.14 -6.25,-5.32 -9.67,-12.05 -9.83,-20.29l0 -141.95 21.17 0 0 34.4 0.39 23.18zm37.38 32.89l-0.25 0 0.03 -0.82c0.72,-22.64 -39.18,-22.99 -37.55,0.03l0 48.66c0,1.53 0.35,3.06 0.87,4.49 0.61,1.67 1.63,3.09 2.91,4.3 1.57,1.49 3.65,2.48 5.69,3.16 2.91,0.97 6.25,1.23 9.3,1.23 4.71,0 11.28,-0.6 14.73,-4.24 2.66,-2.8 4.12,-6.09 4.27,-9.93l0 -46.86z"/>
   </g>
   <path class="fil3 str3" d="M215.03 168.87l-0.23 0c0.76,-23.8 -40.85,-24.08 -39.14,0l0 48.81 0 -0.23c0,1.53 0.31,3.15 0.92,4.84 0.61,1.69 1.65,3.22 3.11,4.61 1.46,1.38 3.45,2.5 5.99,3.34 2.53,0.84 5.72,1.27 9.56,1.27 7.37,0 12.47,-1.5 15.31,-4.49 2.84,-2.99 4.34,-6.49 4.49,-10.48l0 -47.66zm19.34 46.51l0 5.53c0,3.84 -0.73,7.44 -2.19,10.82 -1.46,3.38 -3.8,6.33 -7.02,8.87 -3.22,2.53 -7.29,4.53 -12.2,5.99 -4.91,1.46 -10.82,2.19 -17.73,2.19 -13.51,0 -23.37,-2.65 -29.59,-7.94 -6.22,-5.3 -9.4,-11.86 -9.55,-19.69l0 -141.15 19.57 0 0 29.47 0 4.14 0.42 24.56c14.73,-9.02 27.46,-9.35 41.03,-2.17 5.28,2.93 9.79,6.7 12.78,11.46 2.99,4.76 4.49,10.06 4.49,15.89l0 5.53 0 46.51z"/>
  </g>
 </g>
</svg>
