<svg xmlns="http://www.w3.org/2000/svg" width="210.572" height="176.395" viewBox="0 0 595.33 498.71" shape-rendering="geometricPrecision" text-rendering="geometricPrecision" image-rendering="optimizeQuality" fill-rule="evenodd" clip-rule="evenodd">
    <defs>
        <style>
            .str0{stroke:#2b2b2a;stroke-width:1.88;stroke-linejoin:bevel;stroke-miterlimit:22.9256}.fil0{fill:#fe0}.fil2{fill:#1f1c21}.fil3,.fil4{fill:#2b2b2a;fill-rule:nonzero}.fil3{fill:#fe0}
        </style>
    </defs>
    <g id="Layer_x0020_1">
        <g id="_105553917570336">
            <path class="fil0 str0" d="M417.12 196.04l48.04 40.55.44 63.89-48.04-40.54z"/>
            <path class="fil0 str0" d="M417.56 259.94l48.04 40.54-67.87 29.94-48.04-40.54z"/>
            <path class="fil0" stroke="#2b2b2a" stroke-width="1.88" stroke-miterlimit="22.926" d="M417.12 196.04l.44 63.9-67.87 29.94.66-63.17z"/>
            <path class="fil0" d="M72.95 205.99l-6.43 2.14a55.32 55.32 0 00-9.31 4.05c-2.12 1.17-3.86 2.91-5.29 4.84-1.56 2.12-2.25 4.66-2.45 7.26v114.53H0V59.79c0-5.04.93-10.23 1.89-15.17 1.52-7.79 5.54-14.71 10.64-20.71 6.53-7.68 15.72-13.06 24.9-16.97C50.78 1.25 67.26 0 81.66 0c14.4 0 30.88 1.24 44.23 6.94 9.18 3.91 18.37 9.29 24.9 16.97 5.1 5.99 9.12 12.92 10.64 20.71.96 4.94 1.89 10.13 1.89 15.17v74.57c0 10.84-3.05 20.95-8.64 30.21-5.68 9.42-14.54 16.01-24.31 20.69l53.61 153.55h-52.39L92.93 227.82c-3-9.17-7.31-24.12-19.99-21.83zm-23.48-41.81c.76-.28 1.53-.56 2.29-.84 4.28-1.58 8.58-3.08 12.91-4.53 4.43-1.48 8.85-3.02 13.23-4.63 4.05-1.49 8.12-2.93 12.22-4.3 1.78-.6 3.57-1.19 5.35-1.79 1.57-.52 3.13-1.08 4.79-1.74 4.12-1.48 9.29-4.02 11.25-8.19 1.4-2.98 2.8-6.73 2.8-10.06V66.48c0-2.4-.46-4.82-1.12-7.13-.68-2.39-2.22-4.42-4-6.11-2.71-2.57-6.46-4.4-9.93-5.72C93.72 45.4 86.67 45 80.78 45c-5.57 0-12.09.44-17.31 2.5-3.33 1.31-6.8 3.17-9.22 5.86-1.7 1.89-3.22 4.14-3.81 6.63-.57 2.4-.96 4.9-.96 7.37v96.8z"/>
            <path d="M71.98 202.26l-6.68 2.23a60.954 60.954 0 00-9.95 4.32c-2.62 1.44-4.76 3.54-6.52 5.93-2.05 2.78-2.96 6.05-3.2 9.39v110.83H3.84V59.78c0-4.66.93-9.87 1.82-14.43 1.39-7.13 5.13-13.47 9.8-18.96 6.12-7.19 14.89-12.26 23.48-15.93 12.77-5.45 28.99-6.63 42.72-6.63 13.74 0 29.95 1.18 42.72 6.63 8.59 3.66 17.37 8.73 23.48 15.93 4.66 5.48 8.41 11.83 9.8 18.96.89 4.56 1.82 9.78 1.82 14.43v74.57c0 10.15-2.86 19.56-8.09 28.23-5.88 9.75-15.52 16.22-25.8 20.63l52.98 151.76h-44.25L96.58 226.62c-2.34-7.16-7.62-27.68-24.6-24.36zm-26.35-32.64c2.5-.87 4.98-1.77 7.46-2.69 4.23-1.57 8.5-3.06 12.79-4.49 4.47-1.49 8.92-3.05 13.34-4.67 4.02-1.47 8.05-2.91 12.11-4.26 1.79-.6 3.57-1.19 5.36-1.79 1.62-.54 3.22-1.11 4.87-1.77 5.19-1.87 10.97-4.94 13.42-10.17 1.65-3.53 3.17-7.74 3.17-11.69V66.47c0-2.76-.51-5.53-1.27-8.18-.88-3.07-2.75-5.66-5.05-7.84-3.1-2.94-7.24-5.01-11.2-6.52-5.99-2.29-13.5-2.77-19.85-2.77-6.06 0-13.03.53-18.72 2.77-3.91 1.54-7.82 3.71-10.66 6.87-2.14 2.38-3.94 5.16-4.69 8.31-.64 2.69-1.07 5.49-1.07 8.26v102.25z" fill="#2b2b2a"/>
            <path class="fil2" d="M545.75 272.83l-21.21 58.69h-28.37l26.28-73.07-26.28-73.06h28.37l21.21 58.68 21.21-58.68h28.37l-26.28 73.06 26.28 73.07h-28.37z"/>
            <path class="fil3" d="M545.75 266.54l.11-.04h-.22l.11.04 22.71 62.84h23.83l-25.51-70.93-.72-.27v.55l.72-.28 25.51-70.92h-23.83l-22.71 62.83-22.71-62.83h-23.83l25.51 70.92.95.37v-.73l-.95.36-25.51 70.93h23.83z"/>
            <path class="fil2" d="M236.76 183.11c18.2-10.65 35.32-12.08 54.41-1.98 6.91 3.84 13.25 8.96 17.49 15.71 4.19 6.65 6.18 13.98 6.18 21.84v77.07c0 5.16-.97 10.17-3.02 14.91-2.13 4.93-5.52 8.98-9.72 12.29-4.9 3.85-10.75 6.43-16.69 8.2-7.68 2.28-16.06 2.97-24.04 2.97-13.36 0-29.73-1.88-40.31-10.89-8.37-7.13-12.95-16.13-13.17-27.17V106.03h28.34v46.06l.53 31.03zm50.05 44.04h-.34l.04-1.1c.96-30.31-52.45-30.78-50.27.03v65.14c0 2.05.47 4.09 1.17 6.01.81 2.23 2.18 4.13 3.89 5.76 2.11 2 4.89 3.32 7.62 4.23 3.9 1.3 8.37 1.64 12.46 1.64 6.3 0 15.1-.8 19.73-5.68 3.56-3.75 5.52-8.15 5.72-13.3v-62.73z" stroke="#2b2b2a" stroke-width="1.13" stroke-miterlimit="22.926"/>
            <path class="fil3" d="M287.88 226.08h-.31c1.02-31.86-54.69-32.24-52.4 0v65.35-.31c0 2.05.41 4.21 1.23 6.47.82 2.26 2.21 4.31 4.16 6.17 1.95 1.85 4.62 3.34 8.01 4.47 3.39 1.13 7.66 1.7 12.79 1.7 9.86 0 16.7-2 20.5-6.01 3.8-4.01 5.8-8.68 6.01-14.02v-63.81zm25.9 62.27v7.4c0 5.14-.98 9.97-2.93 14.49-1.95 4.52-5.09 8.48-9.4 11.87-4.31 3.39-9.76 6.06-16.34 8.02-6.58 1.95-14.49 2.93-23.74 2.93-18.08 0-31.29-3.55-39.61-10.64-8.32-7.09-12.59-15.88-12.79-26.36V107.09h26.2v45.01l.56 32.88c19.72-12.08 36.76-12.52 54.93-2.91 7.06 3.92 13.1 8.97 17.11 15.34 4.01 6.37 6.01 13.46 6.01 21.27v69.67z" stroke="#2b2b2a" stroke-width="1.13" stroke-miterlimit="22.926"/>
        </g>
        <g id="_105553959566176">
            <path class="fil4" d="M134.98 419.53c-1.07-.08-1.86-.4-2.35-.96-.49-.55-.74-1.14-.74-1.76 0-.33.1-.72.31-1.18l-.07.13v-25.98c-.12.05-.21.06-.28.04a.668.668 0 00-.27-.04c-.87 0-1.58-.23-2.11-.71-.53-.48-.8-1.06-.8-1.76 0-.9.5-1.77 1.51-2.59 1.02-.83 2.24-1.54 3.69-2.14 1.45-.6 2.94-1.07 4.49-1.43 1.54-.35 2.86-.52 3.93-.52 1.93 0 3.68.31 5.22.92 1.54.63 2.86 1.43 3.96 2.42 1.09.99 1.93 2.08 2.51 3.27.57 1.2.86 2.36.86 3.47 0 1.45-.41 2.89-1.23 4.36-.83 1.46-1.9 2.73-3.22 3.81 1.98 1.07 3.45 2.39 4.42 3.96.97 1.57 1.46 3.2 1.46 4.89 0 1.11-.21 2.23-.65 3.34-.43 1.11-1.03 2.15-1.79 3.09-.77.95-1.66 1.8-2.69 2.54-1.04.75-2.13 1.33-3.28 1.74-1.45.46-2.98.77-4.61.92-1.63.17-3.25.25-4.85.25h-1.67c-.53 0-1.09-.02-1.67-.07h-.07zm13.12-15.4a11.97 11.97 0 00-2.91-1.33c-1.04-.31-2.13-.53-3.27-.65-.58.08-1.18.15-1.79.21-.63.07-1.26.09-1.92.09v11.69c.91 0 2.04-.05 3.4-.15 1.35-.1 2.67-.36 3.93-.77 1.26-.41 2.34-1.02 3.25-1.83.91-.8 1.36-1.9 1.36-3.3 0-.83-.17-1.58-.49-2.26-.34-.68-.85-1.25-1.55-1.71zm-9.9-7.6c.58 0 1.14.01 1.67.03.53.02 1.09.05 1.67.09.53-.05 1.21-.2 2.04-.47.82-.27 1.61-.63 2.38-1.08a7.19 7.19 0 001.95-1.67c.53-.66.8-1.42.8-2.29 0-.87-.21-1.6-.62-2.23-.42-.62-.95-1.12-1.61-1.51-.66-.39-1.38-.69-2.16-.9-.78-.21-1.57-.31-2.35-.31-1.32 0-2.58.21-3.77.62v9.71zm23.68-5.32c.17-.83.53-1.45 1.08-1.86.56-.42 1.17-.63 1.83-.63.62 0 1.22.19 1.82.56.61.37 1.03.95 1.27 1.74v4.42c0 1.38-.01 2.76-.03 4.14-.02 1.38-.04 2.77-.07 4.18-.02 1.4-.03 2.88-.03 4.45l4.51-6.37 8.6-12c.36-.33.76-.56 1.18-.68.41-.12.8-.19 1.18-.19.7 0 1.31.19 1.82.56.51.36.88.92 1.08 1.67v26.35c-.08 1.04-.41 1.79-.99 2.29-.58.49-1.24.75-1.98.75-.66 0-1.3-.23-1.92-.71-.62-.48-.96-1.19-1.04-2.14v-17.01l-.44.49c-2.06 2.81-4.12 5.65-6.18 8.54-2.06 2.88-4.12 5.88-6.19 8.97-.74.87-1.62 1.3-2.66 1.3-.74 0-1.4-.23-1.98-.71-.58-.48-.91-1.15-.99-2.02.05-4.37.07-8.7.09-13.01.02-4.31.03-8.65.03-13.02v-.06zm36.18 26.28c-.08.99-.41 1.74-.99 2.23-.57.49-1.23.75-1.98.75-.66 0-1.3-.24-1.91-.72-.63-.48-.97-1.19-1.05-2.13 0-4.34.01-8.66.03-12.96l.09-13.02c.12-.66.35-1.18.68-1.55.33-.36.85-.65 1.55-.86a29.2 29.2 0 013.27-.32c1.11-.04 2.27-.07 3.47-.12 1.19-.05 2.4-.08 3.61-.12 1.22-.05 2.43-.17 3.62-.37 1.16-.08 2.03.15 2.63.68.6.53.9 1.16.9 1.86 0 .58-.22 1.11-.68 1.6-.46.49-1.16.87-2.1 1.12-.99.16-2 .26-3.03.31-1.04.04-2.08.06-3.15.06-.83 0-1.64.01-2.44.04-.8.02-1.61.07-2.44.15 0 1.99-.01 3.94-.03 5.85-.03 1.91-.04 3.84-.04 5.78v11.75zm17.82-13.42c.08-1.45.26-2.95.55-4.51.29-1.57.79-3.07 1.49-4.52.49-.99 1.11-1.93 1.86-2.82.74-.89 1.57-1.64 2.47-2.29.91-.64 1.88-1.16 2.9-1.55 1.04-.39 2.08-.59 3.15-.59 2.15 0 4.1.77 5.88 2.29 1.98 1.82 3.43 3.94 4.37 6.37.92 2.44 1.43 4.91 1.51 7.43.05 1.69-.21 3.53-.77 5.5a19.55 19.55 0 01-2.47 5.48 14.133 14.133 0 01-4.05 4.1c-1.61 1.07-3.47 1.51-5.57 1.31-1.73-.17-3.26-.68-4.58-1.55-1.32-.87-2.49-2.02-3.52-3.46-1.2-1.74-2.01-3.55-2.42-5.45a38.25 38.25 0 01-.8-5.75zm7.29-6.62c-.87 2.06-1.31 4.3-1.33 6.72-.03 2.41.46 4.66 1.45 6.77.46.91 1.07 1.8 1.86 2.69.78.89 1.75 1.33 2.91 1.33.82 0 1.63-.35 2.44-1.03.8-.68 1.49-1.61 2.07-2.82.46-1.03.81-2.14 1.08-3.34.27-1.19.4-2.43.4-3.7 0-.99-.13-2.12-.4-3.38a17.08 17.08 0 00-1.18-3.58c-.51-1.13-1.15-2.09-1.88-2.87-.75-.78-1.57-1.18-2.47-1.18-.54 0-1.05.14-1.55.43-.49.29-.96.64-1.39 1.08-.44.44-.82.9-1.15 1.42-.33.51-.62 1-.87 1.46zm33.89 19.92c-.05.99-.36 1.74-.96 2.23s-1.27.74-2.02.74c-.66 0-1.3-.23-1.91-.71-.63-.48-.97-1.18-1.05-2.14.08-3.91.12-7.76.12-11.56V394.3c-.87.05-1.79.07-2.78.07h-2.72c-1.03-.08-1.79-.4-2.29-.96-.49-.55-.75-1.12-.75-1.7 0-.66.27-1.25.81-1.76.53-.51 1.33-.81 2.41-.9 2.72 0 5.49.01 8.29.03 2.8.02 5.68-.11 8.66-.4 1.11-.08 1.98.15 2.59.68.63.53.93 1.16.93 1.86 0 .58-.21 1.12-.65 1.63-.44.51-1.1.88-2.01 1.08-1 .12-2.02.2-3.1.22-1.07.02-2.22.03-3.46.03v11.62c0 3.83-.04 7.7-.12 11.57zm13.16-13.29c.08-1.45.26-2.95.55-4.51.29-1.57.79-3.07 1.49-4.52.49-.99 1.11-1.93 1.86-2.82.74-.89 1.57-1.64 2.47-2.29.91-.64 1.88-1.16 2.9-1.55 1.04-.39 2.08-.59 3.15-.59 2.15 0 4.1.77 5.88 2.29 1.98 1.82 3.43 3.94 4.37 6.37.92 2.44 1.43 4.91 1.51 7.43.05 1.69-.21 3.53-.77 5.5a19.55 19.55 0 01-2.47 5.48 14.133 14.133 0 01-4.05 4.1c-1.61 1.07-3.47 1.51-5.57 1.31-1.73-.17-3.26-.68-4.58-1.55-1.32-.87-2.49-2.02-3.52-3.46-1.2-1.74-2.01-3.55-2.42-5.45a38.25 38.25 0 01-.8-5.75zm7.29-6.62c-.87 2.06-1.31 4.3-1.33 6.72-.03 2.41.46 4.66 1.45 6.77.46.91 1.07 1.8 1.86 2.69.78.89 1.75 1.33 2.91 1.33.82 0 1.63-.35 2.44-1.03.8-.68 1.49-1.61 2.07-2.82.46-1.03.81-2.14 1.08-3.34.27-1.19.4-2.43.4-3.7 0-.99-.13-2.12-.4-3.38a17.08 17.08 0 00-1.18-3.58c-.51-1.13-1.15-2.09-1.88-2.87-.75-.78-1.57-1.18-2.47-1.18-.54 0-1.05.14-1.55.43-.49.29-.96.64-1.39 1.08-.44.44-.82.9-1.15 1.42-.33.51-.62 1-.87 1.46zm25.36 22.39c-.49 0-1.05-.04-1.67-.12-.62-.08-1.18-.25-1.67-.52s-.88-.63-1.15-1.08c-.27-.46-.28-1.05-.03-1.8v-25.05c.08-.46.21-.82.4-1.11.19-.29.5-.6.96-.92 1.15-.49 2.32-.95 3.52-1.36 1.2-.42 2.42-.73 3.66-.93 1.23-.21 2.48-.27 3.74-.19 1.26.08 2.52.4 3.8.93 1.73.78 3.18 1.89 4.34 3.34 1.15 1.45 1.73 3.03 1.73 4.76 0 1.32-.34 2.53-1.02 3.62-.68 1.09-1.56 2.05-2.63 2.87 1.57.91 2.78 2.05 3.65 3.43.87 1.38 1.3 2.82 1.3 4.3 0 1.19-.31 2.37-.92 3.53-.63 1.16-1.57 2.25-2.85 3.28-.95.75-2.04 1.32-3.28 1.71-1.24.39-2.54.68-3.9.87-1.36.18-2.72.3-4.09.36-1.35.07-2.65.09-3.89.09zm5.81-14.47c-.83-.08-1.58-.13-2.26-.16-.68-.02-1.37-.03-2.07-.03v9.34c.94 0 1.96.01 3.03.03 1.07.03 2.1-.03 3.09-.15.99-.12 1.89-.37 2.72-.75.82-.36 1.48-.96 1.98-1.79.62-1.04.81-1.92.59-2.66-.22-.74-.7-1.38-1.43-1.92-.72-.53-1.58-.95-2.57-1.26-.99-.31-1.94-.53-2.85-.65h-.24zm-4.33-5.5a79.993 79.993 0 014.32.12c.49-.05 1.09-.19 1.79-.43.7-.25 1.36-.57 1.98-.96a6.58 6.58 0 001.58-1.36c.44-.51.65-1.08.65-1.7 0-1.04-.42-1.83-1.27-2.38-.85-.56-1.85-.92-3-1.08-1.15-.17-2.3-.15-3.42.06-1.14.21-2.01.53-2.63.99v6.74zm20.9 10.89c-.29-.53-.41-1.05-.36-1.55.04-.49.18-.93.43-1.3s.58-.67.99-.9c.41-.23.84-.35 1.3-.35.49 0 1 .12 1.49.37s.96.66 1.42 1.24l.07.06c.16.29.4.74.71 1.33.31.6.65 1.19 1.02 1.79.37.6.76 1.13 1.15 1.6.39.48.71.74.96.77.41-.58.74-1.37.99-2.38.25-1.01.43-1.9.55-2.69 0-.08.01-.16.04-.22a.71.71 0 00.03-.21c.21-1.48.35-2.97.43-4.45.08-1.48.13-2.95.13-4.39 0-1.24-.02-2.46-.07-3.68-.05-1.22-.08-2.43-.12-3.62.12-.66.35-1.18.68-1.55.33-.37.85-.68 1.55-.92 1.19-.17 2.43-.27 3.7-.32 1.28-.04 2.52-.09 3.71-.18 1.19-.08 2.39-.16 3.59-.22 1.19-.07 2.39-.2 3.58-.4.99-.04 1.75.12 2.29.47s.95.93 1.24 1.76v12.56c0 2.06.01 4.11.03 6.15.03 2.04.04 4.12.04 6.22-.08.99-.43 1.73-1.03 2.22-.6.49-1.25.75-1.95.75s-1.34-.22-1.94-.68c-.61-.46-.94-1.16-1.03-2.1v-11.01c0-1.86-.01-3.67-.03-5.42-.02-1.74-.03-3.56-.03-5.41l-8.41.75c0 .29.01.59.03.9.03.31.04.59.04.83 0 .7.01 1.43.03 2.17.02.74.03 1.48.03 2.22 0 2.47-.14 4.97-.43 7.48-.29 2.52-.91 4.83-1.86 6.93-.66 1.32-1.46 2.28-2.42 2.87-.94.6-1.98.9-3.09.9-1.11 0-2.21-.28-3.28-.83-1.07-.56-2.06-1.35-2.97-2.38-.49-.63-.94-1.27-1.36-1.95-.41-.68-.82-1.37-1.23-2.07l-.63-1.18zm60.8-9.1c-.66 1.36-1.67 2.51-3.03 3.43-1.36.92-2.86 1.7-4.52 2.32-1.65.62-3.35 1.1-5.1 1.46-1.75.35-3.35.63-4.79.83a9.547 9.547 0 003.53 4.14c1.57 1.04 3.44 1.45 5.63 1.24 1.32-.21 2.58-.55 3.78-1.03 1.19-.48 2.44-1.06 3.71-1.76.66-.29 1.28-.41 1.86-.36.57.04 1.07.17 1.51.4.44.22.77.53.99.92.23.39.35.79.35 1.21 0 .99-.62 1.86-1.86 2.59-1.69.91-3.6 1.72-5.73 2.42-2.12.7-4.27 1.05-6.46 1.05-1.36 0-2.67-.18-3.93-.52-1.26-.35-2.43-.93-3.5-1.76-2.27-1.74-3.97-3.86-5.1-6.37-1.13-2.51-1.7-5.11-1.7-7.79 0-1.48.18-2.94.52-4.37.35-1.42.88-2.76 1.58-4.02.7-1.26 1.58-2.42 2.63-3.49 1.05-1.07 2.3-1.99 3.74-2.72 1.69-.78 3.63-1.18 5.81-1.18 1.94 0 3.76.32 5.45.96 1.69.64 3.05 1.55 4.1 2.72 1.05 1.18 1.68 2.58 1.86 4.2.19 1.63-.25 3.45-1.33 5.48zm-18.06-.74c-.17.62-.29 1.21-.37 1.79-.08.58-.1 1.16-.06 1.73.08 0 .21-.02.4-.06.18-.05.32-.07.4-.07 1.11-.16 2.25-.33 3.4-.49 1.16-.16 2.27-.41 3.34-.74 1.07-.33 2.1-.79 3.07-1.4.96-.6 1.82-1.46 2.57-2.57.7-1.03.92-1.93.68-2.71-.25-.78-.74-1.42-1.46-1.89-.72-.48-1.58-.79-2.57-.95-.99-.17-1.88-.17-2.66 0-.95.16-1.8.51-2.54 1.05-.75.54-1.41 1.18-1.98 1.89-.58.72-1.05 1.47-1.43 2.26-.37.77-.64 1.5-.8 2.16zm27.39-10.27c.17-.83.52-1.45 1.05-1.86.53-.41 1.16-.62 1.86-.62.62 0 1.21.2 1.79.59.58.39.99.96 1.24 1.7 0 .95-.01 1.88-.04 2.78-.02.91-.03 1.82-.03 2.72v4.95c.7-.08 1.4-.16 2.1-.22.7-.07 1.41-.13 2.11-.21.82-.08 1.55-.16 2.19-.24.64-.08 1.37-.2 2.19-.32v-1.63-1.92c0-.72.01-1.57.04-2.54.02-.96.03-2.13.03-3.49 0-.7.32-1.3.96-1.79.64-.49 1.31-.75 2.01-.75.21 0 .47.04.77.12.31.08.63.22.93.4.31.19.58.44.83.75s.39.67.44 1.08V399.31c0 1.19.01 2.3.03 3.31.02 1.01.03 1.99.03 2.94.05 1.93.07 3.86.09 5.78.02 1.91.03 3.84.03 5.78-.08.99-.42 1.73-1.02 2.22-.6.49-1.25.75-1.95.75s-1.35-.22-1.95-.68c-.6-.46-.93-1.16-1.02-2.11v-5.01c0-1.32-.01-2.41-.03-3.27-.03-.87-.04-1.58-.04-2.14v-1.58c-1.48.21-2.92.39-4.33.56-1.4.16-2.85.35-4.33.56-.04 2.06-.05 4.05-.03 5.96.02 1.92.01 3.75-.03 5.48 0 .37-.11.68-.35.93-.22.24-.5.44-.83.59-.33.14-.67.23-1.03.27-.35.05-.64.07-.9.07-.7 0-1.33-.21-1.86-.62-.53-.42-.89-1.04-1.05-1.86v-13.42c0-2.18.01-4.36.04-6.52.02-2.16.03-4.36.03-6.59v-.07zm27.76 0c.17-.83.52-1.45 1.05-1.86.53-.41 1.16-.62 1.86-.62.62 0 1.21.2 1.79.59.58.39.99.96 1.24 1.7 0 .95-.01 1.88-.04 2.78-.02.91-.03 1.82-.03 2.72v4.95c.7-.08 1.4-.16 2.1-.22.7-.07 1.41-.13 2.11-.21.82-.08 1.55-.16 2.19-.24.64-.08 1.37-.2 2.19-.32v-1.63-1.92c0-.72.01-1.57.04-2.54.02-.96.03-2.13.03-3.49 0-.7.32-1.3.96-1.79.64-.49 1.31-.75 2.01-.75.21 0 .47.04.77.12.31.08.63.22.93.4.31.19.58.44.83.75s.39.67.44 1.08V399.31c0 1.19.01 2.3.03 3.31.02 1.01.03 1.99.03 2.94.05 1.93.07 3.86.09 5.78.02 1.91.03 3.84.03 5.78-.08.99-.42 1.73-1.02 2.22-.6.49-1.25.75-1.95.75s-1.35-.22-1.95-.68c-.6-.46-.93-1.16-1.02-2.11v-5.01c0-1.32-.01-2.41-.03-3.27-.03-.87-.04-1.58-.04-2.14v-1.58c-1.48.21-2.92.39-4.33.56-1.4.16-2.85.35-4.33.56-.04 2.06-.05 4.05-.03 5.96.02 1.92.01 3.75-.03 5.48 0 .37-.11.68-.35.93-.22.24-.5.44-.83.59-.33.14-.67.23-1.03.27-.35.05-.64.07-.9.07-.7 0-1.33-.21-1.86-.62-.53-.42-.89-1.04-1.05-1.86v-13.42c0-2.18.01-4.36.04-6.52.02-2.16.03-4.36.03-6.59v-.07zm25.85 25.17c1.23-1.35 2.29-2.51 3.18-3.46.89-.94 1.66-1.77 2.32-2.47.66-.7 1.26-1.33 1.79-1.88.53-.56 1.07-1.08 1.6-1.58a13.76 13.76 0 01-3.43-1.8 14.12 14.12 0 01-2.87-2.75 11.49 11.49 0 01-1.88-3.4c-.44-1.22-.55-2.49-.35-3.81.21-1.11.64-2.1 1.31-2.97.66-.87 1.46-1.6 2.38-2.16.92-.58 1.95-.97 3.06-1.18 1.11-.21 2.25-.22 3.41-.07.7.12 1.5.36 2.41.71.91.35 1.65.65 2.23.9.53-.53 1.21-.8 2.04-.8.66 0 1.28.18 1.86.53.57.35.96.91 1.17 1.7v25.73c-.08.99-.41 1.74-.99 2.23-.57.49-1.23.74-1.98.74-.66 0-1.3-.22-1.91-.68-.63-.46-.97-1.16-1.05-2.1v-8.11c-2.02 2.1-3.78 3.95-5.26 5.54-1.48 1.59-2.97 3.16-4.45 4.73-.46.29-.87.49-1.23.59-.37.1-.73.15-1.05.15-.83 0-1.51-.23-2.04-.71s-.8-1.08-.8-1.82c0-.25.04-.53.12-.84.08-.31.22-.63.44-.96zm6.12-18.92c.78 1.57 1.94 2.78 3.46 3.65 1.52.87 3.09 1.46 4.7 1.79v-6.31c-.83-.66-1.44-1.11-1.83-1.36a7.87 7.87 0 00-1.33-.68c-.7-.25-1.34-.37-1.92-.37-.87 0-1.62.26-2.29.77-.66.51-.92 1.35-.8 2.51zM54.42 472.93c-.62.37-1.22.57-1.82.59-.6.02-1.11-.07-1.55-.28-.44-.21-.78-.5-1.05-.9-.27-.39-.4-.84-.4-1.33 0-.82.41-1.56 1.24-2.22.58-.33 1.11-.64 1.6-.93.49-.29.97-.53 1.43-.74l1.67-1.36c.62-.41 1.3-.89 2.03-1.43.75-.53 1.43-1.11 2.04-1.73.63-.63 1.15-1.3 1.58-2.02.44-.72.69-1.49.77-2.31-1.16.21-2.38.61-3.68 1.2-1.3.6-2.94 1.37-4.92 2.32-1.28.29-2.31.18-3.1-.32-.78-.49-1.18-1.15-1.18-1.98 0-.78.46-1.57 1.36-2.35l1.6-.8c.87-.41 1.79-.85 2.75-1.33.97-.48 1.96-.91 2.98-1.27 1.01-.37 2.02-.65 3.02-.84 1.02-.19 1.98-.21 2.88-.09.74.08 1.38.32 1.91.68.53.37.98.82 1.33 1.33.35.51.6 1.08.74 1.7.15.63.22 1.24.22 1.86-.05 1.52-.49 2.97-1.33 4.33-.85 1.36-1.8 2.58-2.87 3.65l.12.07c.74.25 1.42.57 2.04.96.62.39 1.14.87 1.58 1.42.43.56.73 1.17.9 1.83.17.66.17 1.38 0 2.16-.37 1.07-1.05 2.29-2.04 3.65-.99 1.36-2.11 2.69-3.37 3.98-1.26 1.3-2.56 2.44-3.9 3.43-1.33 1-2.52 1.61-3.55 1.86-.66.17-1.33.21-2.01.13-.68-.08-1.32-.22-1.89-.4-.57-.19-1.1-.39-1.58-.63-.48-.22-.83-.42-1.08-.59-.25-.16-.58-.37-.99-.64-.41-.27-.81-.59-1.2-.96-.39-.37-.71-.77-.96-1.18a1.76 1.76 0 01-.24-1.3c.16-.83.53-1.44 1.11-1.83.58-.39 1.21-.59 1.91-.59.83 0 1.51.27 2.04.8 1.32 1.28 2.37 1.92 3.15 1.92.63 0 1.29-.29 1.99-.87.7-.58 1.5-1.33 2.41-2.23.83-.78 1.63-1.63 2.42-2.54.78-.91 1.45-1.93 1.98-3.09a5.94 5.94 0 00-2.66-.62c-.91 0-1.84.17-2.79.49-.94.33-1.81.77-2.59 1.3h-.07z"/>
            <path class="fil4" d="M72.87 469.45c.08-1.45.26-2.95.55-4.51.29-1.57.79-3.07 1.49-4.52.49-.99 1.11-1.93 1.86-2.82.74-.89 1.57-1.64 2.47-2.29.91-.64 1.88-1.16 2.9-1.55 1.04-.39 2.08-.59 3.15-.59 2.15 0 4.1.77 5.88 2.29 1.98 1.82 3.43 3.94 4.37 6.37.92 2.44 1.43 4.91 1.51 7.43.05 1.69-.21 3.53-.77 5.5a19.55 19.55 0 01-2.47 5.48 14.133 14.133 0 01-4.05 4.1c-1.61 1.07-3.47 1.51-5.57 1.31-1.73-.17-3.26-.68-4.58-1.55-1.32-.87-2.49-2.02-3.52-3.46-1.2-1.74-2.01-3.55-2.42-5.45a38.25 38.25 0 01-.8-5.75zm7.29-6.62c-.87 2.06-1.31 4.3-1.33 6.72-.03 2.41.46 4.66 1.45 6.77.46.91 1.07 1.8 1.86 2.69.78.89 1.75 1.33 2.91 1.33.82 0 1.63-.35 2.44-1.03.8-.68 1.49-1.61 2.07-2.82.46-1.03.81-2.14 1.08-3.34.27-1.19.4-2.43.4-3.7 0-.99-.13-2.12-.4-3.38a17.08 17.08 0 00-1.18-3.58c-.51-1.13-1.15-2.09-1.88-2.87-.75-.78-1.57-1.18-2.47-1.18-.54 0-1.05.14-1.55.43-.49.29-.96.64-1.39 1.08-.44.44-.82.9-1.15 1.42-.33.51-.62 1-.87 1.46zm25.36 22.39c-.49 0-1.05-.04-1.67-.12-.62-.08-1.18-.25-1.67-.52s-.88-.63-1.15-1.08c-.27-.46-.28-1.05-.03-1.8v-25.05c.08-.46.21-.82.4-1.11.19-.29.5-.6.96-.92 1.15-.49 2.32-.95 3.52-1.36 1.2-.42 2.42-.73 3.66-.93 1.23-.21 2.48-.27 3.74-.19 1.26.08 2.52.4 3.8.93 1.73.78 3.18 1.89 4.34 3.34 1.15 1.45 1.73 3.03 1.73 4.76 0 1.32-.34 2.53-1.02 3.62-.68 1.09-1.56 2.05-2.63 2.87 1.57.91 2.78 2.05 3.65 3.43.87 1.38 1.3 2.82 1.3 4.3 0 1.19-.31 2.37-.92 3.53-.63 1.16-1.57 2.25-2.85 3.28-.95.75-2.04 1.32-3.28 1.71-1.24.39-2.54.68-3.9.87-1.36.18-2.72.3-4.09.36-1.35.07-2.65.09-3.89.09zm5.81-14.47c-.83-.08-1.58-.13-2.26-.16-.68-.02-1.37-.03-2.07-.03v9.34c.94 0 1.96.01 3.03.03 1.07.03 2.1-.03 3.09-.15.99-.12 1.89-.37 2.72-.75.82-.36 1.48-.96 1.98-1.79.62-1.04.81-1.92.59-2.66-.22-.74-.7-1.38-1.43-1.92-.72-.53-1.58-.95-2.57-1.26-.99-.31-1.94-.53-2.85-.65h-.24zm-4.33-5.5a79.993 79.993 0 014.32.12c.49-.05 1.09-.19 1.79-.43.7-.25 1.36-.57 1.98-.96a6.58 6.58 0 001.58-1.36c.44-.51.65-1.08.65-1.7 0-1.04-.42-1.83-1.27-2.38-.85-.56-1.85-.92-3-1.08-1.15-.17-2.3-.15-3.42.06-1.14.21-2.01.53-2.63.99v6.74zm23.31-9.22c.17-.83.52-1.45 1.05-1.86.53-.41 1.16-.62 1.86-.62.62 0 1.21.2 1.79.59.58.39.99.96 1.24 1.7 0 .95-.01 1.88-.04 2.78-.02.91-.03 1.82-.03 2.72v4.95c.7-.08 1.4-.16 2.1-.22.7-.07 1.41-.13 2.11-.21.82-.08 1.55-.16 2.19-.24.64-.08 1.37-.2 2.19-.32v-1.63-1.92c0-.72.01-1.57.04-2.54.02-.96.03-2.13.03-3.49 0-.7.32-1.3.96-1.79.64-.49 1.31-.75 2.01-.75.21 0 .47.04.77.12.31.08.63.22.93.4.31.19.58.44.83.75s.39.67.44 1.08V464.68c0 1.19.01 2.3.03 3.31.02 1.01.03 1.99.03 2.94.05 1.93.07 3.86.09 5.78.02 1.91.03 3.84.03 5.78-.08.99-.42 1.73-1.02 2.22-.6.49-1.25.75-1.95.75s-1.35-.22-1.95-.68c-.6-.46-.93-1.16-1.02-2.11v-5.01c0-1.32-.01-2.41-.03-3.27-.03-.87-.04-1.58-.04-2.14v-1.58c-1.48.21-2.92.39-4.33.56-1.4.16-2.85.35-4.33.56-.04 2.06-.05 4.05-.03 5.96.02 1.92.01 3.75-.03 5.48 0 .37-.11.68-.35.93-.22.24-.5.44-.83.59-.33.14-.67.23-1.03.27-.35.05-.64.07-.9.07-.7 0-1.33-.21-1.86-.62-.53-.42-.89-1.04-1.05-1.86v-13.42c0-2.18.01-4.36.04-6.52.02-2.16.03-4.36.03-6.59v-.07zm34.13 26.41c-.05 1.04-.37 1.79-.99 2.29-.63.49-1.31.75-2.04.75-.74 0-1.4-.22-1.98-.68-.58-.46-.93-1.16-1.05-2.11l-.19-23.5c.21-.87.58-1.51 1.12-1.95.53-.43 1.18-.64 1.91-.64.66 0 1.28.2 1.86.59.58.39.97 1 1.18 1.82l.19 23.44zm-6.68-33.09c0-.94.34-1.76 1.02-2.44.68-.68 1.5-1.02 2.44-1.02.99 0 1.83.34 2.51 1.02.68.68 1.02 1.5 1.02 2.44s-.34 1.75-1.02 2.42c-.68.66-1.52.99-2.51.99-.94 0-1.76-.33-2.44-.99a3.248 3.248 0 01-1.02-2.42zm13.48 6c.16-.83.52-1.45 1.08-1.86.55-.41 1.16-.62 1.82-.62.63 0 1.23.2 1.83.59.6.39 1.02.96 1.27 1.7-.05 1.16-.08 2.33-.12 3.53a85.645 85.645 0 00.05 7.97c.08 1.48.25 2.95.49 4.39.25 1.45.58 2.86.99 4.24.42 1.38.95 2.69 1.61 3.93.49.46.82.67.99.65.16-.02.29-.03.37-.03.33.04.54.03.64-.04.1-.07.28-.18.53-.34 1.52-2.81 2.57-6.17 3.15-10.08.58-3.92.97-8.37 1.18-13.36.21-.7.58-1.23 1.11-1.58.53-.35 1.11-.52 1.74-.52.87 0 1.58.33 2.13.99.56.66.84 1.36.84 2.1-.05 1.19-.07 2.24-.09 3.13-.02.89-.03 1.74-.03 2.57 0 1.52.05 3.1.15 4.73.1 1.63.29 3.2.56 4.7.27 1.5.66 2.9 1.18 4.18.51 1.28 1.19 2.32 2.01 3.15l.81.24h.12c-.05 0 .1-.04.43-.12.99-.95 1.7-2.15 2.14-3.59.44-1.45.77-2.9 1.02-4.38.46-2.72.76-5.44.9-8.13.15-2.7.26-5.43.35-8.2.16-.82.52-1.44 1.08-1.85.55-.42 1.19-.63 1.88-.63.58 0 1.17.2 1.76.59.6.39 1.02.96 1.27 1.71-.17 2.97-.33 5.89-.47 8.75a77.15 77.15 0 01-.9 8.56 40.2 40.2 0 01-1.02 4.39c-.44 1.48-1.01 2.83-1.71 4.05-.7 1.21-1.6 2.21-2.69 3-1.09.78-2.43 1.18-3.99 1.18-2.23 0-4.04-.7-5.44-2.1-.62-.62-1.11-1.19-1.48-1.7-.37-.51-.7-1.06-.99-1.64l-.19-.19-.07-.07c-.33.7-.67 1.33-1.02 1.89a9.26 9.26 0 01-1.2 1.51c-.95.87-1.86 1.48-2.72 1.86-.87.37-1.89.56-3.1.56-1.19 0-2.36-.25-3.49-.75-1.14-.49-2.05-1.3-2.75-2.41a22.86 22.86 0 01-2.14-4.52c-.55-1.61-.98-3.27-1.27-4.98-.29-1.71-.49-3.43-.59-5.17-.1-1.73-.15-3.46-.15-5.2 0-1.15.01-2.29.03-3.43.02-1.13.05-2.23.09-3.3v-.07zm43.29.68c.17-.83.52-1.45 1.05-1.86.53-.41 1.16-.62 1.86-.62.62 0 1.21.2 1.79.59.58.39.99.96 1.24 1.7 0 .95-.01 1.88-.04 2.78-.02.91-.03 1.82-.03 2.72v4.95c.7-.08 1.4-.16 2.1-.22.7-.07 1.41-.13 2.11-.21.82-.08 1.55-.16 2.19-.24.64-.08 1.37-.2 2.19-.32v-1.63-1.92c0-.72.01-1.57.04-2.54.02-.96.03-2.13.03-3.49 0-.7.32-1.3.96-1.79.64-.49 1.31-.75 2.01-.75.21 0 .47.04.77.12.31.08.63.22.93.4.31.19.58.44.83.75s.39.67.44 1.08V464.68c0 1.19.01 2.3.03 3.31.02 1.01.03 1.99.03 2.94.05 1.93.07 3.86.09 5.78.02 1.91.03 3.84.03 5.78-.08.99-.42 1.73-1.02 2.22-.6.49-1.25.75-1.95.75s-1.35-.22-1.95-.68c-.6-.46-.93-1.16-1.02-2.11v-5.01c0-1.32-.01-2.41-.03-3.27-.03-.87-.04-1.58-.04-2.14v-1.58c-1.48.21-2.92.39-4.33.56-1.4.16-2.85.35-4.33.56-.04 2.06-.05 4.05-.03 5.96.02 1.92.01 3.75-.03 5.48 0 .37-.11.68-.35.93-.22.24-.5.44-.83.59-.33.14-.67.23-1.03.27-.35.05-.64.07-.9.07-.7 0-1.33-.21-1.86-.62-.53-.42-.89-1.04-1.05-1.86v-13.42c0-2.18.01-4.36.04-6.52.02-2.16.03-4.36.03-6.59v-.07zm41.5 26.72c-.78.7-1.64 1.23-2.57 1.58-.92.35-1.87.53-2.82.53-1.4 0-2.71-.37-3.96-1.12-.21.66-.56 1.12-1.05 1.39-.49.27-1.05.4-1.67.4-.7 0-1.35-.22-1.95-.67-.6-.46-.93-1.16-1.02-2.11.04-4.53.06-9.05.06-13.55v-13.6c.17-.83.52-1.45 1.05-1.86.53-.42 1.16-.63 1.86-.63.63 0 1.22.2 1.79.59.58.39.99.96 1.24 1.71v8.22c1.16-.62 2.37-.92 3.65-.92 1.07 0 2.07.19 3 .56.92.36 1.76.96 2.5 1.79 1.07 1.11 1.88 2.44 2.42 3.96.53 1.53.82 3.01.87 4.46 0 1.57-.27 3.19-.81 4.88-.53 1.69-1.4 3.15-2.59 4.39zm-5.5-14.72c-.63 0-1.15.28-1.58.84-.44.55-.76 1.25-.96 2.1-.21.85-.31 1.76-.31 2.75s.11 1.9.34 2.75c.23.85.55 1.56.96 2.14.41.58.94.87 1.6.87.37 0 .75-.15 1.12-.44.36-.29.67-.72.92-1.3.25-.66.45-1.32.59-1.98.14-.66.21-1.36.21-2.1 0-.7-.07-1.35-.21-1.95-.14-.6-.32-1.17-.52-1.71a5.83 5.83 0 00-.99-1.42c-.37-.37-.77-.56-1.18-.56zm12.73 1.43c.08-1.45.26-2.95.55-4.51.29-1.57.79-3.07 1.49-4.52.49-.99 1.11-1.93 1.86-2.82.74-.89 1.57-1.64 2.47-2.29.91-.64 1.88-1.16 2.9-1.55 1.04-.39 2.08-.59 3.15-.59 2.15 0 4.1.77 5.88 2.29 1.98 1.82 3.43 3.94 4.37 6.37.92 2.44 1.43 4.91 1.51 7.43.05 1.69-.21 3.53-.77 5.5a19.55 19.55 0 01-2.47 5.48 14.133 14.133 0 01-4.05 4.1c-1.61 1.07-3.47 1.51-5.57 1.31-1.73-.17-3.26-.68-4.58-1.55-1.32-.87-2.49-2.02-3.52-3.46-1.2-1.74-2.01-3.55-2.42-5.45a38.25 38.25 0 01-.8-5.75zm7.29-6.62c-.87 2.06-1.31 4.3-1.33 6.72-.03 2.41.46 4.66 1.45 6.77.46.91 1.07 1.8 1.86 2.69.78.89 1.75 1.33 2.91 1.33.82 0 1.63-.35 2.44-1.03.8-.68 1.49-1.61 2.07-2.82.46-1.03.81-2.14 1.08-3.34.27-1.19.4-2.43.4-3.7 0-.99-.13-2.12-.4-3.38a17.08 17.08 0 00-1.18-3.58c-.51-1.13-1.15-2.09-1.88-2.87-.75-.78-1.57-1.18-2.47-1.18-.54 0-1.05.14-1.55.43-.49.29-.96.64-1.39 1.08-.44.44-.82.9-1.15 1.42-.33.51-.62 1-.87 1.46zm22.63-4.45c.21-.87.58-1.51 1.11-1.95.53-.44 1.18-.65 1.92-.65.66 0 1.28.21 1.86.63.58.41.97 1.03 1.18 1.86v24.61c-.05 1.04-.37 1.8-.99 2.3-.63.49-1.31.74-2.04.74-.75 0-1.41-.23-1.98-.71-.58-.48-.93-1.19-1.05-2.14V458.4zm13.61-11.38c0 .53-.16 1.04-.47 1.51-.31.48-.72.91-1.21 1.27-.49.37-1.02.67-1.58.91-.55.22-1.08.34-1.58.34-1.03 0-1.9-.34-2.62-1.02-.72-.68-1.08-1.52-1.08-2.51 0-.49.17-.98.49-1.46.33-.48.74-.9 1.23-1.27.49-.36 1.03-.66 1.58-.9.56-.22 1.06-.34 1.52-.34 1.03 0 1.9.34 2.62 1.02.73.68 1.09 1.5 1.09 2.44zm-12.56.49c0 .49-.16.98-.47 1.46-.31.48-.71.91-1.2 1.3s-1.05.71-1.64.96c-.6.25-1.19.37-1.76.37-1.04 0-1.93-.36-2.69-1.08-.77-.72-1.15-1.58-1.15-2.57 0-.49.18-.98.52-1.46a6.5 6.5 0 011.31-1.31c.51-.39 1.06-.7 1.67-.92.6-.22 1.12-.34 1.58-.34 1.03 0 1.92.35 2.69 1.05.77.7 1.15 1.55 1.15 2.54zm33.2 7.43c.16-.83.52-1.45 1.08-1.86.55-.42 1.19-.63 1.88-.63.58 0 1.17.2 1.76.59.6.39 1.02.98 1.27 1.76v.63a9.83 9.83 0 012.81-1.12c1.05-.24 2.12-.36 3.19-.36 1.57 0 3.11.28 4.61.83 1.5.56 2.75 1.37 3.74 2.44 1.45 1.65 2.48 3.52 3.12 5.6.63 2.08 1 4.15 1.08 6.21.04 1.2-.05 2.43-.25 3.69-.21 1.26-.52 2.49-.96 3.71-.43 1.21-1.01 2.37-1.73 3.46-.72 1.09-1.6 2.03-2.63 2.81-.95.7-1.95 1.21-3 1.52-1.05.31-2.11.47-3.18.47-2.56 0-4.8-.66-6.74-1.99v13.05c-.08.99-.42 1.74-1.02 2.23-.6.49-1.27.75-2.02.75-.66 0-1.3-.22-1.91-.68-.63-.46-.97-1.16-1.05-2.11v-20.41c0-6.76-.02-13.6-.06-20.53v-.06zm8.35 5.81c-.54.46-.95 1.02-1.24 1.7-.29.68-.5 1.41-.65 2.16-.14.77-.23 1.56-.27 2.38-.05.83-.08 1.61-.13 2.35 0 1.07.09 2.29.28 3.62.19 1.34.65 2.55 1.39 3.62.58.83 1.33 1.5 2.26 2.02.92.51 1.87.77 2.82.77 1.11 0 2.04-.36 2.78-1.08.75-.72 1.34-1.6 1.8-2.66.46-1.05.77-2.16.95-3.3.19-1.16.28-2.19.28-3.1 0-.87-.08-1.81-.24-2.85-.17-1.04-.44-2.02-.81-2.97-.36-.95-.86-1.79-1.48-2.51a4.933 4.933 0 00-2.29-1.51c-.87-.16-1.8-.15-2.82.03-1.01.19-1.88.63-2.62 1.33zm44.58 6.31c-.66 1.36-1.67 2.51-3.03 3.43-1.36.92-2.86 1.7-4.52 2.32-1.65.62-3.35 1.1-5.1 1.46-1.75.35-3.35.63-4.79.83a9.547 9.547 0 003.53 4.14c1.57 1.04 3.44 1.45 5.63 1.24 1.32-.21 2.58-.55 3.78-1.03 1.19-.48 2.44-1.06 3.71-1.76.66-.29 1.28-.41 1.86-.36.57.04 1.07.17 1.51.4.44.22.77.53.99.92.23.39.35.79.35 1.21 0 .99-.62 1.86-1.86 2.59-1.69.91-3.6 1.72-5.73 2.42-2.12.7-4.27 1.05-6.46 1.05-1.36 0-2.67-.18-3.93-.52-1.26-.35-2.43-.93-3.5-1.76-2.27-1.74-3.97-3.86-5.1-6.37-1.13-2.51-1.7-5.11-1.7-7.79 0-1.48.18-2.94.52-4.37.35-1.42.88-2.76 1.58-4.02.7-1.26 1.58-2.42 2.63-3.49 1.05-1.07 2.3-1.99 3.74-2.72 1.69-.78 3.63-1.18 5.81-1.18 1.94 0 3.76.32 5.45.96 1.69.64 3.05 1.55 4.1 2.72 1.05 1.18 1.68 2.58 1.86 4.2.19 1.63-.25 3.45-1.33 5.48zm-18.06-.74c-.17.62-.29 1.21-.37 1.79-.08.58-.1 1.16-.06 1.73.08 0 .21-.02.4-.06.18-.05.32-.07.4-.07 1.11-.16 2.25-.33 3.4-.49 1.16-.16 2.27-.41 3.34-.74 1.07-.33 2.1-.79 3.07-1.4.96-.6 1.82-1.46 2.57-2.57.7-1.03.92-1.93.68-2.71-.25-.78-.74-1.42-1.46-1.89-.72-.48-1.58-.79-2.57-.95-.99-.17-1.88-.17-2.66 0-.95.16-1.8.51-2.54 1.05-.75.54-1.41 1.18-1.98 1.89-.58.72-1.05 1.47-1.43 2.26-.37.77-.64 1.5-.8 2.16zm38.21 5.19c-1.36-.04-2.42-.07-3.15-.08-.74-.03-1.29-.04-1.64-.04h-.71v10.95c-.08.99-.42 1.73-1.02 2.22-.6.49-1.25.75-1.95.75s-1.36-.22-1.98-.68c-.63-.46-.97-1.16-1.05-2.1v-26.97c.17-.83.53-1.45 1.08-1.86.56-.41 1.19-.62 1.88-.62.58 0 1.17.2 1.76.59.6.39 1.02.96 1.27 1.7v10.39h4.09c.87-.58 1.66-1.22 2.38-1.92s1.45-1.49 2.16-2.38c.72-.89 1.46-1.9 2.23-3.06.76-1.16 1.63-2.5 2.63-4.02.91-.7 1.74-1.05 2.53-1.05.95 0 1.72.37 2.3 1.12.57.74.63 1.67.19 2.78-.91 1.32-1.72 2.5-2.42 3.55-.7 1.05-1.37 2.01-2.01 2.87-.64.87-1.28 1.67-1.92 2.39-.64.72-1.33 1.41-2.07 2.07l1.48 1.48c1.65 1.57 3.19 3.35 4.64 5.35 1.45 2.01 2.71 4.06 3.78 6.16.33 1.07.2 1.95-.4 2.63-.61.68-1.35 1.02-2.26 1.02-.46 0-.91-.09-1.36-.28-.46-.18-.89-.49-1.31-.95-.33-.7-.84-1.61-1.54-2.72-.7-1.11-1.48-2.26-2.35-3.43-.87-1.18-1.76-2.29-2.7-3.34-.92-1.05-1.78-1.88-2.57-2.51z"/>
            <path class="fil4" d="M418.34 476.13c-.29-.53-.41-1.05-.36-1.55.04-.49.18-.93.43-1.3s.58-.67.99-.9c.41-.23.84-.35 1.3-.35.49 0 1 .12 1.49.37s.96.66 1.42 1.24l.07.06c.16.29.4.74.71 1.33.31.6.65 1.19 1.02 1.79.37.6.76 1.13 1.15 1.6.39.48.71.74.96.77.41-.58.74-1.37.99-2.38.25-1.01.43-1.9.55-2.69 0-.08.01-.16.04-.22a.71.71 0 00.03-.21c.21-1.48.35-2.97.43-4.45.08-1.48.13-2.95.13-4.39 0-1.24-.02-2.46-.07-3.68-.05-1.22-.08-2.43-.12-3.62.12-.66.35-1.18.68-1.55.33-.37.85-.68 1.55-.92 1.19-.17 2.43-.27 3.7-.32 1.28-.04 2.52-.09 3.71-.18 1.19-.08 2.39-.16 3.59-.22 1.19-.07 2.39-.2 3.58-.4.99-.04 1.75.12 2.29.47s.95.93 1.24 1.76v12.56c0 2.06.01 4.11.03 6.15.03 2.04.04 4.12.04 6.22-.08.99-.43 1.73-1.03 2.22-.6.49-1.25.75-1.95.75s-1.34-.22-1.94-.68c-.61-.46-.94-1.16-1.03-2.1V470.3c0-1.86-.01-3.67-.03-5.42-.02-1.74-.03-3.56-.03-5.41l-8.41.75c0 .29.01.59.03.9.03.31.04.59.04.83 0 .7.01 1.43.03 2.17.02.74.03 1.48.03 2.22 0 2.47-.14 4.97-.43 7.48-.29 2.52-.91 4.83-1.86 6.93-.66 1.32-1.46 2.28-2.42 2.87-.94.6-1.98.9-3.09.9-1.11 0-2.21-.28-3.28-.83-1.07-.56-2.06-1.35-2.97-2.38-.49-.63-.94-1.27-1.36-1.95-.41-.68-.82-1.37-1.23-2.07l-.63-1.18zm49.04-12.56c.12-.05.47-.17 1.03-.37.55-.21 1.14-.41 1.76-.62.62-.21 1.18-.41 1.67-.63.49-.21.76-.33.8-.36-.21-1.24-.53-2.23-.99-2.98-.49-.57-1.14-.86-1.92-.86-.83 0-1.69.19-2.59.55-.9.37-1.61.77-2.11 1.18-.46.29-.92.65-1.42 1.08-.49.44-1.1.96-1.8 1.58-.41.25-.79.41-1.14.49-.35.08-.7.13-1.03.13-.82 0-1.49-.22-2.01-.68-.51-.46-.77-1.05-.77-1.8 0-.62.17-1.19.49-1.73.83-.74 1.68-1.47 2.57-2.2.89-.72 1.83-1.37 2.82-1.94.7-.46 1.46-.85 2.29-1.18.83-.33 1.65-.56 2.47-.68a13.8 13.8 0 011.89-.13c.68 0 1.29.05 1.82.13 2.3.46 4.01 1.44 5.1 2.94 1.09 1.5 1.81 3.28 2.14 5.35.21 1.32.32 2.67.34 4.05.03 1.38.04 2.75.04 4.11v1.31c0 .91.01 1.73.03 2.47.02.74.12 1.44.31 2.1.19.66.49 1.29.9 1.88.42.6 1.02 1.23 1.8 1.89.53.66.8 1.33.8 2.03 0 1.04-.47 1.77-1.39 2.23-.93.46-2.03.39-3.31-.19-.87-.7-1.58-1.36-2.14-1.98a11.09 11.09 0 01-1.39-1.92 25.128 25.128 0 01-5.66 4.65c-2.12 1.28-4.29 1.91-6.52 1.91-1.19 0-2.31-.41-3.37-1.23-1.05-.83-1.91-1.82-2.58-2.98-1.03-1.86-1.54-3.82-1.54-5.9 0-2.08.72-4.05 2.16-5.91 1.32-1.48 2.92-2.65 4.8-3.5 1.88-.84 3.76-1.61 5.65-2.31zm5.45 5.69c0-.37.01-.66.03-.87.02-.21.03-.53.03-.99-.53.21-1.07.4-1.6.59-.53.19-1.07.38-1.61.59-.66.25-1.51.56-2.57.92-1.05.37-2.07.85-3.06 1.43-.99.58-1.82 1.25-2.5 2.01-.68.77-.98 1.64-.9 2.63.08.74.26 1.49.55 2.26.29.76 1 1.44 2.11 2.01.36.08.97-.17 1.82-.75.85-.58 1.76-1.3 2.75-2.16.99-.87 1.95-1.79 2.87-2.78.93-1 1.62-1.88 2.08-2.67v-2.22zm20.4 14.04c-.25.74-.64 1.29-1.18 1.63-.53.35-1.11.53-1.74.53-.66 0-1.29-.22-1.88-.68-.6-.46-.93-1.16-1.02-2.11.21-2.18.35-4.36.46-6.52.1-2.16.2-4.34.28-6.52.08-2.02.17-4.03.25-6.04.08-2 .21-4 .36-6.03.17-.78.52-1.38 1.05-1.8.53-.41 1.16-.62 1.86-.62 1.07 0 1.96.48 2.66 1.43 1.24 2.1 2.45 4.21 3.65 6.31 1.2 2.1 2.38 4.21 3.53 6.31.58 1.04 1.07 1.95 1.48 2.75.42.8.91 1.72 1.48 2.75l6.25-10.82c.21-.37.44-.79.71-1.27.27-.48.5-.88.72-1.2.45-.78.89-1.56 1.32-2.32.44-.76 1.03-1.68 1.76-2.75.37-.33.77-.57 1.2-.71.44-.14.82-.21 1.15-.21.7 0 1.32.2 1.83.59.51.39.89.96 1.14 1.7.17 2.06.29 4.23.37 6.49v2.16c.05.95.07 1.91.09 2.87.02.97.07 1.95.15 2.94.08 1.74.17 3.43.25 5.1.08 1.67.12 3.38.12 5.1-.08.99-.41 1.74-.99 2.23-.58.49-1.24.75-1.98.75-.66 0-1.3-.22-1.91-.68-.63-.46-.97-1.16-1.05-2.11 0-2.02-.06-4.04-.16-6.06-.1-2.02-.2-4.03-.28-6.05l-.12-2.47-2.1 3.89c-.83 1.48-1.72 3.05-2.66 4.7-.95 1.65-2.15 3.55-3.59 5.69-.53.58-1.3.87-2.29.87-.46 0-.88-.08-1.27-.25-.39-.16-.81-.47-1.27-.92l-3.46-6.31c-.42-.75-.8-1.43-1.15-2.04-.35-.63-.68-1.22-.99-1.79-.31-.58-.64-1.18-.99-1.8-.35-.62-.73-1.32-1.15-2.1 0 .33-.01.65-.03.96-.02.31-.03.63-.03.95-.08 2.27-.2 4.52-.32 6.74-.12 2.23-.28 4.45-.49 6.68l-.06.07zm34.26-26.72c.17-.83.53-1.45 1.08-1.86.56-.42 1.17-.63 1.83-.63.62 0 1.22.19 1.82.56.61.37 1.03.95 1.27 1.74v4.42c0 1.38-.01 2.76-.03 4.14-.02 1.38-.04 2.77-.07 4.18-.02 1.4-.03 2.88-.03 4.45l4.51-6.37 8.6-12c.36-.33.76-.56 1.18-.68.41-.12.8-.19 1.18-.19.7 0 1.31.19 1.82.56.51.36.88.92 1.08 1.67v26.35c-.08 1.04-.41 1.79-.99 2.29-.58.49-1.24.75-1.98.75-.66 0-1.3-.23-1.92-.71-.62-.48-.96-1.19-1.04-2.14V466.1l-.44.49c-2.06 2.81-4.12 5.65-6.18 8.54-2.06 2.88-4.12 5.88-6.19 8.97-.74.87-1.62 1.3-2.66 1.3-.74 0-1.4-.23-1.98-.71-.58-.48-.91-1.15-.99-2.02.05-4.37.07-8.7.09-13.01.02-4.31.03-8.65.03-13.02v-.06z"/>
        </g>
    </g>
</svg>
