<svg xmlns="http://www.w3.org/2000/svg" width="210.572" height="176.395" viewBox="0 0 444.69 372.51" shape-rendering="geometricPrecision" text-rendering="geometricPrecision" image-rendering="optimizeQuality" fill-rule="evenodd" clip-rule="evenodd">
    <defs>
        <style>
            .str0{stroke:#2b2b2a;stroke-width:1.41;stroke-linejoin:bevel;stroke-miterlimit:22.9256}.fil0{fill:#fe0}.fil2{fill:#1f1c21}.fil3,.fil4{fill:#2b2b2a;fill-rule:nonzero}.fil3{fill:#fe0}
        </style>
    </defs>
    <g id="Layer_x0020_1">
        <g id="_105828797605344">
            <path class="fil0 str0" d="M311.57 146.44l35.89 30.28.33 47.73-35.89-30.29z"/>
            <path class="fil0 str0" d="M311.9 194.16l35.89 30.29-50.7 22.36-35.89-30.28z"/>
            <path class="fil0" stroke="#2b2b2a" stroke-width="1.41" stroke-miterlimit="22.926" d="M311.57 146.44l.33 47.72-50.7 22.37.5-47.18z"/>
            <path class="fil0" d="M54.49 153.86l-4.8 1.6c-2.4.8-4.74 1.8-6.96 3.02-1.59.87-2.88 2.17-3.95 3.62-1.17 1.58-1.68 3.48-1.83 5.42v85.55H0V44.65c0-3.76.69-7.64 1.41-11.33 1.14-5.82 4.14-10.99 7.95-15.47 4.88-5.74 11.74-9.75 18.6-12.68C37.93.92 50.24-.01 61-.01c10.75 0 23.07.93 33.04 5.18 6.86 2.92 13.73 6.94 18.6 12.68 3.81 4.48 6.81 9.65 7.95 15.47.72 3.69 1.41 7.57 1.41 11.33v55.7c0 8.1-2.28 15.65-6.45 22.57-4.25 7.04-10.86 11.96-18.16 15.45l40.04 114.7H98.3l-28.88-82.91c-2.24-6.85-5.46-18.02-14.93-16.3zm-17.54-31.23l1.71-.63c3.19-1.18 6.41-2.3 9.64-3.38 3.31-1.1 6.61-2.26 9.88-3.46 3.03-1.11 6.07-2.19 9.13-3.21 1.33-.44 2.67-.89 4-1.34 1.17-.39 2.33-.81 3.57-1.3 3.07-1.11 6.94-3 8.4-6.12 1.04-2.23 2.1-5.03 2.1-7.51V49.65c0-1.79-.35-3.6-.84-5.32-.51-1.79-1.66-3.3-2.99-4.56-2.03-1.92-4.83-3.29-7.42-4.28-4.14-1.58-9.41-1.88-13.81-1.88-4.16 0-9.03.33-12.93 1.87-2.49.98-5.08 2.37-6.88 4.38-1.27 1.41-2.4 3.09-2.84 4.96-.43 1.8-.72 3.66-.72 5.51v72.31z"/>
            <path d="M53.77 151.08l-4.99 1.66c-2.57.86-5.06 1.93-7.43 3.23-1.96 1.08-3.56 2.64-4.87 4.43-1.53 2.08-2.21 4.52-2.39 7.01v82.79H2.87V44.65c0-3.48.7-7.37 1.36-10.78 1.04-5.33 3.84-10.06 7.32-14.16 4.57-5.37 11.12-9.16 17.54-11.9C38.63 3.74 50.74 2.86 61 2.86c10.26 0 22.37.88 31.91 4.95 6.42 2.74 12.97 6.52 17.54 11.9 3.48 4.1 6.28 8.83 7.32 14.16.66 3.41 1.36 7.3 1.36 10.78v55.7c0 7.58-2.14 14.61-6.04 21.09-4.39 7.28-11.59 12.11-19.27 15.41l39.57 113.36h-33.06l-28.19-80.93c-1.75-5.35-5.69-20.68-18.38-18.19zM34.09 126.7c1.87-.65 3.72-1.32 5.57-2.01 3.16-1.17 6.35-2.28 9.55-3.35 3.34-1.11 6.66-2.28 9.97-3.49 3-1.1 6.01-2.17 9.04-3.18 1.33-.44 2.67-.89 4-1.34 1.21-.4 2.41-.83 3.64-1.32 3.88-1.4 8.19-3.69 10.03-7.6 1.23-2.64 2.37-5.78 2.37-8.73V49.65c0-2.06-.38-4.13-.95-6.11-.66-2.3-2.06-4.23-3.78-5.86-2.31-2.19-5.41-3.74-8.36-4.87-4.47-1.71-10.08-2.07-14.83-2.07-4.53 0-9.73.39-13.98 2.07-2.92 1.15-5.84 2.77-7.97 5.13-1.6 1.78-2.95 3.86-3.5 6.21-.48 2.01-.8 4.1-.8 6.17v76.38z" fill="#2b2b2a"/>
            <path class="fil2" d="M407.65 203.79l-15.84 43.84h-21.19l19.63-54.58-19.63-54.57h21.19l15.84 43.83 15.85-43.83h21.19l-19.63 54.57 19.63 54.58H423.5z"/>
            <path class="fil3" d="M407.65 199.1l.09-.04h-.17l.08.04 16.97 46.93h17.8l-19.06-52.98-.54-.2v.41l.54-.21 19.06-52.98h-17.8l-16.97 46.94-16.96-46.94h-17.8l19.06 52.98.71.28v-.55l-.71.27-19.06 52.98h17.8z"/>
            <path class="fil2" d="M176.85 136.78c13.59-7.95 26.38-9.02 40.64-1.48 5.16 2.87 9.9 6.69 13.07 11.73 3.13 4.97 4.61 10.44 4.61 16.31v57.57c0 3.86-.73 7.6-2.25 11.14-1.59 3.68-4.12 6.71-7.26 9.18-3.66 2.88-8.03 4.81-12.47 6.13-5.74 1.7-12 2.22-17.96 2.22-9.98 0-22.21-1.4-30.11-8.14-6.25-5.32-9.67-12.05-9.83-20.29V79.2h21.17v34.4l.39 23.18zm37.38 32.89h-.25l.03-.82c.72-22.64-39.18-22.99-37.55.03v48.66c0 1.53.35 3.06.87 4.49.61 1.67 1.63 3.09 2.91 4.3 1.57 1.49 3.65 2.48 5.69 3.16 2.91.97 6.25 1.23 9.3 1.23 4.71 0 11.28-.6 14.73-4.24 2.66-2.8 4.12-6.09 4.27-9.93v-46.86z" stroke="#2b2b2a" stroke-width=".84" stroke-miterlimit="22.926"/>
            <path class="fil3" d="M215.03 168.87h-.23c.76-23.8-40.85-24.08-39.14 0v48.81-.23c0 1.53.31 3.15.92 4.84.61 1.69 1.65 3.22 3.11 4.61 1.46 1.38 3.45 2.5 5.99 3.34 2.53.84 5.72 1.27 9.56 1.27 7.37 0 12.47-1.5 15.31-4.49s4.34-6.49 4.49-10.48v-47.66zm19.34 46.51v5.53c0 3.84-.73 7.44-2.19 10.82s-3.8 6.33-7.02 8.87c-3.22 2.53-7.29 4.53-12.2 5.99-4.91 1.46-10.82 2.19-17.73 2.19-13.51 0-23.37-2.65-29.59-7.94-6.22-5.3-9.4-11.86-9.55-19.69V80h19.57v33.61l.42 24.56c14.73-9.02 27.46-9.35 41.03-2.17 5.28 2.93 9.79 6.7 12.78 11.46 2.99 4.76 4.49 10.06 4.49 15.89v52.04z" stroke="#2b2b2a" stroke-width=".84" stroke-miterlimit="22.926"/>
        </g>
        <g id="_105828717898624">
            <path class="fil4" d="M95.63 288.14c.13-.61.4-1.07.81-1.39.42-.31.87-.46 1.37-.46.46 0 .91.15 1.36.44.45.29.76.72.95 1.27.04 1.94.06 3.79.07 5.55.01 1.76.02 3.53.02 5.31v1.09c0 .29.01.57.03.84.01.26.02.54.02.83v1.09c1.39-2.38 2.76-4.74 4.13-7.09 1.37-2.36 2.75-4.73 4.14-7.14.49-.8 1.19-1.21 2.08-1.21.49 0 .94.15 1.34.44.4.29.7.72.88 1.28l.14 6.88c.06 2.53.11 5.02.16 7.48.05 2.47.07 5.02.07 7.67-.06.74-.31 1.3-.76 1.67a2.3 2.3 0 01-1.5.55c-.49 0-.97-.17-1.43-.51-.46-.34-.72-.86-.79-1.57 0-1.54-.01-3.01-.04-4.41-.04-1.4-.06-2.79-.1-4.18 0-.56-.01-1.02-.02-1.41-.01-.38-.03-.77-.05-1.16-.01-.38-.02-.79-.02-1.21v-1.5l-2.49 4.2c-.98 1.69-1.99 3.39-3 5.09a602.17 602.17 0 00-3 5.03c-.55.65-1.21.97-1.99.97-.52 0-1-.17-1.43-.53-.43-.36-.68-.85-.74-1.5 0-3.88-.01-7.61-.05-11.18-.03-3.57-.08-7.3-.14-11.18v-.05zm28.45 16.26c-.46.28-.91.43-1.36.44-.45.01-.83-.06-1.16-.21a1.91 1.91 0 01-.79-.67c-.2-.29-.3-.63-.3-1 0-.61.31-1.16.93-1.66.43-.24.83-.48 1.2-.7.37-.22.72-.4 1.07-.55l1.25-1.02c.46-.31.97-.66 1.52-1.07.56-.4 1.07-.83 1.53-1.29.47-.47.86-.97 1.18-1.51.33-.54.52-1.12.58-1.73-.86.15-1.78.45-2.75.9s-2.19 1.02-3.67 1.74c-.95.22-1.73.13-2.31-.24-.59-.37-.88-.86-.88-1.48 0-.59.34-1.17 1.02-1.76l1.2-.6c.65-.31 1.34-.63 2.06-.99s1.46-.68 2.22-.95c.75-.28 1.51-.49 2.26-.63.76-.14 1.48-.16 2.15-.07.55.06 1.03.24 1.43.51.4.28.73.61 1 1 .26.38.45.81.55 1.27.11.47.17.93.17 1.39a6.345 6.345 0 01-1 3.23c-.63 1.02-1.34 1.92-2.15 2.72l.09.05c.55.19 1.06.43 1.53.72.46.29.85.65 1.18 1.06.32.42.54.87.67 1.37.13.49.13 1.03 0 1.62-.28.8-.79 1.71-1.53 2.72-.74 1.02-1.57 2.01-2.52 2.98-.94.97-1.91 1.83-2.91 2.56-1 .75-1.88 1.21-2.65 1.39-.49.13-.99.16-1.5.1s-.98-.17-1.42-.3c-.42-.14-.82-.29-1.18-.47a6.05 6.05 0 01-.81-.44c-.19-.12-.43-.28-.74-.48-.31-.2-.61-.44-.9-.72-.29-.28-.53-.57-.72-.88-.19-.31-.24-.63-.18-.97.12-.62.4-1.07.83-1.37.43-.29.91-.44 1.43-.44.62 0 1.13.2 1.53.6.98.95 1.77 1.44 2.36 1.44.47 0 .96-.22 1.48-.65a26.8 26.8 0 001.8-1.67c.62-.59 1.22-1.22 1.8-1.9.59-.68 1.08-1.44 1.48-2.31-.62-.31-1.28-.46-1.99-.46-.68 0-1.37.13-2.08.37-.7.24-1.35.57-1.94.97h-.05zm18.43 7.44c-.06.74-.31 1.3-.74 1.67-.42.37-.92.56-1.48.56-.49 0-.97-.18-1.43-.54-.47-.36-.72-.89-.79-1.59 0-3.24.01-6.47.02-9.68.02-3.22.04-6.46.07-9.73.09-.49.26-.88.51-1.16.24-.27.63-.49 1.16-.64.8-.13 1.62-.2 2.45-.24.83-.03 1.69-.06 2.59-.09.89-.04 1.79-.06 2.7-.09.91-.04 1.81-.13 2.7-.28.86-.06 1.52.11 1.97.51.45.4.67.86.67 1.39 0 .43-.17.83-.51 1.2-.34.37-.86.65-1.57.84-.74.12-1.49.19-2.26.23-.77.03-1.55.04-2.36.04-.62 0-1.23.01-1.83.03-.6.01-1.21.05-1.83.11 0 1.48-.01 2.94-.02 4.37-.02 1.43-.03 2.87-.03 4.32v8.77zm13.31-10.02c.06-1.08.19-2.2.41-3.37.22-1.17.59-2.29 1.12-3.37.37-.74.83-1.44 1.39-2.1.55-.66 1.17-1.23 1.85-1.71.68-.48 1.4-.86 2.17-1.16.77-.29 1.55-.44 2.36-.44 1.6 0 3.07.57 4.39 1.71 1.48 1.36 2.56 2.94 3.26 4.76.69 1.82 1.07 3.67 1.13 5.55.03 1.26-.16 2.63-.58 4.11-.41 1.48-1.03 2.84-1.85 4.09-.81 1.25-1.83 2.26-3.02 3.07-1.21.8-2.59 1.13-4.16.98-1.29-.13-2.43-.51-3.42-1.16-.98-.65-1.86-1.51-2.63-2.59-.9-1.3-1.5-2.65-1.8-4.07-.31-1.41-.51-2.85-.6-4.29zm5.45-4.95c-.65 1.54-.98 3.21-.99 5.02-.02 1.8.34 3.48 1.08 5.06.34.68.8 1.34 1.39 2.01.59.66 1.31 1 2.17 1 .61 0 1.22-.26 1.83-.77.6-.51 1.12-1.21 1.55-2.1.34-.77.61-1.6.81-2.5.2-.89.3-1.81.3-2.77 0-.74-.1-1.58-.3-2.52-.2-.94-.49-1.83-.88-2.68-.38-.84-.86-1.56-1.41-2.15-.56-.59-1.17-.88-1.85-.88-.4 0-.79.1-1.16.32-.37.22-.72.48-1.04.81-.33.33-.61.68-.86 1.06-.24.38-.46.75-.65 1.09zm25.32 14.88c-.04.74-.27 1.3-.72 1.66-.45.37-.95.55-1.51.55-.49 0-.97-.17-1.43-.53-.47-.36-.72-.88-.79-1.6.06-2.92.09-5.8.09-8.63v-8.69c-.65.03-1.34.05-2.08.05h-2.03c-.77-.06-1.34-.3-1.71-.72-.37-.41-.56-.84-.56-1.27 0-.49.2-.93.61-1.32.4-.38 1-.61 1.8-.67 2.04 0 4.1.01 6.2.02 2.09.01 4.24-.08 6.47-.3.83-.06 1.48.11 1.94.51.47.4.7.86.7 1.39 0 .43-.16.84-.49 1.22-.33.38-.82.65-1.5.81-.75.09-1.51.15-2.31.17-.8.01-1.66.02-2.59.02v8.68c0 2.86-.03 5.75-.09 8.64zm9.83-9.93c.06-1.08.19-2.2.41-3.37.22-1.17.59-2.29 1.12-3.37.37-.74.83-1.44 1.39-2.1.55-.66 1.17-1.23 1.85-1.71.68-.48 1.4-.86 2.17-1.16.77-.29 1.55-.44 2.36-.44 1.6 0 3.07.57 4.39 1.71 1.48 1.36 2.56 2.94 3.26 4.76.69 1.82 1.07 3.67 1.13 5.55.03 1.26-.16 2.63-.58 4.11-.41 1.48-1.03 2.84-1.85 4.09-.81 1.25-1.83 2.26-3.02 3.07-1.21.8-2.59 1.13-4.16.98-1.29-.13-2.43-.51-3.42-1.16-.98-.65-1.86-1.51-2.63-2.59-.9-1.3-1.5-2.65-1.8-4.07-.31-1.41-.51-2.85-.6-4.29zm5.45-4.95c-.65 1.54-.98 3.21-.99 5.02-.02 1.8.34 3.48 1.08 5.06.34.68.8 1.34 1.39 2.01.59.66 1.31 1 2.17 1 .61 0 1.22-.26 1.83-.77.6-.51 1.12-1.21 1.55-2.1.34-.77.61-1.6.81-2.5.2-.89.3-1.81.3-2.77 0-.74-.1-1.58-.3-2.52-.2-.94-.49-1.83-.88-2.68-.38-.84-.86-1.56-1.41-2.15-.56-.59-1.17-.88-1.85-.88-.4 0-.79.1-1.16.32-.37.22-.72.48-1.04.81-.33.33-.61.68-.86 1.06-.24.38-.46.75-.65 1.09zm18.94 16.72c-.37 0-.79-.03-1.25-.09-.47-.06-.88-.19-1.25-.39s-.66-.47-.86-.81c-.2-.34-.21-.79-.02-1.34v-18.71c.06-.34.16-.61.3-.83.14-.22.38-.45.72-.69.86-.37 1.74-.71 2.63-1.02.9-.31 1.8-.54 2.73-.7.92-.15 1.85-.2 2.79-.14s1.88.3 2.84.7c1.3.59 2.38 1.41 3.24 2.49.86 1.08 1.29 2.27 1.29 3.55 0 .98-.25 1.89-.76 2.7a8.02 8.02 0 01-1.97 2.15c1.17.68 2.08 1.53 2.72 2.56.65 1.03.97 2.1.97 3.21 0 .89-.23 1.77-.69 2.63-.47.86-1.17 1.68-2.13 2.45-.71.56-1.53.98-2.45 1.27-.93.29-1.89.51-2.91.65-1.02.13-2.03.22-3.05.27-1.01.05-1.98.07-2.91.07zm4.34-10.81c-.62-.06-1.18-.1-1.69-.12-.51-.01-1.02-.02-1.55-.02v6.98c.7 0 1.46.01 2.27.02.8.02 1.57-.02 2.31-.11a6.91 6.91 0 002.03-.56c.61-.27 1.11-.72 1.48-1.34.46-.77.61-1.44.44-1.99-.17-.55-.52-1.03-1.07-1.44-.54-.4-1.18-.71-1.92-.94-.74-.23-1.45-.4-2.13-.49h-.18zm-3.23-4.11c.52 0 1.06.01 1.62.02.55.01 1.09.04 1.62.07.37-.03.82-.14 1.34-.32.52-.19 1.02-.43 1.48-.72.47-.29.86-.63 1.18-1.02.33-.38.49-.81.49-1.27 0-.77-.31-1.37-.95-1.78-.63-.42-1.38-.69-2.24-.81-.86-.13-1.71-.11-2.56.04-.85.15-1.5.4-1.97.74v5.04zm15.61 8.13c-.22-.4-.31-.79-.27-1.16.03-.37.13-.7.32-.97.19-.28.43-.5.74-.67.31-.17.63-.26.97-.26.37 0 .75.09 1.12.28.37.19.72.49 1.06.93l.05.04c.12.22.3.55.53 1 .23.45.49.89.76 1.34.28.45.57.84.86 1.2.29.36.53.55.72.58.31-.43.55-1.02.74-1.78.19-.75.32-1.42.41-2.01 0-.06.01-.12.03-.17.01-.05.02-.1.02-.16.15-1.11.26-2.22.32-3.32a62.49 62.49 0 00.05-6.03c-.04-.91-.06-1.81-.09-2.7.09-.49.26-.88.51-1.16.24-.28.63-.51 1.16-.69.89-.13 1.81-.2 2.77-.24.95-.03 1.88-.07 2.77-.13.89-.06 1.78-.12 2.68-.17.89-.05 1.78-.15 2.68-.3.74-.03 1.31.09 1.71.35.4.26.71.7.93 1.32v9.38c0 1.54.01 3.07.02 4.59.02 1.53.03 3.08.03 4.65-.06.74-.32 1.29-.77 1.66-.45.37-.93.56-1.46.56-.52 0-1-.17-1.45-.51-.45-.34-.7-.86-.77-1.57v-8.22c0-1.39-.01-2.74-.02-4.05-.01-1.3-.02-2.66-.02-4.04l-6.29.56c0 .22.01.44.02.67.02.23.03.44.03.62 0 .52.01 1.07.02 1.62s.02 1.11.02 1.66c0 1.85-.1 3.71-.32 5.59s-.68 3.61-1.39 5.18c-.49.98-1.09 1.7-1.8 2.15-.7.45-1.48.67-2.31.67-.83 0-1.65-.21-2.45-.62-.8-.42-1.54-1.01-2.22-1.78-.37-.47-.7-.95-1.02-1.46-.31-.51-.61-1.02-.92-1.55l-.47-.88zm45.41-6.79c-.49 1.02-1.25 1.87-2.26 2.56a16.48 16.48 0 01-3.37 1.74c-1.23.46-2.5.82-3.81 1.09-1.31.26-2.5.47-3.58.62.59 1.29 1.46 2.32 2.63 3.09s2.57 1.08 4.2.93c.99-.15 1.93-.41 2.82-.77.89-.36 1.82-.79 2.77-1.32.49-.22.95-.31 1.39-.27.42.03.8.13 1.13.3.33.17.57.4.74.69.17.29.26.59.26.91 0 .74-.46 1.39-1.39 1.94-1.26.68-2.69 1.28-4.28 1.81-1.58.52-3.19.78-4.82.78-1.02 0-1.99-.13-2.93-.39-.94-.26-1.81-.7-2.61-1.32-1.69-1.3-2.97-2.89-3.81-4.76-.84-1.87-1.27-3.82-1.27-5.82 0-1.11.13-2.19.39-3.26.26-1.06.65-2.06 1.18-3 .52-.94 1.18-1.81 1.97-2.61.79-.8 1.71-1.48 2.79-2.03 1.26-.59 2.71-.88 4.34-.88 1.45 0 2.81.24 4.07.72 1.26.48 2.28 1.16 3.07 2.03.79.88 1.25 1.92 1.39 3.14.14 1.22-.19 2.58-.99 4.09zm-13.49-.55c-.13.46-.22.91-.28 1.34-.06.43-.08.86-.04 1.29.06 0 .16-.01.3-.04.13-.04.24-.05.3-.05.83-.12 1.68-.24 2.54-.37.86-.12 1.69-.31 2.49-.55.8-.24 1.57-.59 2.29-1.05.72-.45 1.36-1.09 1.92-1.92.52-.77.69-1.44.51-2.03-.19-.59-.55-1.06-1.09-1.42-.54-.36-1.18-.59-1.92-.71-.74-.13-1.4-.13-1.99 0-.71.12-1.34.38-1.9.78-.56.4-1.05.88-1.48 1.41-.43.54-.79 1.1-1.07 1.69-.28.58-.48 1.12-.6 1.62zm20.46-7.67c.13-.62.39-1.08.79-1.39.4-.31.86-.46 1.39-.46.46 0 .91.15 1.34.44.43.29.74.72.93 1.27 0 .71-.01 1.4-.03 2.08-.01.68-.02 1.36-.02 2.03v3.7c.52-.06 1.04-.12 1.57-.17.52-.05 1.05-.1 1.57-.16.61-.06 1.16-.12 1.64-.18s1.02-.15 1.64-.24v-1.22-1.44c0-.54.01-1.17.03-1.9.01-.72.02-1.59.02-2.61 0-.52.24-.97.72-1.34.48-.37.98-.56 1.5-.56.15 0 .35.03.58.09.23.06.47.17.7.3.23.14.43.33.62.56.19.23.29.5.33.81v6.83c0 .89.01 1.71.02 2.47.01.75.02 1.48.02 2.2.03 1.44.06 2.88.07 4.32.01 1.43.02 2.87.02 4.32-.06.74-.31 1.29-.76 1.66-.45.37-.93.56-1.46.56-.52 0-1.01-.17-1.46-.51-.45-.34-.7-.86-.76-1.58v-3.74c0-.98-.01-1.8-.02-2.45-.02-.65-.03-1.18-.03-1.6v-1.18c-1.11.15-2.18.29-3.23.42-1.04.12-2.13.26-3.23.42-.03 1.54-.04 3.02-.02 4.45.01 1.44.01 2.8-.02 4.09 0 .28-.08.51-.26.7-.17.18-.38.33-.62.44-.24.1-.5.17-.77.2-.26.03-.48.05-.67.05-.52 0-.99-.15-1.39-.46-.4-.31-.66-.77-.79-1.39v-10.03c0-1.63.01-3.25.03-4.87.01-1.62.02-3.25.02-4.92v-.05zm20.09.42c.13-.62.4-1.08.81-1.39.42-.31.87-.47 1.37-.47.46 0 .91.14 1.36.42.45.28.77.71.95 1.3v3.3c0 1.03-.01 2.06-.02 3.09-.01 1.03-.03 2.07-.05 3.12-.01 1.05-.02 2.15-.02 3.32l3.37-4.76 6.43-8.96c.27-.24.56-.42.88-.51.31-.09.6-.14.88-.14.52 0 .98.14 1.36.42.38.27.65.69.81 1.25v19.68c-.06.77-.31 1.34-.74 1.71-.43.37-.93.56-1.48.56-.49 0-.97-.17-1.44-.53-.46-.36-.72-.89-.78-1.6v-12.7l-.33.37c-1.54 2.1-3.08 4.22-4.62 6.38-1.54 2.15-3.08 4.39-4.62 6.7-.55.65-1.21.97-1.99.97-.55 0-1.04-.17-1.48-.53-.43-.36-.68-.86-.74-1.51.04-3.26.06-6.5.07-9.72.01-3.22.02-6.46.02-9.73v-.04zm40.33 7.8c-.49 1.02-1.25 1.87-2.26 2.56a16.48 16.48 0 01-3.37 1.74c-1.23.46-2.5.82-3.81 1.09-1.31.26-2.5.47-3.58.62.59 1.29 1.46 2.32 2.63 3.09s2.57 1.08 4.2.93c.99-.15 1.93-.41 2.82-.77.89-.36 1.82-.79 2.77-1.32.49-.22.95-.31 1.39-.27.42.03.8.13 1.13.3.33.17.57.4.74.69.17.29.26.59.26.91 0 .74-.46 1.39-1.39 1.94-1.26.68-2.69 1.28-4.28 1.81-1.58.52-3.19.78-4.82.78-1.02 0-1.99-.13-2.93-.39-.94-.26-1.81-.7-2.61-1.32-1.69-1.3-2.97-2.89-3.81-4.76-.84-1.87-1.27-3.82-1.27-5.82 0-1.11.13-2.19.39-3.26.26-1.06.65-2.06 1.18-3 .52-.94 1.18-1.81 1.97-2.61.79-.8 1.71-1.48 2.79-2.03 1.26-.59 2.71-.88 4.34-.88 1.45 0 2.81.24 4.07.72 1.26.48 2.28 1.16 3.07 2.03.79.88 1.25 1.92 1.39 3.14.14 1.22-.19 2.58-.99 4.09zm-13.49-.55c-.13.46-.22.91-.28 1.34-.06.43-.08.86-.04 1.29.06 0 .16-.01.3-.04.13-.04.24-.05.3-.05.83-.12 1.68-.24 2.54-.37.86-.12 1.69-.31 2.49-.55.8-.24 1.57-.59 2.29-1.05.72-.45 1.36-1.09 1.92-1.92.52-.77.69-1.44.51-2.03-.19-.59-.55-1.06-1.09-1.42-.54-.36-1.18-.59-1.92-.71-.74-.13-1.4-.13-1.99 0-.71.12-1.34.38-1.9.78-.56.4-1.05.88-1.48 1.41-.43.54-.79 1.1-1.07 1.69-.28.58-.48 1.12-.6 1.62zM52.77 362.43c-.37 0-.79-.03-1.25-.09-.47-.06-.88-.19-1.25-.39s-.66-.47-.86-.81c-.2-.34-.21-.79-.02-1.34v-18.71c.06-.34.16-.61.3-.83.14-.22.38-.45.72-.69.86-.37 1.74-.71 2.63-1.02.9-.31 1.8-.54 2.73-.7.92-.15 1.85-.2 2.79-.14s1.88.3 2.84.7c1.3.59 2.38 1.41 3.24 2.49.86 1.08 1.29 2.27 1.29 3.55 0 .98-.25 1.89-.76 2.7a8.02 8.02 0 01-1.97 2.15c1.17.68 2.08 1.53 2.72 2.56.65 1.03.97 2.1.97 3.21 0 .89-.23 1.77-.69 2.63-.47.86-1.17 1.68-2.13 2.45-.71.56-1.53.98-2.45 1.27-.93.29-1.89.51-2.91.65-1.02.13-2.03.22-3.05.27-1.01.05-1.98.07-2.91.07zm4.34-10.81c-.62-.06-1.18-.1-1.69-.12-.51-.01-1.02-.02-1.55-.02v6.98c.7 0 1.46.01 2.27.02.8.02 1.57-.02 2.31-.11a6.91 6.91 0 002.03-.56c.61-.27 1.11-.72 1.48-1.34.46-.77.61-1.44.44-1.99-.17-.55-.52-1.03-1.07-1.44-.54-.4-1.18-.71-1.92-.94-.74-.23-1.45-.4-2.13-.49h-.18zm-3.23-4.11c.52 0 1.06.01 1.62.02.55.01 1.09.04 1.62.07.37-.03.82-.14 1.34-.32.52-.19 1.02-.43 1.48-.72.47-.29.86-.63 1.18-1.02.33-.38.49-.81.49-1.27 0-.77-.31-1.37-.95-1.78-.63-.42-1.38-.69-2.24-.81-.86-.13-1.71-.11-2.56.04-.85.15-1.5.4-1.97.74v5.04z"/>
            <path class="fil4" d="M71.29 340.63c.13-.62.39-1.08.79-1.39.4-.31.86-.46 1.39-.46.46 0 .91.15 1.34.44.43.29.74.72.93 1.27 0 .71-.01 1.4-.03 2.08-.01.68-.02 1.36-.02 2.03v3.7c.52-.06 1.04-.12 1.57-.17.52-.05 1.05-.1 1.57-.16.61-.06 1.16-.12 1.64-.18s1.02-.15 1.64-.24v-1.22-1.44c0-.54.01-1.17.03-1.9.01-.72.02-1.59.02-2.61 0-.52.24-.97.72-1.34.48-.37.98-.56 1.5-.56.15 0 .35.03.58.09.23.06.47.17.7.3.23.14.43.33.62.56.19.23.29.5.33.81v6.83c0 .89.01 1.71.02 2.47.01.75.02 1.48.02 2.2.03 1.44.06 2.88.07 4.32.01 1.43.02 2.87.02 4.32-.06.74-.31 1.29-.76 1.66-.45.37-.93.56-1.46.56-.52 0-1.01-.17-1.46-.51-.45-.34-.7-.86-.76-1.58v-3.74c0-.98-.01-1.8-.02-2.45-.02-.65-.03-1.18-.03-1.6v-1.18c-1.11.15-2.18.29-3.23.42-1.04.12-2.13.26-3.23.42-.03 1.54-.04 3.02-.02 4.45.01 1.44.01 2.8-.02 4.09 0 .28-.08.51-.26.7-.17.18-.38.33-.62.44-.24.1-.5.17-.77.2-.26.03-.48.05-.67.05-.52 0-.99-.15-1.39-.46-.4-.31-.66-.77-.79-1.39v-10.03c0-1.63.01-3.25.03-4.87.01-1.62.02-3.25.02-4.92v-.05zm37.74 8.22c-.49 1.02-1.25 1.87-2.26 2.56a16.48 16.48 0 01-3.37 1.74c-1.23.46-2.5.82-3.81 1.09-1.31.26-2.5.47-3.58.62.59 1.29 1.46 2.32 2.63 3.09s2.57 1.08 4.2.93c.99-.15 1.93-.41 2.82-.77.89-.36 1.82-.79 2.77-1.32.49-.22.95-.31 1.39-.27.42.03.8.13 1.13.3.33.17.57.4.74.69.17.29.26.59.26.91 0 .74-.46 1.39-1.39 1.94-1.26.68-2.69 1.28-4.28 1.81-1.58.52-3.19.78-4.82.78-1.02 0-1.99-.13-2.93-.39-.94-.26-1.81-.7-2.61-1.32-1.69-1.3-2.97-2.89-3.81-4.76-.84-1.87-1.27-3.82-1.27-5.82 0-1.11.13-2.19.39-3.26.26-1.06.65-2.06 1.18-3 .52-.94 1.18-1.81 1.97-2.61.79-.8 1.71-1.48 2.79-2.03 1.26-.59 2.71-.88 4.34-.88 1.45 0 2.81.24 4.07.72 1.26.48 2.28 1.16 3.07 2.03.79.88 1.25 1.92 1.39 3.14.14 1.22-.19 2.58-.99 4.09zm-13.49-.55c-.13.46-.22.91-.28 1.34-.06.43-.08.86-.04 1.29.06 0 .16-.01.3-.04.13-.04.24-.05.3-.05.83-.12 1.68-.24 2.54-.37.86-.12 1.69-.31 2.49-.55.8-.24 1.57-.59 2.29-1.05.72-.45 1.36-1.09 1.92-1.92.52-.77.69-1.44.51-2.03-.19-.59-.55-1.06-1.09-1.42-.54-.36-1.18-.59-1.92-.71-.74-.13-1.4-.13-1.99 0-.71.12-1.34.38-1.9.78-.56.4-1.05.88-1.48 1.41-.43.54-.79 1.1-1.07 1.69-.28.58-.48 1.12-.6 1.62zm19.49-8.18c.12-.62.39-1.08.81-1.39.41-.31.86-.46 1.36-.46.47 0 .92.15 1.37.44.45.29.76.72.95 1.27-.04.86-.06 1.74-.09 2.63-.04.89-.05 1.78-.05 2.68 0 1.08.03 2.17.09 3.27.06 1.11.19 2.2.37 3.28.19 1.08.43 2.13.74 3.16.31 1.03.71 2.01 1.21 2.93.37.34.61.5.74.49.12-.01.22-.02.28-.02.24.03.4.02.48-.03.08-.05.21-.13.4-.25 1.14-2.1 1.92-4.61 2.36-7.53.43-2.93.72-6.25.88-9.98.15-.52.43-.92.83-1.18.4-.26.83-.39 1.3-.39.65 0 1.18.24 1.59.74.42.49.63 1.02.63 1.57-.04.89-.06 1.67-.07 2.33-.01.66-.02 1.3-.02 1.92 0 1.14.03 2.31.11 3.53.08 1.22.22 2.39.42 3.51.2 1.12.49 2.17.88 3.12.38.95.89 1.74 1.5 2.36l.61.18h.09c-.03 0 .08-.03.32-.09.74-.71 1.27-1.6 1.6-2.68.33-1.08.58-2.17.76-3.27.34-2.03.56-4.06.67-6.08.11-2.01.19-4.06.26-6.13.12-.61.39-1.07.81-1.38a2.3 2.3 0 011.41-.47c.43 0 .87.15 1.32.44.45.29.76.72.95 1.28-.13 2.22-.24 4.4-.35 6.54-.1 2.14-.33 4.27-.67 6.4a31.54 31.54 0 01-.76 3.28 13.72 13.72 0 01-1.28 3.02 6.99 6.99 0 01-2.01 2.24c-.81.59-1.81.88-2.98.88-1.67 0-3.02-.52-4.06-1.57-.46-.46-.83-.89-1.11-1.27-.28-.38-.52-.79-.74-1.23l-.14-.14-.05-.05c-.24.52-.5 1-.76 1.41-.26.41-.56.79-.9 1.13-.71.65-1.39 1.11-2.03 1.39-.65.28-1.41.42-2.31.42-.89 0-1.76-.19-2.61-.56-.85-.37-1.53-.97-2.06-1.8-.65-1.05-1.18-2.17-1.6-3.37-.41-1.21-.73-2.45-.95-3.72-.22-1.28-.36-2.56-.44-3.86-.08-1.29-.11-2.59-.11-3.88 0-.86.01-1.71.02-2.56.01-.84.04-1.66.07-2.47v-.05zm32.33.51c.13-.62.39-1.08.79-1.39.4-.31.86-.46 1.39-.46.46 0 .91.15 1.34.44.43.29.74.72.93 1.27 0 .71-.01 1.4-.03 2.08-.01.68-.02 1.36-.02 2.03v3.7c.52-.06 1.04-.12 1.57-.17.52-.05 1.05-.1 1.57-.16.61-.06 1.16-.12 1.64-.18s1.02-.15 1.64-.24v-1.22-1.44c0-.54.01-1.17.03-1.9.01-.72.02-1.59.02-2.61 0-.52.24-.97.72-1.34.48-.37.98-.56 1.5-.56.15 0 .35.03.58.09.23.06.47.17.7.3.23.14.43.33.62.56.19.23.29.5.33.81v6.83c0 .89.01 1.71.02 2.47.01.75.02 1.48.02 2.2.03 1.44.06 2.88.07 4.32.01 1.43.02 2.87.02 4.32-.06.74-.31 1.29-.76 1.66-.45.37-.93.56-1.46.56-.52 0-1.01-.17-1.46-.51-.45-.34-.7-.86-.76-1.58v-3.74c0-.98-.01-1.8-.02-2.45-.02-.65-.03-1.18-.03-1.6v-1.18c-1.11.15-2.18.29-3.23.42-1.04.12-2.13.26-3.23.42-.03 1.54-.04 3.02-.02 4.45.01 1.44.01 2.8-.02 4.09 0 .28-.08.51-.26.7-.17.18-.38.33-.62.44-.24.1-.5.17-.77.2-.26.03-.48.05-.67.05-.52 0-.99-.15-1.39-.46-.4-.31-.66-.77-.79-1.39v-10.03c0-1.63.01-3.25.03-4.87.01-1.62.02-3.25.02-4.92v-.05zm37.74 8.22c-.49 1.02-1.25 1.87-2.26 2.56a16.48 16.48 0 01-3.37 1.74c-1.23.46-2.5.82-3.81 1.09-1.31.26-2.5.47-3.58.62.59 1.29 1.46 2.32 2.63 3.09s2.57 1.08 4.2.93c.99-.15 1.93-.41 2.82-.77.89-.36 1.82-.79 2.77-1.32.49-.22.95-.31 1.39-.27.42.03.8.13 1.13.3.33.17.57.4.74.69.17.29.26.59.26.91 0 .74-.46 1.39-1.39 1.94-1.26.68-2.69 1.28-4.28 1.81-1.58.52-3.19.78-4.82.78-1.02 0-1.99-.13-2.93-.39-.94-.26-1.81-.7-2.61-1.32-1.69-1.3-2.97-2.89-3.81-4.76-.84-1.87-1.27-3.82-1.27-5.82 0-1.11.13-2.19.39-3.26.26-1.06.65-2.06 1.18-3 .52-.94 1.18-1.81 1.97-2.61.79-.8 1.71-1.48 2.79-2.03 1.26-.59 2.71-.88 4.34-.88 1.45 0 2.81.24 4.07.72 1.26.48 2.28 1.16 3.07 2.03.79.88 1.25 1.92 1.39 3.14.14 1.22-.19 2.58-.99 4.09zm-13.49-.55c-.13.46-.22.91-.28 1.34-.06.43-.08.86-.04 1.29.06 0 .16-.01.3-.04.13-.04.24-.05.3-.05.83-.12 1.68-.24 2.54-.37.86-.12 1.69-.31 2.49-.55.8-.24 1.57-.59 2.29-1.05.72-.45 1.36-1.09 1.92-1.92.52-.77.69-1.44.51-2.03-.19-.59-.55-1.06-1.09-1.42-.54-.36-1.18-.59-1.92-.71-.74-.13-1.4-.13-1.99 0-.71.12-1.34.38-1.9.78-.56.4-1.05.88-1.48 1.41-.43.54-.79 1.1-1.07 1.69-.28.58-.48 1.12-.6 1.62zm20-7.25c.12-.62.39-1.08.81-1.39.41-.31.86-.47 1.36-.47.47 0 .92.14 1.37.42.45.28.76.71.95 1.3v3.3c0 1.03-.01 2.06-.02 3.09a314.519 314.519 0 00-.07 6.44l3.37-4.76 6.42-8.96c.28-.24.57-.42.88-.51.31-.09.6-.14.88-.14.52 0 .98.14 1.37.42.38.27.65.69.81 1.25v19.68c-.06.77-.31 1.34-.74 1.71-.43.37-.93.56-1.48.56-.49 0-.97-.17-1.43-.53-.47-.36-.72-.89-.79-1.6v-12.7l-.32.37c-1.54 2.1-3.08 4.22-4.62 6.38-1.54 2.15-3.08 4.39-4.62 6.7-.56.65-1.22.97-1.99.97-.56 0-1.05-.17-1.48-.53-.43-.36-.68-.86-.75-1.51.04-3.26.06-6.5.07-9.72.02-3.22.03-6.46.03-9.73v-.04zm16.13-8.5c0 .34-.08.61-.24.83v-.04c-1.26 3.23-3.85 4.85-7.76 4.85-2.07 0-3.81-.59-5.23-1.76-1.54-1.45-2.31-2.82-2.31-4.11 0-.47.21-.86.62-1.21.42-.34.89-.51 1.41-.51.8 0 1.39.36 1.76 1.07 1.05 2.06 2.36 3.09 3.92 3.09 1.08-.06 1.92-.32 2.52-.79.61-.46 1.12-1.15 1.55-2.08.34-.68.91-1.02 1.71-1.02.55 0 1.03.16 1.43.49.4.32.61.71.61 1.18zm20.22 7.25c.12-.62.39-1.08.81-1.39a2.3 2.3 0 011.41-.47c.43 0 .87.15 1.32.44.45.29.76.73.95 1.32v.47c.61-.37 1.31-.65 2.1-.84.79-.18 1.58-.27 2.38-.27 1.17 0 2.32.21 3.44.62 1.12.42 2.06 1.02 2.79 1.83 1.08 1.23 1.85 2.63 2.33 4.18.47 1.55.75 3.1.81 4.64.03.9-.04 1.81-.19 2.75s-.39 1.86-.72 2.77c-.32.91-.75 1.77-1.29 2.59-.54.81-1.19 1.52-1.97 2.1-.71.52-1.46.91-2.24 1.14-.79.23-1.58.35-2.38.35-1.91 0-3.59-.49-5.04-1.48v9.75c-.06.74-.31 1.3-.76 1.66-.45.37-.95.56-1.51.56-.49 0-.97-.17-1.43-.51-.47-.34-.72-.86-.79-1.57v-15.25c0-5.05-.01-10.16-.04-15.34v-.04zm6.24 4.34c-.4.34-.71.76-.93 1.27-.22.51-.38 1.05-.49 1.62-.1.57-.17 1.16-.2 1.78-.03.62-.06 1.21-.1 1.76 0 .8.07 1.71.21 2.7.14 1 .49 1.9 1.04 2.7.43.62 1 1.12 1.69 1.51.69.38 1.39.57 2.1.57.83 0 1.53-.27 2.08-.81.56-.54 1-1.2 1.34-1.99.34-.79.58-1.61.71-2.47.14-.86.21-1.64.21-2.31 0-.65-.06-1.35-.18-2.13-.13-.77-.33-1.51-.61-2.22-.27-.71-.64-1.34-1.11-1.87a3.68 3.68 0 00-1.71-1.13c-.65-.12-1.34-.11-2.1.02-.75.14-1.41.47-1.96 1zm33.3 4.71c-.49 1.02-1.25 1.87-2.26 2.56a16.48 16.48 0 01-3.37 1.74c-1.23.46-2.5.82-3.81 1.09-1.31.26-2.5.47-3.58.62.59 1.29 1.46 2.32 2.63 3.09s2.57 1.08 4.2.93c.99-.15 1.93-.41 2.82-.77.89-.36 1.82-.79 2.77-1.32.49-.22.95-.31 1.39-.27.42.03.8.13 1.13.3.33.17.57.4.74.69.17.29.26.59.26.91 0 .74-.46 1.39-1.39 1.94-1.26.68-2.69 1.28-4.28 1.81-1.58.52-3.19.78-4.82.78-1.02 0-1.99-.13-2.93-.39-.94-.26-1.81-.7-2.61-1.32-1.69-1.3-2.97-2.89-3.81-4.76-.84-1.87-1.27-3.82-1.27-5.82 0-1.11.13-2.19.39-3.26.26-1.06.65-2.06 1.18-3 .52-.94 1.18-1.81 1.97-2.61.79-.8 1.71-1.48 2.79-2.03 1.26-.59 2.71-.88 4.34-.88 1.45 0 2.81.24 4.07.72 1.26.48 2.28 1.16 3.07 2.03.79.88 1.25 1.92 1.39 3.14.14 1.22-.19 2.58-.99 4.09zm-13.49-.55c-.13.46-.22.91-.28 1.34-.06.43-.08.86-.04 1.29.06 0 .16-.01.3-.04.13-.04.24-.05.3-.05.83-.12 1.68-.24 2.54-.37.86-.12 1.69-.31 2.49-.55.8-.24 1.57-.59 2.29-1.05.72-.45 1.36-1.09 1.92-1.92.52-.77.69-1.44.51-2.03-.19-.59-.55-1.06-1.09-1.42-.54-.36-1.18-.59-1.92-.71-.74-.13-1.4-.13-1.99 0-.71.12-1.34.38-1.9.78-.56.4-1.05.88-1.48 1.41-.43.54-.79 1.1-1.07 1.69-.28.58-.48 1.12-.6 1.62zm28.54 3.88c-1.02-.03-1.8-.05-2.36-.06-.55-.02-.96-.03-1.23-.03h-.53v8.18c-.06.74-.31 1.29-.76 1.66-.45.37-.93.56-1.46.56-.52 0-1.02-.17-1.48-.51-.47-.34-.72-.86-.79-1.57v-20.15c.13-.62.4-1.08.81-1.39.42-.31.89-.46 1.41-.46.43 0 .87.15 1.32.44.45.29.76.72.95 1.27v7.76h3.05c.65-.43 1.24-.91 1.78-1.44.54-.52 1.08-1.12 1.62-1.78.54-.66 1.09-1.42 1.66-2.29.56-.86 1.22-1.87 1.97-3 .68-.52 1.3-.79 1.89-.79.71 0 1.28.28 1.71.84.43.55.47 1.25.14 2.08-.68.98-1.28 1.87-1.81 2.65-.52.79-1.02 1.5-1.5 2.15-.48.65-.95 1.25-1.44 1.78-.48.54-1 1.05-1.55 1.55l1.11 1.11c1.23 1.17 2.38 2.5 3.46 3.99 1.08 1.5 2.02 3.03 2.82 4.6.24.8.15 1.46-.3 1.97-.45.51-1.01.76-1.69.76-.34 0-.68-.07-1.02-.21-.34-.13-.66-.37-.98-.71-.24-.52-.63-1.21-1.15-2.03-.52-.83-1.11-1.69-1.76-2.56-.65-.88-1.32-1.71-2.01-2.5-.69-.79-1.33-1.41-1.92-1.87zm13.3 3.47c-.22-.4-.31-.79-.27-1.16.03-.37.13-.7.32-.97.19-.28.43-.5.74-.67.31-.17.63-.26.97-.26.37 0 .75.09 1.12.28.37.19.72.49 1.06.93l.05.04c.12.22.3.55.53 1 .23.45.49.89.76 1.34.28.45.57.84.86 1.2.29.36.53.55.72.58.31-.43.55-1.02.74-1.78.19-.75.32-1.42.41-2.01 0-.06.01-.12.03-.17.01-.05.02-.1.02-.16.15-1.11.26-2.22.32-3.32a62.49 62.49 0 00.05-6.03c-.04-.91-.06-1.81-.09-2.7.09-.49.26-.88.51-1.16.24-.28.63-.51 1.16-.69.89-.13 1.81-.2 2.77-.24.95-.03 1.88-.07 2.77-.13.89-.06 1.78-.12 2.68-.17.89-.05 1.78-.15 2.68-.3.74-.03 1.31.09 1.71.35.4.26.71.7.93 1.32v9.38c0 1.54.01 3.07.02 4.59.02 1.53.03 3.08.03 4.65-.06.74-.32 1.29-.77 1.66-.45.37-.93.56-1.46.56-.52 0-1-.17-1.45-.51-.45-.34-.7-.86-.77-1.57v-8.22c0-1.39-.01-2.74-.02-4.05-.01-1.3-.02-2.66-.02-4.04l-6.29.56c0 .22.01.44.02.67.02.23.03.44.03.62 0 .52.01 1.07.02 1.62s.02 1.11.02 1.66c0 1.85-.1 3.71-.32 5.59s-.68 3.61-1.39 5.18c-.49.98-1.09 1.7-1.8 2.15-.7.45-1.48.67-2.31.67-.83 0-1.65-.21-2.45-.62-.8-.42-1.54-1.01-2.22-1.78-.37-.47-.7-.95-1.02-1.46-.31-.51-.61-1.02-.92-1.55l-.47-.88zm36.63-9.38c.09-.04.35-.13.77-.28.41-.15.85-.31 1.32-.46.46-.15.88-.31 1.25-.47.37-.15.56-.24.6-.27-.15-.93-.4-1.66-.74-2.22-.37-.42-.85-.64-1.44-.64-.62 0-1.26.14-1.94.41-.68.28-1.21.57-1.57.88-.34.22-.69.49-1.06.81-.37.33-.82.72-1.34 1.18-.31.19-.59.31-.85.37s-.52.1-.77.1c-.61 0-1.12-.17-1.5-.51-.38-.34-.58-.79-.58-1.34 0-.46.13-.89.37-1.29.62-.55 1.25-1.1 1.92-1.65.66-.54 1.37-1.02 2.1-1.45.52-.34 1.09-.63 1.71-.88.62-.24 1.23-.42 1.85-.51.43-.06.91-.1 1.41-.1.51 0 .96.03 1.36.1 1.72.34 3 1.07 3.81 2.19.82 1.12 1.35 2.45 1.6 3.99.15.98.24 1.99.25 3.02.02 1.03.03 2.06.03 3.07v.98c0 .68.01 1.29.02 1.85.01.55.09 1.07.23 1.57.14.49.36.96.67 1.41.31.45.76.92 1.34 1.41.4.49.6 1 .6 1.52 0 .77-.35 1.32-1.04 1.66-.7.34-1.52.29-2.47-.14-.65-.52-1.18-1.02-1.6-1.48-.41-.46-.76-.94-1.04-1.44a18.4 18.4 0 01-4.23 3.47c-1.58.95-3.21 1.43-4.87 1.43-.89 0-1.73-.31-2.52-.92a7.552 7.552 0 01-1.92-2.22 8.962 8.962 0 01-1.15-4.41c0-1.55.54-3.02 1.62-4.41.98-1.11 2.18-1.98 3.58-2.61 1.4-.63 2.81-1.21 4.22-1.73zm4.07 4.25c0-.28.01-.49.02-.65.01-.15.02-.4.02-.74-.4.15-.8.3-1.2.44-.4.14-.8.29-1.21.44-.49.19-1.13.42-1.92.69-.79.28-1.55.63-2.29 1.07-.74.43-1.36.93-1.87 1.5a2.54 2.54 0 00-.67 1.97c.06.55.19 1.12.41 1.69.22.57.75 1.07 1.57 1.5.27.06.72-.13 1.36-.56.63-.43 1.32-.97 2.06-1.62.74-.65 1.46-1.34 2.15-2.08.7-.75 1.21-1.41 1.55-1.99v-1.66z"/>
            <path class="fil4" d="M351.8 361.01c-.19.55-.48.96-.88 1.22s-.83.4-1.3.4c-.49 0-.96-.17-1.41-.51-.45-.34-.7-.86-.76-1.58.15-1.63.26-3.25.34-4.87.08-1.62.15-3.24.21-4.87.06-1.51.13-3.01.19-4.51.06-1.49.15-2.99.27-4.5.13-.59.39-1.03.79-1.34.4-.31.86-.46 1.39-.46.8 0 1.46.36 1.99 1.07.93 1.57 1.83 3.14 2.72 4.71.9 1.57 1.78 3.14 2.63 4.71.43.77.8 1.46 1.11 2.06.31.6.68 1.28 1.11 2.06l4.67-8.08c.15-.28.33-.59.53-.95s.38-.66.54-.9c.33-.59.66-1.16.99-1.74.33-.57.77-1.25 1.32-2.06.28-.24.58-.42.9-.53.33-.1.61-.16.86-.16.52 0 .98.15 1.37.44.38.29.66.72.85 1.27.13 1.54.22 3.16.28 4.85v1.62c.04.71.06 1.43.07 2.15.01.72.05 1.46.11 2.19.06 1.3.13 2.56.19 3.81s.09 2.52.09 3.81c-.06.74-.31 1.3-.74 1.67-.43.37-.93.56-1.48.56-.49 0-.97-.17-1.43-.51-.47-.34-.72-.86-.79-1.57 0-1.51-.04-3.02-.12-4.53-.08-1.51-.15-3.01-.21-4.52l-.09-1.85-1.57 2.91c-.62 1.11-1.28 2.28-1.99 3.51s-1.6 2.65-2.68 4.25c-.4.43-.97.65-1.71.65-.34 0-.66-.06-.95-.19-.29-.12-.61-.35-.95-.69l-2.59-4.71c-.31-.56-.6-1.07-.86-1.53-.26-.47-.51-.91-.74-1.34-.23-.43-.48-.88-.74-1.34-.26-.46-.54-.98-.86-1.57 0 .24-.01.49-.02.72-.01.23-.02.47-.02.71-.06 1.69-.15 3.37-.24 5.04s-.21 3.32-.37 4.99l-.04.05zm36.49-.42c-.55.52-1.18.92-1.87 1.18-.69.26-1.39.4-2.1.4-1.05 0-2.03-.28-2.96-.84-.15.49-.43.84-.81 1.04-.38.2-.79.3-1.22.3-.52 0-1.01-.17-1.46-.5-.45-.34-.7-.86-.77-1.57.04-3.39.05-6.76.05-10.12v-10.16c.13-.62.39-1.08.79-1.39.4-.31.86-.47 1.39-.47.43 0 .87.15 1.32.44.45.29.76.72.95 1.28v6.14c.86-.46 1.77-.69 2.72-.69.77 0 1.51.14 2.22.42.7.27 1.32.72 1.85 1.34a7.65 7.65 0 011.83 2.95c.38 1.14.59 2.25.63 3.33 0 1.17-.2 2.38-.58 3.64a7.669 7.669 0 01-1.97 3.28zm9.47-.37c-.06.74-.31 1.3-.76 1.67-.45.37-.93.55-1.46.55-.52 0-1.02-.17-1.48-.51-.47-.34-.72-.86-.79-1.57.04-3.32.05-6.63.05-9.91v-9.91c.12-.62.39-1.08.81-1.39.41-.31.89-.46 1.41-.46.43 0 .87.15 1.32.44.45.29.76.72.95 1.27v9.91c0 3.28-.01 6.58-.05 9.91zm-13.54-10.63c-.4.09-.75.36-1.04.81-.29.45-.52.98-.67 1.62-.15.63-.24 1.31-.25 2.03-.02.72.04 1.39.18 1.99.14.6.36 1.1.65 1.51.29.4.68.6 1.18.6.4 0 .74-.16 1.02-.49.28-.33.5-.72.67-1.18.17-.46.29-.93.35-1.43.06-.49.09-.91.09-1.25 0-.31-.04-.7-.12-1.16-.08-.47-.19-.91-.34-1.34-.15-.43-.38-.81-.67-1.14-.29-.33-.64-.52-1.05-.58z"/>
        </g>
    </g>
</svg>
