<svg xmlns="http://www.w3.org/2000/svg" width="210.572" height="119.837" viewBox="0 0 444.69 253.07" shape-rendering="geometricPrecision" text-rendering="geometricPrecision" image-rendering="optimizeQuality" fill-rule="evenodd" clip-rule="evenodd">
    <defs>
        <style>
            .str0{stroke:#2b2b2a;stroke-width:1.41;stroke-linejoin:bevel;stroke-miterlimit:22.9256}.fil0{fill:#fe0}.fil2{fill:#1f1c21}.fil3{fill:#fe0;fill-rule:nonzero}
        </style>
    </defs>
    <g id="Layer_x0020_1">
        <g id="_105828795539264">
            <path class="fil0 str0" d="M311.57 146.44l35.89 30.28.33 47.73-35.89-30.29z"/>
            <path class="fil0 str0" d="M311.9 194.16l35.89 30.29-50.7 22.36-35.89-30.28z"/>
            <path class="fil0" stroke="#2b2b2a" stroke-width="1.41" stroke-miterlimit="22.926" d="M311.57 146.44l.33 47.72-50.7 22.37.5-47.18z"/>
            <path class="fil0" d="M54.49 153.86l-4.8 1.6c-2.4.8-4.74 1.8-6.96 3.02-1.59.87-2.88 2.17-3.95 3.62-1.17 1.58-1.68 3.48-1.83 5.42v85.55H0V44.65c0-3.76.69-7.64 1.41-11.33 1.14-5.82 4.14-10.99 7.95-15.47 4.88-5.74 11.74-9.75 18.6-12.68C37.93.92 50.24-.01 61-.01c10.75 0 23.07.93 33.04 5.18 6.86 2.92 13.73 6.94 18.6 12.68 3.81 4.48 6.81 9.65 7.95 15.47.72 3.69 1.41 7.57 1.41 11.33v55.7c0 8.1-2.28 15.65-6.45 22.57-4.25 7.04-10.86 11.96-18.16 15.45l40.04 114.7H98.3l-28.88-82.91c-2.24-6.85-5.46-18.02-14.93-16.3zm-17.54-31.23l1.71-.63c3.19-1.18 6.41-2.3 9.64-3.38 3.31-1.1 6.61-2.26 9.88-3.46 3.03-1.11 6.07-2.19 9.13-3.21 1.33-.44 2.67-.89 4-1.34 1.17-.39 2.33-.81 3.57-1.3 3.07-1.11 6.94-3 8.4-6.12 1.04-2.23 2.1-5.03 2.1-7.51V49.65c0-1.79-.35-3.6-.84-5.32-.51-1.79-1.66-3.3-2.99-4.56-2.03-1.92-4.83-3.29-7.42-4.28-4.14-1.58-9.41-1.88-13.81-1.88-4.16 0-9.03.33-12.93 1.87-2.49.98-5.08 2.37-6.88 4.38-1.27 1.41-2.4 3.09-2.84 4.96-.43 1.8-.72 3.66-.72 5.51v72.31z"/>
            <path d="M53.77 151.08l-4.99 1.66c-2.57.86-5.06 1.93-7.43 3.23-1.96 1.08-3.56 2.64-4.87 4.43-1.53 2.08-2.21 4.52-2.39 7.01v82.79H2.87V44.65c0-3.48.7-7.37 1.36-10.78 1.04-5.33 3.84-10.06 7.32-14.16 4.57-5.37 11.12-9.16 17.54-11.9C38.63 3.74 50.74 2.86 61 2.86c10.26 0 22.37.88 31.91 4.95 6.42 2.74 12.97 6.52 17.54 11.9 3.48 4.1 6.28 8.83 7.32 14.16.66 3.41 1.36 7.3 1.36 10.78v55.7c0 7.58-2.14 14.61-6.04 21.09-4.39 7.28-11.59 12.11-19.27 15.41l39.57 113.36h-33.06l-28.19-80.93c-1.75-5.35-5.69-20.68-18.38-18.19zM34.09 126.7c1.87-.65 3.72-1.32 5.57-2.01 3.16-1.17 6.35-2.28 9.55-3.35 3.34-1.11 6.66-2.28 9.97-3.49 3-1.1 6.01-2.17 9.04-3.18 1.33-.44 2.67-.89 4-1.34 1.21-.4 2.41-.83 3.64-1.32 3.88-1.4 8.19-3.69 10.03-7.6 1.23-2.64 2.37-5.78 2.37-8.73V49.65c0-2.06-.38-4.13-.95-6.11-.66-2.3-2.06-4.23-3.78-5.86-2.31-2.19-5.41-3.74-8.36-4.87-4.47-1.71-10.08-2.07-14.83-2.07-4.53 0-9.73.39-13.98 2.07-2.92 1.15-5.84 2.77-7.97 5.13-1.6 1.78-2.95 3.86-3.5 6.21-.48 2.01-.8 4.1-.8 6.17v76.38z" fill="#2b2b2a"/>
            <path class="fil2" d="M407.65 203.79l-15.84 43.84h-21.19l19.63-54.58-19.63-54.57h21.19l15.84 43.83 15.85-43.83h21.19l-19.63 54.57 19.63 54.58H423.5z"/>
            <path class="fil3" d="M407.65 199.1l.09-.04h-.17l.08.04 16.97 46.93h17.8l-19.06-52.98-.54-.2v.41l.54-.21 19.06-52.98h-17.8l-16.97 46.94-16.96-46.94h-17.8l19.06 52.98.71.28v-.55l-.71.27-19.06 52.98h17.8z"/>
            <path class="fil2" d="M176.85 136.78c13.59-7.95 26.38-9.02 40.64-1.48 5.16 2.87 9.9 6.69 13.07 11.73 3.13 4.97 4.61 10.44 4.61 16.31v57.57c0 3.86-.73 7.6-2.25 11.14-1.59 3.68-4.12 6.71-7.26 9.18-3.66 2.88-8.03 4.81-12.47 6.13-5.74 1.7-12 2.22-17.96 2.22-9.98 0-22.21-1.4-30.11-8.14-6.25-5.32-9.67-12.05-9.83-20.29V79.2h21.17v34.4l.39 23.18zm37.38 32.89h-.25l.03-.82c.72-22.64-39.18-22.99-37.55.03v48.66c0 1.53.35 3.06.87 4.49.61 1.67 1.63 3.09 2.91 4.3 1.57 1.49 3.65 2.48 5.69 3.16 2.91.97 6.25 1.23 9.3 1.23 4.71 0 11.28-.6 14.73-4.24 2.66-2.8 4.12-6.09 4.27-9.93v-46.86z" stroke="#2b2b2a" stroke-width=".84" stroke-miterlimit="22.926"/>
            <path class="fil3" d="M215.03 168.87h-.23c.76-23.8-40.85-24.08-39.14 0v48.81-.23c0 1.53.31 3.15.92 4.84.61 1.69 1.65 3.22 3.11 4.61 1.46 1.38 3.45 2.5 5.99 3.34 2.53.84 5.72 1.27 9.56 1.27 7.37 0 12.47-1.5 15.31-4.49s4.34-6.49 4.49-10.48v-47.66zm19.34 46.51v5.53c0 3.84-.73 7.44-2.19 10.82s-3.8 6.33-7.02 8.87c-3.22 2.53-7.29 4.53-12.2 5.99-4.91 1.46-10.82 2.19-17.73 2.19-13.51 0-23.37-2.65-29.59-7.94-6.22-5.3-9.4-11.86-9.55-19.69V80h19.57v33.61l.42 24.56c14.73-9.02 27.46-9.35 41.03-2.17 5.28 2.93 9.79 6.7 12.78 11.46 2.99 4.76 4.49 10.06 4.49 15.89v52.04z" stroke="#2b2b2a" stroke-width=".84" stroke-miterlimit="22.926"/>
        </g>
    </g>
</svg>
